<svg width="135" height="16" viewBox="0 0 135 16" fill="none" xmlns="http://www.w3.org/2000/svg">
<path d="M47.143 15.6618H45.3864C45.3864 15.6618 37.1939 3.52995 36.6412 2.69618V15.6571H35.25V0.518066H36.8426L45.7658 13.8116V0.518066H47.143V15.6571V15.6618Z" fill="#F2F2F2"/>
<path d="M0 0.522949H12.2583V1.82982H8.7312C7.64916 1.84387 6.81071 2.47155 6.81071 3.54889V15.662H5.41484C5.41484 15.4981 5.41484 4.23277 5.41484 4.23277C5.41484 4.23277 5.36332 1.9235 7.19481 1.82982H0.00937024V0.522949H0Z" fill="#F2F2F2"/>
<path d="M106.726 8.30313C106.777 5.75028 107.4 3.6799 109.058 2.02641C110.571 0.513441 112.436 -0.114235 114.548 0.0169208C118.408 0.255811 121.007 3.23491 121.443 6.80421C121.715 9.02916 121.321 11.1183 119.996 12.9545C118.427 15.1326 116.248 16.1209 113.578 15.971C110.154 15.7837 107.658 13.3198 106.96 9.99878C106.824 9.35706 106.782 8.69659 106.726 8.30313ZM119.49 8.1626C119.49 6.63089 119.176 5.34745 118.445 4.17642C116.464 1.00059 111.77 0.911588 109.845 4.08742C108.365 6.53253 108.351 9.13222 109.686 11.6523C111.442 14.9639 115.93 14.9639 118.005 12.4158C119.054 11.1323 119.471 9.63341 119.485 8.1626H119.49Z" fill="#F2F2F2"/>
<path d="M89.8018 0.522949H95.4133C98.2894 0.522949 100.28 1.82514 101.372 4.39203C102.585 7.24935 102.468 10.1207 100.828 12.8094C99.6899 14.6784 97.9662 15.648 95.7506 15.662C93.8863 15.6761 89.9376 15.662 89.8018 15.662V0.522949ZM95.596 13.9523C96.8888 13.9664 97.9006 13.4136 98.6782 12.4112C100.346 10.2565 100.496 6.59357 99.0248 4.19998C98.3128 3.04769 97.3385 2.25139 95.9286 2.2186H91.7363V13.957H95.6007L95.596 13.9523Z" fill="#F2F2F2"/>
<path d="M62.3992 0.532514H74.6622V2.24221H71.1819C70.6901 2.2469 70.1233 2.42021 69.7908 2.79962C69.5425 3.08067 69.5003 3.41324 69.491 3.76455V15.6575H67.5939V4.37818C67.5939 2.453 69.1116 2.23285 69.1116 2.23285H62.3945V0.527832L62.3992 0.532514Z" fill="#F2F2F2"/>
<path d="M105.334 15.662H103.493V0.522949H105.334V15.662Z" fill="#F2F2F2"/>
<path d="M86.321 10.0132C86.3116 12.0648 84.7003 13.9244 82.658 14.1914C82.5082 14.2101 81.9226 14.2101 81.7727 14.1914C79.7305 13.9244 78.1191 12.0648 78.1098 10.0132C78.0957 6.96381 78.1098 0.654303 78.1098 0.527832H76.208V10.0272C76.2221 13.47 78.9857 16.0088 82.2084 15.9995C82.2084 15.9995 82.2131 15.9995 82.2177 15.9995C82.2224 15.9995 82.2224 15.9995 82.2271 15.9995C85.4498 16.0088 88.1759 13.47 88.2181 10.0272C88.2181 10.0272 88.2228 0.626198 88.2181 0.527832H86.3257V10.0132H86.321Z" fill="#F2F2F2"/>
<path d="M31.632 0.522949L28.297 15.0156L24.2499 0.522949H22.6198C22.6198 0.522949 19.444 11.9897 18.5727 15.0156C17.4626 10.1863 15.2376 0.522949 15.2376 0.522949H13.7949L17.3127 15.662H19.636C19.711 15.662 23.4208 2.01719 23.4348 1.97035C23.4489 2.01719 27.1587 15.662 27.2337 15.662H29.557L33.0748 0.522949H31.632Z" fill="#F2F2F2"/>
<path d="M60.8865 12.4677C60.8865 11.7229 60.2823 11.1187 59.5375 11.1187C58.7927 11.1187 58.1885 11.7229 58.1885 12.4677C58.1885 12.477 58.1885 12.4911 58.1885 12.5005H60.8818C60.8818 12.5005 60.8818 12.477 60.8818 12.4677H60.8865Z" fill="#F2F2F2"/>
<path d="M58.7174 8.16293C57.6916 8.63134 56.6002 8.95455 55.4994 9.18875C54.4689 9.4089 53.4103 9.49322 52.4829 10.0553C51.532 10.6315 51.1245 11.5636 51.3962 12.5004H49.3211C49.3211 12.018 49.3024 11.5449 49.4195 11.0156C49.7005 9.74617 50.5155 8.85618 51.6585 8.33625C52.6749 7.87252 53.7569 7.58678 54.839 7.32915C55.8554 7.09027 56.9843 6.98722 57.8883 6.43918C58.9469 5.79745 59.3404 4.72479 58.8673 3.69428C58.6003 3.10408 58.146 2.6872 57.5885 2.38273C56.6424 1.86748 55.6306 1.741 54.5767 1.87684C52.9794 2.07826 51.7194 3.12282 51.3306 4.59363C51.265 4.84657 51.2322 5.10888 51.1807 5.36183H49.3164C49.2368 4.14864 49.8598 2.6872 50.8434 1.74569C53.0356 -0.348112 57.1014 -0.493317 59.4388 1.44122C60.7129 2.49515 61.3218 3.82076 60.9517 5.48362C60.6707 6.7577 59.8557 7.64299 58.7127 8.16293H58.7174Z" fill="#F2F2F2"/>
<path d="M134.441 3.60018C134.441 4.34495 133.837 4.9492 133.092 4.9492C132.347 4.9492 131.743 4.34495 131.743 3.60018C131.743 3.59081 131.743 3.57675 131.743 3.56738H134.437C134.437 3.56738 134.437 3.59081 134.437 3.60018H134.441Z" fill="#F2F2F2"/>
<path d="M132.268 7.90488C131.242 7.43647 130.151 7.11326 129.05 6.87906C128.02 6.6589 126.961 6.57459 126.034 6.01249C125.083 5.43635 124.675 4.50421 124.947 3.56738H122.872C122.872 4.04985 122.853 4.52294 122.97 5.05225C123.251 6.32164 124.066 7.21163 125.209 7.73156C126.226 8.19529 127.308 8.48103 128.39 8.73865C129.406 8.97754 130.535 9.08059 131.439 9.62863C132.498 10.2704 132.891 11.343 132.418 12.3735C132.151 12.9637 131.697 13.3806 131.139 13.6851C130.193 14.2003 129.181 14.3268 128.127 14.191C126.53 13.9895 125.27 12.945 124.881 11.4742C124.816 11.2212 124.783 10.9589 124.731 10.706H122.867C122.788 11.9192 123.411 13.3806 124.394 14.3221C126.586 16.4159 130.652 16.5611 132.99 14.6266C134.264 13.5727 134.873 12.2471 134.503 10.5842C134.221 9.31012 133.406 8.42482 132.264 7.90488H132.268Z" fill="#F2F2F2"/>
</svg>
