<?xml version="1.0" encoding="UTF-8"?>
<svg id="uuid-891d9994-8b08-48ea-98b3-5776809e9626" data-name="Capa 1" xmlns="http://www.w3.org/2000/svg" viewBox="0 0 346.93 74.08">
  <path d="M101.74,28.93c7.16,0,11.79,3.72,13.96,9.97h10.7c-2.63-11.88-12.06-19.31-24.66-19.31-15.05,0-26.39,11.7-26.39,27.02s11.33,26.66,26.39,26.66c12.6,0,21.76-7.8,24.66-19.31h-10.7c-2.18,5.89-6.89,9.97-13.96,9.97-9.88,0-16.05-7.07-16.05-17.23.09-10.25,6.17-17.77,16.05-17.77h0ZM145.9,25.39h-.45l-.54-5.08h-8.98v53.14h9.97v-33.64c0-7.07,5.44-10.97,12.6-10.97,1.54,0,1.9.09,1.9.09v-9.7s-.63-.18-1.9-.18c-3.08,0-8.7,1.27-12.6,6.35ZM252.99,19.04c-8.89,0-14.33,3.81-16.68,6.35h-.45l-.54-5.08h-8.98v53.14h9.97v-33.46c0-7.44,6.71-11.33,14.96-11.33,7.07,0,12.15,3.54,12.15,10.88v33.91h9.97v-34.55c-.09-14.69-10.43-19.86-20.4-19.86ZM286.17,20.31h9.97v53.14h-9.97V20.31ZM189.78,19.59c-15.14,0-26.66,11.52-26.66,26.84s11.43,26.84,26.66,26.84,26.66-11.52,26.66-26.84-11.52-26.84-26.66-26.84h0ZM189.78,63.65c-9.88,0-16.23-7.25-16.23-17.23s6.35-17.41,16.23-17.41,16.23,7.44,16.23,17.41-6.35,17.23-16.23,17.23ZM328.34,41.17c-9.88-2.18-9.43-4.62-9.43-6.8,0-2.63,2.9-5.89,7.71-5.89,3.99,0,8.25,1.99,8.25,8.7h9.61c.36-10.88-6.8-17.5-17.86-17.5-9.79,0-17.68,6.8-17.68,15.14,0,10.52,8.34,13.78,17.41,15.78,9.61,2.09,10.43,5.08,10.43,7.16,0,3.99-4.08,7.44-9.79,7.44-4.08,0-10.34-2.54-10.34-10.25h-9.61c-.63,12.15,8.16,19.13,19.95,19.13,11.15,0,19.95-7.16,19.95-16.68-.09-10.88-9.61-14.33-18.59-16.23h0ZM33.1,0L0,73.45h10.61l6.44-14.78h41.17l6.44,14.78h10.52L42.25,0h-9.16ZM37.45,12.51h.45l.54,1.36,9.34,21.4h-20.22l9.34-21.4.54-1.36ZM20.76,50.33l3.08-6.89h27.57l3.08,6.89H20.76Z" style="fill: #14234c;"/>
</svg>