<?xml version="1.0" encoding="UTF-8"?>
<svg id="uuid-fda054c3-1732-479b-a1e5-3712062f86d2" data-name="Capa 1" xmlns="http://www.w3.org/2000/svg" viewBox="0 0 177.5 106.14">
  <path d="M50.02,38.55c0,2.18.24,3.96.65,5.25.47,1.3,1.06,2.72,1.89,4.25.3.47.41.94.41,1.36,0,.59-.35,1.18-1.12,1.77l-3.72,2.48c-.53.35-1.06.53-1.53.53-.59,0-1.18-.3-1.77-.83-.83-.89-1.53-1.83-2.13-2.77-.59-1-1.18-2.13-1.83-3.48-4.6,5.43-10.39,8.15-17.36,8.15-4.96,0-8.91-1.42-11.81-4.25s-4.37-6.61-4.37-11.33c0-5.02,1.77-9.09,5.37-12.16s8.38-4.6,14.46-4.6c2.01,0,4.07.18,6.26.47s4.43.77,6.79,1.3v-4.31c0-4.49-.94-7.62-2.77-9.45-1.89-1.83-5.08-2.72-9.62-2.72-2.07,0-4.19.24-6.38.77s-4.31,1.18-6.38,2.01c-.94.41-1.65.65-2.07.77s-.71.18-.94.18c-.83,0-1.24-.59-1.24-1.83v-2.89c0-.94.12-1.65.41-2.07s.83-.83,1.65-1.24c2.07-1.06,4.55-1.95,7.44-2.66C23.22.47,26.29.12,29.54.12c7.02,0,12.16,1.59,15.47,4.78,3.25,3.19,4.9,8.03,4.9,14.52v19.13h.12ZM26.05,47.52c1.95,0,3.96-.35,6.08-1.06s4.01-2.01,5.61-3.78c.94-1.12,1.65-2.36,2.01-3.78s.59-3.13.59-5.14v-2.48c-1.71-.41-3.54-.77-5.43-1s-3.72-.35-5.55-.35c-3.96,0-6.85.77-8.8,2.36s-2.89,3.84-2.89,6.79c0,2.77.71,4.84,2.18,6.26,1.42,1.48,3.48,2.18,6.2,2.18h0ZM73.46,53.9c-1.06,0-1.77-.18-2.24-.59-.47-.35-.89-1.18-1.24-2.3L56.1,5.37c-.35-1.18-.53-1.95-.53-2.36,0-.94.47-1.48,1.42-1.48h5.79c1.12,0,1.89.18,2.3.59.47.35.83,1.18,1.18,2.3l9.92,39.08,9.21-39.08c.3-1.18.65-1.95,1.12-2.3s1.3-.59,2.36-.59h4.72c1.12,0,1.89.18,2.36.59.47.35.89,1.18,1.12,2.3l9.33,39.55,10.21-39.55c.35-1.18.77-1.95,1.18-2.3.47-.35,1.24-.59,2.3-.59h5.49c.94,0,1.48.47,1.48,1.48,0,.3-.06.59-.12.94-.06.35-.18.83-.41,1.48l-14.23,45.63c-.35,1.18-.77,1.95-1.24,2.3s-1.24.59-2.24.59h-5.08c-1.12,0-1.89-.18-2.36-.59s-.89-1.18-1.12-2.36l-9.15-38.08-9.09,38.02c-.3,1.18-.65,1.95-1.12,2.36s-1.3.59-2.36.59h-5.08ZM149.31,55.49c-3.07,0-6.14-.35-9.09-1.06s-5.25-1.48-6.79-2.36c-.94-.53-1.59-1.12-1.83-1.65s-.35-1.12-.35-1.65v-3.01c0-1.24.47-1.83,1.36-1.83.35,0,.71.06,1.06.18s.89.35,1.48.59c2.01.89,4.19,1.59,6.49,2.07,2.36.47,4.66.71,7.02.71,3.72,0,6.61-.65,8.62-1.95s3.07-3.19,3.07-5.61c0-1.65-.53-3.01-1.59-4.13s-3.07-2.13-5.96-3.07l-8.56-2.66c-4.31-1.36-7.5-3.36-9.45-6.02-1.95-2.6-2.95-5.49-2.95-8.56,0-2.48.53-4.66,1.59-6.55,1.06-1.89,2.48-3.54,4.25-4.84,1.77-1.36,3.78-2.36,6.14-3.07s4.84-1,7.44-1c1.3,0,2.66.06,3.96.24,1.36.18,2.6.41,3.84.65,1.18.3,2.3.59,3.36.94,1.06.35,1.89.71,2.48,1.06.83.47,1.42.94,1.77,1.48.35.47.53,1.12.53,1.95v2.77c0,1.24-.47,1.89-1.36,1.89-.47,0-1.24-.24-2.24-.71-3.36-1.53-7.14-2.3-11.33-2.3-3.36,0-6.02.53-7.85,1.65s-2.77,2.83-2.77,5.25c0,1.65.59,3.07,1.77,4.19s3.36,2.24,6.49,3.25l8.38,2.66c4.25,1.36,7.32,3.25,9.15,5.67,1.83,2.42,2.72,5.19,2.72,8.26,0,2.54-.53,4.84-1.53,6.85-1.06,2.01-2.48,3.78-4.31,5.19-1.83,1.48-4.01,2.54-6.55,3.31-2.66.83-5.43,1.24-8.44,1.24h0Z" style="fill: #252f3e;"/>
  <g>
    <path d="M160.47,84.18c-19.42,14.35-47.64,21.96-71.9,21.96-34,0-64.64-12.57-87.78-33.47-1.83-1.65-.18-3.9,2.01-2.6,25.03,14.52,55.9,23.32,87.84,23.32,21.55,0,45.22-4.49,67-13.7,3.25-1.48,6.02,2.13,2.83,4.49Z" style="fill: #f90; fill-rule: evenodd;"/>
    <path d="M168.56,74.97c-2.48-3.19-16.41-1.53-22.73-.77-1.89.24-2.18-1.42-.47-2.66,11.1-7.79,29.34-5.55,31.46-2.95,2.13,2.66-.59,20.9-10.98,29.63-1.59,1.36-3.13.65-2.42-1.12,2.36-5.84,7.62-19.01,5.14-22.14Z" style="fill: #f90; fill-rule: evenodd;"/>
  </g>
</svg>