<?xml version="1.0" encoding="UTF-8"?>
<svg id="uuid-7e4db387-b1ea-4b3e-83b4-934195c3d946" data-name="Capa 1" xmlns="http://www.w3.org/2000/svg" viewBox="0 0 341.71 99.17">
  <path id="uuid-18f4eb19-2fb8-411c-aa96-e9c15d5759bb" data-name="path7291" d="M78.93,14.95l-18.8,37.87,33.11,38.37-61.45,6.98,95.35,1L78.93,14.95h0Z" style="fill: #035bda; fill-rule: evenodd;"/>
  <path id="uuid-bfc16abf-6d90-425e-88c3-871135c841f4" data-name="path7293" d="M75.22,0l-43.17,36.13L0,90.2l27.28-2.74L75.22,0Z" style="fill: #035bda; fill-rule: evenodd;"/>
  <path id="uuid-0d1bb379-b893-44f7-9d09-b0c8db4c3489" data-name="text7295" d="M163.17,38.24l-20.65,50.63h7.02l5.37-14.19h22.83l5.71,14.19h6.98l-20.72-50.63h-6.53ZM166.25,44.38h.15c.28,1.55.55,2.68.83,3.39l8.45,21.57h-18.66l8.37-21.57c.33-.82.61-1.95.86-3.39h0ZM325.91,51.87c-5.03,0-9.25,1.78-12.65,5.33-3.38,3.53-5.07,8.11-5.07,13.74,0,5.96,1.55,10.58,4.66,13.88,3.1,3.27,7.37,4.91,12.8,4.91s10.02-1.15,13.4-3.46v-5.44c-3.63,2.68-7.61,4.02-11.94,4.02-3.85,0-6.88-1.09-9.09-3.28-2.2-2.19-3.35-5.3-3.45-9.32h27.14v-3.04c0-5.44-1.38-9.69-4.13-12.75-2.75-3.06-6.65-4.59-11.68-4.59h0ZM298.4,52.08c-2.23,0-4.24.72-6.04,2.15-1.8,1.41-3.14,3.39-4.02,5.93h-.15v-7.45h-6.16v36.16h6.16v-18.43c0-4.03.88-7.2,2.63-9.53,1.78-2.33,3.98-3.5,6.61-3.5,2.03,0,3.58.39,4.66,1.16v-6c-.85-.33-2.08-.49-3.68-.49ZM196.68,52.72v4.94h20.61l-22.75,29.41v1.8h31.57v-4.94h-22.53l22.75-29.55v-1.66h-29.66ZM235.6,52.72v21.61c0,10.26,4.58,15.39,13.74,15.39,5.36,0,9.31-2.19,11.86-6.57h.15v5.72h6.16v-36.16h-6.16v20.83c0,3.37-.98,6.1-2.93,8.19-1.93,2.07-4.39,3.11-7.4,3.11-6.21,0-9.31-3.81-9.31-11.44v-20.69h-6.12,0ZM325.79,56.74c3,0,5.34.93,7.02,2.79,1.7,1.86,2.56,4.46,2.59,7.8h-20.76c.48-3.15,1.73-5.71,3.75-7.66,2.03-1.95,4.49-2.93,7.4-2.93Z" style="fill: #035bda;"/>
</svg>