<?xml version="1.0" encoding="UTF-8"?>
<svg id="uuid-8ee3b485-a043-41b1-a3ac-6deebb411e43" data-name="Capa 1" xmlns="http://www.w3.org/2000/svg" viewBox="0 0 504.38 74.08">
  <path d="M204.23,25.37c-12.79-.54-23.6,9.39-24.14,22.18-.03.72-.03,1.44,0,2.17,0,14.59,10.73,24.35,26.17,24.35,4.23.05,8.43-.73,12.36-2.3l6.58-11.02-.87-.51c-5.24,2.83-11.07,4.38-17.03,4.5-7.97,0-14.88-4.03-15.65-11h35.28v-3.19c0-16.12-9.77-25.21-22.68-25.21M191.66,45.04c.25-6.33,5.58-11.27,11.91-11.02.02,0,.03,0,.05,0,7.24,0,11.68,4.25,11.76,11.02h-23.72ZM444.6,25.37c-12.78-.55-23.59,9.37-24.14,22.15-.03.73-.03,1.46,0,2.19,0,14.59,10.73,24.35,26.17,24.35,4.22.05,8.42-.73,12.34-2.3l6.61-11.02-.87-.47c-5.24,2.83-11.08,4.38-17.04,4.5-7.97,0-14.86-4.03-15.63-11h35.25c1.53-18.17-8.22-28.4-22.68-28.4M432.01,45.08c.24-6.33,5.57-11.26,11.89-11.02.01,0,.03,0,.04,0,7.24,0,11.68,4.25,11.77,11.02h-23.71ZM282.92,25.37c-12.79-.54-23.6,9.39-24.14,22.18-.03.72-.03,1.44,0,2.17,0,14.59,10.73,24.35,26.17,24.35,4.23.05,8.43-.73,12.36-2.3l6.58-11.02-.88-.47c-5.23,2.84-11.06,4.38-17.01,4.5-7.97,0-14.88-4.03-15.65-11h35.29c1.53-18.17-8.24-28.4-22.71-28.4M270.37,45.08c.25-6.33,5.58-11.27,11.91-11.02.02,0,.03,0,.05,0,7.23,0,11.68,4.25,11.76,11.02h-23.72ZM43.9,36.85v-.19c6.98-1.57,11.92-7.81,11.85-14.97,0-12.47-10.61-17.2-20.9-17.2H0v1.02l3.51,2.98c4.21,3.44,4.75,4.1,4.75,7.2v57.21h24.6c12.9,0,25.84-4.63,25.84-19.52.16-8.52-6.27-15.73-14.75-16.53M20.39,14.93h10.02c6.78,0,8.88.94,10.93,2.9,1.56,1.56,2.39,3.7,2.28,5.9.05,2.15-.8,4.22-2.35,5.71-2.01,1.93-4.78,2.88-9.8,2.88h-11.07V14.93ZM31.57,62.46h-11.18v-19.7h11.66c9.83,0,14.45,2.51,14.45,9.66,0,8.99-8.69,10.05-14.94,10.05M81.61,10.79c.25,4.1-2.87,7.63-6.97,7.88-4.1.25-7.63-2.87-7.88-6.97-.25-4.1,2.87-7.63,6.97-7.88.15,0,.29-.01.44-.01,3.93-.21,7.29,2.8,7.5,6.73,0,.08,0,.15,0,.23M62.18,26.54h17.79v46.36h-11.58v-36.48c0-3.83-.22-4.45-4.37-7.66l-1.84-1.46v-.75ZM154.27,2.46l3.63,2.34c3.3,2.11,3.79,3.12,3.79,6.06v21.5h-.28c-3.81-4.72-9.65-7.34-15.71-7.05-13.21,0-22.38,10.63-22.38,24.35s8.59,24.35,22.85,24.35c6.36.33,12.42-2.74,15.92-8.06h.19l1.21,6.96h9.77V1.62h-18.99v.83ZM148.49,63.58c-7.68.17-14.04-5.93-14.21-13.61-.17-7.68,5.93-14.04,13.61-14.21,7.68-.17,14.04,5.93,14.21,13.61,0,.1,0,.2,0,.3.26,7.42-5.55,13.64-12.97,13.9-.21,0-.42,0-.64,0M394.24,2.46l1.61,1.06c5.58,3.53,6.27,4.55,6.27,10.59v18.31h-.29c-3.81-4.72-9.65-7.34-15.71-7.05-13.21,0-22.36,10.63-22.36,24.35s8.58,24.35,22.79,24.35c6.36.34,12.42-2.73,15.92-8.06h.2l1.22,6.96h9.77V1.62h-19.44l.02.83ZM388.88,63.58c-7.68.17-14.05-5.91-14.22-13.59-.17-7.68,5.91-14.05,13.59-14.22s14.05,5.91,14.22,13.59c0,.1,0,.21,0,.31.26,7.42-5.54,13.65-12.96,13.91-.21,0-.42,0-.63,0M504.34,25.97v11.2c-1.82-.52-3.69-.81-5.58-.87-6.43-.43-11.99,4.44-12.42,10.87-.02.27-.03.55-.03.82v24.83h-11.56v-34.2c0-5.83-.31-6.72-5.01-9.69l-2.91-1.92v-.51h19.51v7.36h.2c2.47-5.3,7.84-8.63,13.69-8.5,1.41.03,2.8.26,4.14.67M247.47,26.33h10.73v9.89h-10.73v36.67h-11.61v-32.69c0-3.88-.78-4.74-5.36-8.38l-5.9-4.81v-.68h11.28v-8.45c0-12.59,8.19-20.59,25.92-17.04l2.68,9.83-.56.46c-9.26-3.65-16.44-1.34-16.44,6.72v8.48ZM357.06,43.61v29.29h-11.57v-25.8c0-5.11-1.33-11.29-9.39-11.29-7.62,0-10.61,5.6-10.61,11.78v25.3h-11.56v-34.28c0-5.83-.31-6.72-5.01-9.69l-2.81-1.92v-.51h18.91v7.07h.19c3.24-5.03,8.77-8.12,14.75-8.22,10.93,0,17.23,7.5,17.23,18.25M119.75,63.58l.37.24s-5.75,9.22-5.74,9.22c-9.39,2.57-20.03-.16-20.03-15.32v-18.81c0-3-.48-2.84-6.97-8.2l-4.2-3.64v-.55h11.24l4.22-13.42h7.33v13.44h12.38v9.83h-12.38v21.03c0,8.37,5.72,8.57,13.78,6.18"/>
</svg>