<?xml version="1.0" encoding="UTF-8"?>
<svg id="uuid-d069f930-8952-4df3-ab96-01f87db81090" data-name="Capa 1" xmlns="http://www.w3.org/2000/svg" viewBox="0 0 235.39 124.07">
  <path d="M76.9,123.34h-10.32v-40.9h10.32v40.9h0Z" style="fill: #c4122e;"/>
  <path d="M160.12,94.16c-.43-.22-3.75-2.18-8.68-2.18-6.67,0-11.3,4.64-11.3,10.91s4.43,10.92,11.3,10.92c4.85,0,8.23-1.93,8.68-2.17v10.98c-1.29.36-4.82,1.45-9.41,1.45-11.61,0-21.8-8-21.8-21.19,0-12.21,9.22-21.17,21.8-21.17,4.84,0,8.43,1.18,9.41,1.47v10.98ZM52.39,94.16c-.42-.22-3.73-2.18-8.67-2.18-6.69,0-11.31,4.64-11.31,10.91s4.43,10.92,11.31,10.92c4.85,0,8.23-1.93,8.67-2.17v10.98c-1.28.36-4.81,1.45-9.42,1.45-11.6,0-21.78-8-21.78-21.19,0-12.21,9.22-21.17,21.78-21.17,4.86,0,8.44,1.18,9.41,1.47v10.98ZM192.59,92.13c-6.12,0-10.67,4.82-10.67,10.76s4.55,10.77,10.67,10.77,10.68-4.82,10.68-10.77-4.56-10.76-10.68-10.76M214.2,102.88c0,11.7-9.03,21.18-21.61,21.18s-21.6-9.48-21.6-21.19,9.02-21.17,21.6-21.17,21.61,9.49,21.61,21.17M116.04,91.74c-.15-.05-4.5-1.25-8.07-1.25-4.14,0-6.38,1.39-6.38,3.35,0,2.49,3.03,3.36,4.73,3.9l2.85.91c6.7,2.13,9.75,6.72,9.75,11.7,0,10.28-9.04,13.73-16.94,13.73-5.49,0-10.63-1.01-11.14-1.12v-9.42c.91.23,5.24,1.52,9.75,1.52,5.14,0,7.5-1.5,7.5-3.82,0-2.07-2.04-3.27-4.6-4.07-.62-.21-1.56-.5-2.2-.71-5.75-1.82-10.54-5.2-10.54-11.97,0-7.65,5.73-12.79,15.24-12.79,5.02,0,9.75,1.22,10.06,1.3v8.73h0Z" style="fill: #c4122e;"/>
  <path d="M10.25,38.48c0-2.82-2.3-5.1-5.12-5.1s-5.13,2.29-5.13,5.1v10.74c.07,2.83,2.42,5.07,5.25,5,2.73-.07,4.93-2.27,5-5v-10.74ZM38.39,24.39c0-2.83-2.29-5.12-5.12-5.12s-5.12,2.29-5.12,5.12v24.83c0,2.83,2.29,5.12,5.12,5.12s5.12-2.29,5.12-5.12h0v-24.83h0ZM66.54,5.11C66.54,2.29,64.24,0,61.42,0s-5.13,2.29-5.13,5.11v54.31c.07,2.83,2.42,5.07,5.25,5,2.73-.07,4.93-2.27,5-5V5.11ZM94.69,24.39c0-2.83-2.29-5.12-5.12-5.12s-5.12,2.29-5.12,5.12v24.83c0,2.83,2.29,5.12,5.12,5.12s5.12-2.29,5.12-5.12h0v-24.83h0ZM122.81,38.48c0-2.82-2.28-5.1-5.09-5.1-2.82,0-5.11,2.28-5.12,5.1v10.74c0,2.82,2.29,5.11,5.11,5.11s5.11-2.29,5.11-5.11h0v-10.74ZM150.96,24.39c-.07-2.82-2.42-5.05-5.24-4.98-2.72.07-4.91,2.26-4.98,4.98v24.83c0,2.82,2.29,5.11,5.11,5.11s5.11-2.29,5.11-5.11h0v-24.83h0ZM179.13,5.11c0-2.82-2.29-5.11-5.11-5.11s-5.11,2.29-5.11,5.11v54.31c-.12,2.82,2.06,5.21,4.88,5.33s5.21-2.06,5.33-4.88c0-.15,0-.3,0-.45V5.11ZM207.29,24.39c0-2.82-2.29-5.11-5.17-5.11-2.82,0-5.11,2.29-5.11,5.11v24.83c0,2.83,2.29,5.12,5.11,5.12s5.17-2.29,5.17-5.12v-24.83h0ZM235.39,38.48c0-2.82-2.29-5.11-5.11-5.11s-5.11,2.29-5.11,5.11v10.74c0,2.83,2.29,5.12,5.11,5.12s5.11-2.29,5.11-5.12v-10.74h0Z" style="fill: #15495d;"/>
  <path d="M229.49,117.95v.64h-1.82v4.74h-.75v-4.74h-1.83v-.64h4.41,0ZM229.87,117.95h1.17l1.61,4.42h.03l1.56-4.41h1.15v5.38h-.77v-4.41h-.03l-1.63,4.41h-.71l-1.6-4.41h-.04v4.41h-.75v-5.38h0Z" style="fill: #c4122e;"/>
</svg>