<?xml version="1.0" encoding="UTF-8"?>
<svg id="uuid-d1e163fd-2cd5-44df-a58f-578a20b8b2f3" data-name="Capa 1" xmlns="http://www.w3.org/2000/svg" viewBox="0 0 267.04 74.08">
  <path d="M59.97,29.81l.15,13.48-43.57.02v29.77s-16.47-.05-16.47-.05L0,23.69c-.01-7.08,2.96-13.67,8.51-17.9C12.7,2.59,17.96.01,23.37,0h36.76s-.04,13.51-.04,13.51l-35.19.06c-3.92,0-8.11,3.87-8.19,7.73l-.17,8.52,43.43-.02Z" style="fill: #d11a20;"/>
  <path d="M66.16,72.05c-8.13-5.16-9.8-15.06-5.77-23.22,2.5-5.06,6.95-8.29,12.75-8.32l25.72-.15-.61-6.34c-.14-1.46-3.09-3.24-4.65-3.24l-30.76-.03v-10.5s37.08.06,37.08.06c5.21,0,8.58,4.18,10.67,8.47,2.05,5.97,2.89,12.17,2.84,18.67l-.22,25.52-31.13.16c-5.24.03-10.29-.47-15.94-1.1ZM98.73,61.49l.04-9.5c-8.23-.05-16.3-.39-24.58.4-3.17.3-3.12,8.42-.02,8.67,8.16.66,15.97.35,24.56.43Z" style="fill: #d11a20;"/>
  <path d="M154.85,73.06v-38.31c-.01-1.86-2.51-3.87-4.27-3.86h-16.04s.03,42.1.03,42.1l-14.57.02V20.24s37.2.11,37.2.11c2.95,0,6.15,2.89,8.34,4.55,2.75,4.14,4.9,8.63,4.9,13.7l.04,34.4-15.62.07Z" style="fill: #d11a20;"/>
  <path d="M228.26,20.47l-10.98,25.46-11.22,27.07-17.21.07-7.73-19.97c-4.62-10.84-8.62-21.06-12.8-32.71l16.46-.07c3.92,12.15,7.85,23.35,12.61,35.46,3.6-6.75,6.13-13.14,8.94-20.01l6.35-15.49,15.58.2Z" style="fill: #d11a20;"/>
  <rect x="251.48" y=".07" width="15.56" height="74" style="fill: #d11a20;"/>
  <rect x="209.74" y="39.92" width="53.81" height="14.48" transform="translate(189.14 283.75) rotate(-89.92)" style="fill: #d11a20;"/>
  <rect x="62.83" y=".08" width="44.6" height="13.51" style="fill: #d11a20;"/>
  <rect x="111.36" y=".08" width="36.73" height="13.5" style="fill: #d11a20;"/>
  <rect x="150.95" y=".08" width="31.98" height="13.5" style="fill: #d11a20;"/>
  <rect x="184.91" y=".07" width="23.33" height="13.5" style="fill: #d11a20;"/>
  <rect x="210.94" y=".06" width="16.5" height="13.53" style="fill: #d11a20;"/>
  <rect x="229.21" y=".08" width="14.71" height="13.52" style="fill: #d11a20;"/>
</svg>