<?xml version="1.0" encoding="UTF-8"?>
<svg id="uuid-623c5932-2019-4997-a581-0a675496b08b" data-name="Capa 1" xmlns="http://www.w3.org/2000/svg" xmlns:xlink="http://www.w3.org/1999/xlink" viewBox="0 0 477.37 71.67">
  <defs>
    <clipPath id="uuid-58eafd2f-f594-4a81-b231-c2b400ea7c98">
      <path d="M36.46,24.09s17.1,17.15,14.39,28.22c0,0,1.85-1.11,4.21-2.68.18-.12.37-.25.56-.37.64-.93,1.5-1.46,2.5-2.01.25-.14.5-.28.77-.43.5-.42.98-.86,1.46-1.26.04-.04.09-.07.13-.11.97-.54,2.01-1.49,2.76-2.03.03-.03,0,0,.03-.03,1.1-1.11,1.78-2.19,1.78-2.94,0-2.87-8.59-12.03-28.58-16.36Z" style="fill: none;"/>
    </clipPath>
    <linearGradient id="uuid-35c6d65e-529f-4921-9938-f9d825bf16e3" data-name="Degradado sin nombre 2" x1="-1796.99" y1="-1858.55" x2="-1795.51" y2="-1858.55" gradientTransform="translate(34680.8354 -35793.0376) scale(19.2791 -19.2791)" gradientUnits="userSpaceOnUse">
      <stop offset="0" stop-color="#939598"/>
      <stop offset=".48" stop-color="#797a7d"/>
      <stop offset="1" stop-color="#58595b"/>
    </linearGradient>
    <clipPath id="uuid-b49e031d-191e-46f1-82c0-1245f0e3a688">
      <path d="M14.97.02c-1.74.07-4.17.3-6.8.93-.36.09-2.74.75-4.95,2.09-.22.13-.43.27-.64.41-.67.46-1.3,1.01-1.83,1.6-.17.21-.55.76-.66,1.73-.09,6.11,8.96,19.68,8.96,19.68-.25-19.58,44.86-15.27,44.86-15.27C36.82,2.54,24.63,0,16.21,0c-.42,0-.84,0-1.25.02" style="fill: none;"/>
    </clipPath>
    <linearGradient id="uuid-acb3b987-acc6-4591-a2ca-d8e0ab1edb12" data-name="Degradado sin nombre 3" x1="-1894.25" y1="-1854.39" x2="-1892.74" y2="-1854.39" gradientTransform="translate(816.9054 -75749.5235) rotate(-45) scale(28.5882 -28.5882)" gradientUnits="userSpaceOnUse">
      <stop offset="0" stop-color="#00052c"/>
      <stop offset=".11" stop-color="#00052c"/>
      <stop offset=".13" stop-color="#020c33"/>
      <stop offset=".22" stop-color="#12355b"/>
      <stop offset=".33" stop-color="#1f587e"/>
      <stop offset=".43" stop-color="#2a759a"/>
      <stop offset=".54" stop-color="#338cb0"/>
      <stop offset=".67" stop-color="#399bc0"/>
      <stop offset=".81" stop-color="#3ca5c9"/>
      <stop offset="1" stop-color="#3ea8cc"/>
    </linearGradient>
    <clipPath id="uuid-78ab5ae6-f02d-4e19-8c8e-cd0d7cbd617b">
      <path d="M.07,7.7c2.73,39.02,17.82,58.24,22.44,60.82,5.63,3.15,40.73-25.1,40.73-25.1C26.33,49.81,1.3,10,.24,6.04c-.13.42-.21.97-.17,1.66" style="fill: none;"/>
    </clipPath>
    <linearGradient id="uuid-9f05844b-fda1-4043-a4c5-681db78f7d34" data-name="Degradado sin nombre 4" x1="-1850.74" y1="-1805.7" x2="-1849.26" y2="-1805.7" gradientTransform="translate(78875.5611 -76917.0577) scale(42.6183 -42.6183)" gradientUnits="userSpaceOnUse">
      <stop offset="0" stop-color="#0d274d"/>
      <stop offset=".11" stop-color="#17345f"/>
      <stop offset=".28" stop-color="#244475"/>
      <stop offset=".46" stop-color="#2d5084"/>
      <stop offset=".68" stop-color="#32568d"/>
      <stop offset="1" stop-color="#345990"/>
    </linearGradient>
  </defs>
  <path d="M106,9.88h-19.91v18.72h19.91v-7.54h-10.3v-3.29h14.53v8.34c0,2.36-.42,3.97-1.26,4.82-.84.85-2.41,1.27-4.7,1.27h-16.46c-2.3,0-3.87-.42-4.71-1.27-.84-.85-1.26-2.45-1.26-4.82v-13.58c0-2.36.42-3.97,1.26-4.82.84-.85,2.41-1.27,4.71-1.27h16.46c2.23,0,3.78.4,4.66,1.21.87.8,1.3,2.32,1.3,4.54v.65h-4.24v-2.94Z" style="fill: #345990;"/>
  <path d="M140.64,9.78h-14.58v9.03h14.58c1.02,0,1.73-.18,2.14-.55.41-.37.62-1.07.62-2.1v-3.74c0-1-.21-1.69-.62-2.07-.41-.38-1.12-.57-2.14-.57M121.82,32.19V6.43h20.46c1.87,0,3.23.39,4.08,1.17.85.78,1.28,2.05,1.28,3.82v5.74c0,1.76-.43,3.04-1.28,3.82-.85.78-2.21,1.17-4.08,1.17h-3.74l11.63,10.03h-6.31l-10.33-10.03h-7.47v10.03h-4.24Z" style="fill: #345990;"/>
  <path d="M162.96,22.56h13.7l-6.85-13.18-6.85,13.18ZM153.74,32.19l13.89-25.75h4.53l14.14,25.75h-4.68l-3.25-6.34h-17.2l-3.25,6.34h-4.19Z" style="fill: #345990;"/>
  <path d="M193.89,32.19V6.43h2.66l19.02,17.22c.92.83,1.89,1.91,2.91,3.24-.27-1.6-.4-3.71-.4-6.34V6.43h3.94v25.75h-2.36l-19.56-17.92c-.72-.67-1.13-1.05-1.23-1.15-.53-.53-.97-1.11-1.33-1.75.2,1.53.3,3.41.3,5.64v15.17h-3.94Z" style="fill: #345990;"/>
  <path d="M247.94,9.88h-9.16v18.72h9.16c3.94,0,6.77-.67,8.47-2,1.87-1.43,2.81-3.92,2.81-7.46s-.94-5.82-2.81-7.26c-1.74-1.34-4.56-2-8.47-2M248.53,6.43c4.47,0,7.72.67,9.75,2,1.64,1.07,2.93,2.54,3.87,4.44.94,1.9,1.4,3.99,1.4,6.29,0,5.03-1.76,8.7-5.27,11.03-2,1.33-5.25,2-9.75,2h-13.99V6.43h13.99Z" style="fill: #345990;"/>
  <path d="M295.39,9.88h-17.98v7.24h16.01c2.3,0,3.86.43,4.68,1.3.82.87,1.23,2.46,1.23,4.79v2.89c0,2.36-.41,3.97-1.23,4.82-.82.85-2.38,1.27-4.68,1.27h-14.83c-2.3,0-3.87-.42-4.7-1.27-.84-.85-1.26-2.45-1.26-4.82v-.7h3.94v3.2h18.92v-7.74h-15.96c-2.27,0-3.82-.42-4.66-1.27-.83-.85-1.26-2.45-1.26-4.82v-2.25c0-2.4.42-4.01,1.26-4.84.84-.83,2.39-1.25,4.66-1.25h13.55c2.17,0,3.7.39,4.61,1.18.9.79,1.35,2.26,1.35,4.41v.55h-3.64v-2.69Z" style="fill: #345990;"/>
  <polygon points="321.4 9.93 321.4 32.19 317.17 32.19 317.17 9.93 305.54 9.93 305.54 6.43 333.08 6.43 333.08 9.93 321.4 9.93" style="fill: #345990;"/>
  <path d="M358.4,9.78h-14.58v9.03h14.58c1.02,0,1.73-.18,2.15-.55.41-.37.62-1.07.62-2.1v-3.74c0-1-.21-1.69-.62-2.07-.41-.38-1.13-.57-2.15-.57M339.58,32.19V6.43h20.46c1.87,0,3.23.39,4.08,1.17.85.78,1.28,2.05,1.28,3.82v5.74c0,1.76-.43,3.04-1.28,3.82-.85.78-2.21,1.17-4.08,1.17h-3.74l11.63,10.03h-6.31l-10.33-10.03h-7.47v10.03h-4.24Z" style="fill: #345990;"/>
  <polygon points="376.48 32.19 376.48 6.43 400.97 6.43 400.97 9.88 380.72 9.88 380.72 17.06 393.08 17.06 393.08 20.46 380.72 20.46 380.72 28.65 401.17 28.65 401.17 32.19 376.48 32.19" style="fill: #345990;"/>
  <path d="M414.86,22.56h13.7l-6.85-13.18-6.85,13.18ZM405.65,32.19l13.89-25.75h4.53l14.14,25.75h-4.68l-3.25-6.34h-17.19l-3.25,6.34h-4.19Z" style="fill: #345990;"/>
  <path d="M449.2,11.03c.13,1,.19,2.26.19,3.79v17.37h-3.59V6.43h3.45l12.37,16.77,11.53-16.77h3.94v25.76h-3.94V14.82l.2-3.79c-.56,1.2-1.07,2.13-1.53,2.8l-9.71,14.32h-1.08l-10.1-13.93c-.4-.53-.97-1.6-1.72-3.19" style="fill: #345990;"/>
  <path d="M90.11,53.84h-6.48v7.12h6.48v-2.11h1.56v1.16c0,.91-.15,1.52-.45,1.84-.3.32-.88.48-1.72.48h-5.23c-.84,0-1.42-.16-1.73-.48-.31-.33-.46-.94-.46-1.83v-5.16c0-.9.15-1.51.46-1.83.31-.32.89-.48,1.73-.48h5.23c.85,0,1.42.15,1.72.47.3.31.45.92.45,1.82v.93h-1.56v-1.92Z" style="fill: #345990;"/>
  <path d="M104.71,60.96h7.73v-7.12h-7.73v7.12ZM103.15,54.85c0-.9.15-1.51.46-1.83.31-.32.89-.49,1.73-.49h6.48c.85,0,1.42.16,1.72.49.3.32.45.93.45,1.83v5.16c0,.9-.15,1.51-.45,1.83-.3.32-.88.48-1.72.48h-6.48c-.85,0-1.42-.16-1.73-.48-.31-.32-.46-.94-.46-1.83v-5.16Z" style="fill: #345990;"/>
  <path d="M126.22,62.33v-9.79h.98l6.99,6.55c.34.31.69.72,1.07,1.23-.1-.61-.15-1.41-.15-2.41v-5.37h1.45v9.79h-.87l-7.19-6.81c-.27-.25-.42-.4-.45-.44-.19-.2-.35-.42-.49-.66.07.58.11,1.3.11,2.14v5.77h-1.45Z" style="fill: #345990;"/>
  <path d="M148.9,62.33v-9.79h.98l6.99,6.55c.34.31.69.72,1.07,1.23-.1-.61-.15-1.41-.15-2.41v-5.37h1.45v9.79h-.87l-7.19-6.81c-.27-.25-.42-.4-.45-.44-.19-.2-.36-.42-.49-.66.07.58.11,1.3.11,2.14v5.77h-1.45Z" style="fill: #345990;"/>
  <polygon points="171.58 52.54 171.58 62.33 180.65 62.33 180.65 60.98 173.13 60.98 173.13 57.87 177.68 57.87 177.68 56.58 173.13 56.58 173.13 53.84 180.58 53.84 180.58 52.54 171.58 52.54" style="fill: #345990;"/>
  <path d="M199.77,53.84h-6.48v7.12h6.48v-2.11h1.56v1.16c0,.91-.15,1.52-.46,1.84-.3.32-.87.48-1.72.48h-5.23c-.85,0-1.42-.16-1.73-.48-.31-.33-.47-.94-.47-1.83v-5.16c0-.9.16-1.51.47-1.83.31-.32.88-.48,1.73-.48h5.23c.85,0,1.42.15,1.72.47.3.31.46.92.46,1.82v.93h-1.56v-1.92Z" style="fill: #345990;"/>
  <polygon points="210.73 52.54 210.73 53.86 215.01 53.86 215.01 62.33 216.56 62.33 216.56 53.86 220.85 53.86 220.85 52.54 210.73 52.54" style="fill: #345990;"/>
  <rect x="230.98" y="52.54" width="1.55" height="9.79" style="fill: #345990;"/>
  <path d="M244.89,62.33v-9.79h.98l6.99,6.55c.34.31.7.72,1.07,1.23-.1-.61-.15-1.41-.15-2.41v-5.37h1.45v9.79h-.87l-7.19-6.81c-.27-.25-.42-.4-.45-.44-.19-.2-.36-.42-.49-.66.07.58.11,1.3.11,2.14v5.77h-1.45Z" style="fill: #345990;"/>
  <path d="M276.31,53.84h-7.32v7.12h7.32v-2.87h-3.78v-1.25h5.34v3.17c0,.9-.15,1.51-.46,1.83-.31.32-.89.48-1.73.48h-6.05c-.85,0-1.42-.16-1.73-.48-.31-.33-.46-.94-.46-1.83v-5.16c0-.9.15-1.51.46-1.83.31-.32.88-.48,1.73-.48h6.05c.82,0,1.39.15,1.71.46.32.3.48.88.48,1.72v.25h-1.56v-1.12Z" style="fill: #345990;"/>
  <polygon points="301.92 52.54 301.92 53.86 306.19 53.86 306.19 62.33 307.75 62.33 307.75 53.86 312.04 53.86 312.04 52.54 301.92 52.54" style="fill: #345990;"/>
  <polygon points="331.09 52.54 331.09 56.54 323.73 56.54 323.73 52.54 322.17 52.54 322.17 62.33 323.73 62.33 323.73 57.89 331.09 57.89 331.09 62.33 332.65 62.33 332.65 52.54 331.09 52.54" style="fill: #345990;"/>
  <polygon points="345.01 52.54 345.01 62.33 354.08 62.33 354.08 60.98 346.56 60.98 346.56 57.87 351.11 57.87 351.11 56.58 346.56 56.58 346.56 53.84 354 53.84 354 52.54 345.01 52.54" style="fill: #345990;"/>
  <path d="M471.15,53.84h-3.37v7.12h3.37c1.45,0,2.49-.25,3.12-.76.69-.54,1.03-1.49,1.03-2.83s-.34-2.21-1.03-2.76c-.64-.51-1.68-.76-3.12-.76M471.37,52.54c1.64,0,2.84.25,3.58.76.6.41,1.08.97,1.42,1.69.34.72.51,1.52.51,2.39,0,1.91-.64,3.31-1.94,4.19-.74.51-1.93.76-3.58.76h-5.15v-9.79h5.15Z" style="fill: #345990;"/>
  <path d="M404.08,60.96h7.73v-7.12h-7.73v7.12ZM402.53,54.85c0-.9.16-1.51.46-1.83.31-.32.89-.49,1.73-.49h6.48c.85,0,1.42.16,1.72.49.3.32.46.93.46,1.83v5.16c0,.9-.15,1.51-.46,1.83-.3.32-.87.48-1.72.48h-6.48c-.85,0-1.42-.16-1.73-.48-.31-.32-.46-.94-.46-1.83v-5.16Z" style="fill: #345990;"/>
  <path d="M432.52,53.81h-5.36v3.44h5.36c.38,0,.64-.07.79-.21.15-.14.23-.41.23-.8v-1.42c0-.38-.08-.64-.23-.79-.15-.14-.41-.22-.79-.22M425.6,62.33v-9.79h7.52c.69,0,1.19.15,1.5.45.32.3.47.78.47,1.45v2.18c0,.67-.15,1.15-.47,1.45-.31.29-.81.44-1.5.44h-1.37l4.27,3.81h-2.32l-3.8-3.81h-2.74v3.81h-1.56Z" style="fill: #345990;"/>
  <polygon points="446.9 52.54 446.9 62.33 455.54 62.33 455.54 60.96 448.46 60.96 448.46 52.54 446.9 52.54" style="fill: #345990;"/>
  <polygon points="390.76 52.54 388.2 60.32 385.54 52.54 384.58 52.54 381.83 60.32 379.29 52.54 377.72 52.54 381.1 62.33 382.33 62.33 385.01 54.93 387.6 62.33 388.76 62.33 392.15 52.54 390.76 52.54" style="fill: #345990;"/>
  <line x1="81.86" y1="42.48" x2="477.25" y2="42.48" style="fill: none; stroke: #345990; stroke-miterlimit: 10; stroke-width: .16px;"/>
  <rect y="0" width="477.37" height="71.67" style="fill: none;"/>
  <g style="clip-path: url(#uuid-58eafd2f-f594-4a81-b231-c2b400ea7c98);">
    <rect x="36.46" y="24.09" width="28.58" height="28.22" style="fill: url(#uuid-35c6d65e-529f-4921-9938-f9d825bf16e3);"/>
  </g>
  <g style="clip-path: url(#uuid-b49e031d-191e-46f1-82c0-1245f0e3a688);">
    <polygon points="-13.06 13.23 26.96 -27.31 66.97 13.23 26.96 53.76 -13.06 13.23" style="fill: url(#uuid-acb3b987-acc6-4591-a2ca-d8e0ab1edb12);"/>
  </g>
  <g style="clip-path: url(#uuid-78ab5ae6-f02d-4e19-8c8e-cd0d7cbd617b);">
    <rect x=".03" y="6.04" width="63.21" height="65.63" style="fill: url(#uuid-9f05844b-fda1-4043-a4c5-681db78f7d34);"/>
  </g>
</svg>