<?xml version="1.0" encoding="UTF-8"?>
<svg id="uuid-c5377dde-cab4-416f-9315-f1f94d73f9ae" data-name="Capa 1" xmlns="http://www.w3.org/2000/svg" viewBox="0 0 471.3 59.77">
  <path d="M368.41.03c-11.26-.38-23.44,6.1-29.21,18.31-3.58,6.89-6.32,14.55-8.14,22.08-.16.66-.31,1.32-.45,1.99-.18,1.07-.19,2.44-.1,3.85.45,5.92,5.71,13.09,14.38,13.5h10.28c11.26.37,23.43-6.11,29.21-18.31,3.58-6.89,6.32-14.56,8.14-22.08.16-.67.32-1.33.45-1.99.19-1.07.2-2.44.1-3.85-.44-5.93-5.71-13.09-14.38-13.49h-10.28,0ZM175.31.57l4.61,58.6h9.23-.05.54c1.8-.06,3.46-.98,4.45-2.48h0L231.74.58h-9.74l-26.97,40.28-3.17-40.27h-16.57,0ZM238.47.57l-21.61,58.6h16.59L255.05.58h-16.58ZM277.39.57c-14.9.18-21.48,16.76-13.34,27.37,4.13,5.04,10.02,10.27,13.35,15.79,2.11,2.99-.15,7.97-4.18,8.01h-26.31l-2.72,7.42h33.31c13.06-.04,21.89-15.41,13.13-27.2-4.04-5.97-10.46-10.05-14.25-15.89-2.25-3.04.01-8.04,4.09-8.09h24.48l2.73-7.42h-30.29ZM319.16.57l-21.59,58.6h16.58L335.74.58h-16.59ZM408.68.57l-21.69,58.6h8.55l14.95-40.39.07.72,13.43,36.27c.83,1.96,2.7,3.28,4.82,3.39h7.81L458.32.58h-8.54l-14.66,39.6L419.5.58h-10.82,0ZM372.2,6.09c3.13.24,5.61,2.87,5.61,6.06.02.78-.11,1.56-.4,2.27l-10.96,29.84c-2.21,5.73-7.35,9.24-13.45,9.42h-1.62c-3.16-.25-5.6-2.89-5.61-6.06-.03-.78.11-1.55.41-2.27l10.95-29.84c2.21-5.73,7.35-9.23,13.47-9.41h1.61Z" style="fill: #6c6e71;"/>
  <path d="M21.6.58L0,59.17h17.61l10.33-28.02h20.96l-10.33,28.02h13.76c2.33,0,4.33-1.47,5.14-3.52,0-.03.02-.04.03-.05L77.79.57h-17.61l-8.32,22.56h-20.96L39.21.57h-17.61ZM88.98.58l-21.6,58.6h17.6L106.58.58h-17.61,0ZM118.56.58l-21.6,58.6h17.6l8.28-22.47,4.4-3.38,11.68,22.64v-.03s.04.05.04.05c.99,2.05,3.12,3.29,5.38,3.14-.04,0-.09.03-.13.03h14.95l-18.6-36.07L169.9.57h-13.16l-28.7,22.03L136.17.57h-17.6Z" style="fill: #d71820;"/>
  <path d="M471.3,5.76c0,3.26-2.56,5.82-5.89,5.82s-5.92-2.56-5.92-5.82,2.63-5.76,5.92-5.76,5.89,2.56,5.89,5.76M460.96,5.76c0,2.56,1.89,4.6,4.49,4.6s4.39-2.03,4.39-4.56-1.86-4.63-4.42-4.63-4.45,2.07-4.45,4.6M464.5,8.77h-1.33V3.02c.73-.13,1.47-.19,2.21-.18,1.08,0,1.58.18,2,.42.37.31.57.78.56,1.26,0,.63-.49,1.12-1.19,1.33v.07c.56.21.88.63,1.06,1.41.18.88.28,1.23.42,1.44h-1.44c-.18-.21-.28-.74-.46-1.4-.1-.63-.45-.91-1.19-.91h-.63v2.31h0ZM464.53,5.51h.63c.74,0,1.34-.25,1.34-.84,0-.52-.39-.87-1.23-.87-.35,0-.6.03-.74.07v1.65h0Z" style="fill: #6c6e71;"/>
</svg>