<?xml version="1.0" encoding="UTF-8"?>
<svg id="uuid-cdfef42b-5ec6-48e8-bd65-c9384cc560ec" data-name="Capa 1" xmlns="http://www.w3.org/2000/svg" viewBox="0 0 392.74 85.93">
  <path d="M49.05,67.04c.12-.09.15-.28.09-.43-8.53-18.33-19.16-35.6-31.7-51.46,0,0-9.96,9.46-9.25,18.96.34,4.42,2.42,8.53,5.78,11.41,8.69,8.47,29.72,19.17,34.6,21.62.15.06.34.03.46-.09M45.81,74.28c-.06-.19-.25-.31-.46-.31l-35.01,1.21c3.8,6.77,10.2,12.03,16.85,10.42,4.61-1.14,15-8.41,18.43-10.89.28-.22.19-.4.19-.43M46.33,71.16c.19-.28-.12-.53-.12-.53C30.84,60.24,1.03,44.28,1.03,44.28c-3.55,10.88,2.39,22.57,13.27,26.12,1.75.57,3.57.91,5.41,1,.53.09,20.81,0,26.25-.03.15-.03.28-.09.37-.22M48.65.03c-1.52.12-5.63,1.08-5.63,1.08-9.28,2.38-11.47,10.82-11.47,10.82-1.7,5.29.03,11.13.03,11.13,3.09,13.73,18.31,36.34,21.59,41.07.22.25.4.15.4.15.19-.06.34-.22.34-.43C58.98,13.39,48.65.03,48.65.03M60.25,64.23c.19.06.4,0,.49-.19,3.37-4.86,18.49-27.34,21.59-41.01,0,0,1.67-6.62.06-11.13,0,0-2.29-8.57-11.57-10.82,0,0-2.66-.68-5.5-1.08,0,0-10.39,13.36-5.32,63.83-.03.19.09.34.25.4M68.53,74c-.17.03-.31.13-.4.28-.03.19,0,.34.12.46,3.34,2.41,13.51,9.52,18.4,10.89,0,0,9.06,3.09,16.92-10.42l-35.04-1.21ZM112.91,44.22s-29.75,15.99-45.15,26.38c-.15.12-.25.31-.19.49,0,0,.15.28.37.28,5.5,0,26.35.03,26.9-.06,2.07-.15,4.11-.62,6.03-1.39,0,0,7.42-2.35,11.26-10.79,0,0,3.43-6.87.77-14.91M64.95,67.04c.12.09.31.12.46.03,5.01-2.5,25.88-13.11,34.51-21.55,0,0,5.47-4.39,5.75-11.47.62-9.8-9.25-18.89-9.25-18.89,0,0-18.25,22.11-31.64,51.33-.04.2.01.41.15.56" style="fill: #cd0e2d;"/>
  <path d="M213.63,28.36h8.78v24.43c0,12.4-6.83,19.51-18.74,19.51s-18.55-6.99-18.55-19.17v-24.74h8.78v24.46c0,7.24,3.56,11.1,9.9,11.1s9.83-3.77,9.83-10.79v-24.8ZM164.15,45.8h-19.85v-17.44h-8.78v43.29h8.78v-17.6h19.82v17.6h8.78V28.36h-8.78v17.44h.03ZM384.08,28.36v43.23h8.66V28.36h-8.66ZM349.6,53h15.99v-7.89h-15.99v-8.88h23.19v-7.85h-31.85v43.23h32.69v-7.89h-24.03v-10.73ZM315.15,58.11l-9.83-29.78h-7.17l-9.83,29.78-9.56-29.75h-9.34l15.09,43.26h7.27l9.83-28.42,9.83,28.42h7.33l15.06-43.26h-9.12l-9.56,29.75ZM253.8,28.6l18.89,43.02h-9.22l-3.9-9h-19.82l-.28.62-3.65,8.38h-8.97l19.08-43.26h7.67l.19.25ZM255.9,53.78l-6.25-14.5-6.22,14.5-.43.99h13.3l-.4-.99Z" style="fill: #24272a;"/>
</svg>