<?xml version="1.0" encoding="UTF-8"?>
<svg id="uuid-dcf4308d-692d-42e3-9d11-1515f46b048b" data-name="Capa 1" xmlns="http://www.w3.org/2000/svg" viewBox="0 0 429.72 74.08">
  <path d="M266.76,22.24v4.14c0,.75-.6,1.36-1.35,1.36-.02,0-.04,0-.05,0-1.18-.05-2.82-.1-3.82-.12-5.62,0-8.72,3.35-8.72,9.45v15.1c0,.75-.61,1.36-1.36,1.36h-4.93c-.75,0-1.36-.61-1.36-1.36v-30.32c0-.75.61-1.36,1.36-1.36h4.7c.75,0,1.36.61,1.36,1.36v1.93c2.25-2.33,5.83-3.58,10.26-3.58.73,0,1.66.1,2.31.19.92.13,1.62.92,1.62,1.85h0ZM216.29,35.01c-.27-.34-.24-.83.07-1.13l12.14-11.92c.54-.54.17-1.46-.6-1.46h-7.06c-.34,0-.67.13-.92.36l-13.67,12.54c-.54.5-1.43.12-1.43-.63v-10.92c0-.75-.61-1.36-1.36-1.36h-4.93c-.75,0-1.36.61-1.36,1.36v30.31c0,.75.61,1.36,1.36,1.36h4.92c.75,0,1.37-.61,1.36-1.37l-.05-7.03c0-.38.16-.75.44-1.01l4.25-3.94c.36-.33.93-.29,1.24.09l10.27,12.75c.26.32.65.51,1.06.51h7.09c.71,0,1.11-.82.67-1.38l-13.5-17.14ZM176.03,20.5h-4.93c-.75,0-1.36.61-1.36,1.36v30.31c0,.75.61,1.36,1.36,1.36h4.93c.75,0,1.36-.61,1.36-1.36v-30.32c0-.75-.61-1.36-1.36-1.36ZM352.76,20.5h-29.78c-.75,0-1.36.61-1.36,1.36v4.41c0,.75.61,1.36,1.36,1.36h10.13c.47,0,.85.38.85.85v23.69c0,.75.61,1.36,1.36,1.36h5.11c.75,0,1.36-.61,1.36-1.36v-23.69c0-.47.38-.85.85-.85h10.13c.75,0,1.36-.61,1.36-1.36v-4.41c0-.75-.61-1.36-1.36-1.36h0ZM311.32,37.01c0,9.77-7.19,16.87-17.1,16.87s-17.16-7.1-17.16-16.87,7.21-16.81,17.16-16.81,17.1,7.07,17.1,16.81ZM303.61,37.01c0-5.89-3.77-9.85-9.39-9.85s-9.44,4.05-9.44,9.85,3.88,9.91,9.44,9.91c5.53,0,9.39-4.08,9.39-9.91ZM375.77,20.5h-4.93c-.75,0-1.36.61-1.36,1.36v30.31c0,.75.61,1.36,1.36,1.36h4.93c.75,0,1.36-.61,1.36-1.36v-30.32c0-.75-.61-1.36-1.36-1.36ZM136.24,20.2c-4.45,0-8.45,1.53-11.18,4.24-.37.36-.93.33-1.27-.05-2.33-2.71-5.92-4.19-10.24-4.19-3.96,0-7.35,1.18-9.68,3.35v-1.7c0-.75-.61-1.36-1.36-1.36h-4.7c-.75,0-1.36.61-1.36,1.36v30.31c0,.75.61,1.36,1.36,1.36h4.93c.75,0,1.36-.61,1.36-1.36v-15.62c0-5.89,3.02-9.27,8.28-9.27,4.64,0,6.99,2.71,6.99,8.04v16.85c0,.75.61,1.36,1.36,1.36h4.93c.75,0,1.36-.61,1.36-1.36v-15.62c0-5.89,3.02-9.27,8.27-9.27,4.64,0,6.99,2.71,6.99,8.04v16.85c0,.75.61,1.36,1.36,1.36h4.93c.75,0,1.36-.61,1.36-1.36v-17.49c0-9.19-5-14.47-13.71-14.47h0ZM429.54,52.15l-13.51-17.14c-.27-.34-.24-.83.07-1.13l12.14-11.93c.54-.53.17-1.46-.6-1.46h-7.06c-.34,0-.67.13-.92.36l-13.67,12.54c-.54.5-1.43.12-1.43-.63v-10.91c0-.75-.61-1.36-1.36-1.36h-4.93c-.75,0-1.36.61-1.36,1.36v30.31c0,.75.61,1.36,1.36,1.36h4.92c.75,0,1.37-.61,1.36-1.37l-.05-7.03c0-.38.16-.75.44-1.01l4.26-3.95c.36-.33.93-.29,1.24.09l10.27,12.75c.26.32.65.51,1.06.51h7.09c.71,0,1.11-.81.67-1.37h0ZM68.84,19.1c-.09-.21-.19-.4-.29-.58s-.24-.35-.38-.53c-.75-.92-1.96-1.82-3.52-2.67l-12.51-6.86-12.51-6.86c-1.56-.85-2.98-1.4-4.19-1.56-.23-.03-.46-.05-.67-.05-1.34,0-3.01.59-4.87,1.6l-12.51,6.86-12.51,6.86c-1.56.85-2.77,1.75-3.52,2.67-.14.18-.27.35-.38.53-.11.18-.2.38-.29.58-.46,1.08-.68,2.52-.68,4.22v27.43c0,2.03.3,3.7.97,4.81s2.04,2.18,3.9,3.2l12.51,6.86,12.51,6.86c1.56.85,2.98,1.4,4.19,1.56.23.03.46.05.67.05s.44-.02.67-.05c1.21-.16,2.64-.71,4.19-1.56l25.02-13.72c1.85-1.01,3.23-2.1,3.9-3.2.11-.18.2-.38.29-.58.46-1.07.68-2.52.68-4.22v-27.43c0-1.7-.21-3.15-.67-4.22ZM20.04,51.29c0,.62-.67,1.02-1.22.72l-4.48-2.45c-1.05-.58-1.71-1.68-1.71-2.88v-13.26c0-.62.67-1.02,1.22-.72l5.33,2.92c.53.29.85.84.85,1.44v14.23h0ZM56.87,46.67c0,1.2-.66,2.31-1.71,2.89l-4.48,2.45c-.55.3-1.22-.09-1.22-.72v-17.56c0-.62-.67-1.02-1.22-.72l-8.09,4.43c-1.05.58-1.71,1.68-1.71,2.88v17.42c0,.6-.33,1.16-.85,1.44l-1.27.69c-.99.54-2.18.54-3.16,0l-1.26-.69c-.53-.29-.85-.84-.85-1.44v-17.42c0-1.2-.66-2.31-1.71-2.88l-16.71-9.16v-.87c0-1.2.66-2.31,1.71-2.88l1.84-1.01c.98-.54,2.18-.54,3.16,0l13.82,7.57c.98.54,2.18.54,3.16,0l6.39-3.5c.57-.31.57-1.13,0-1.44l-14.35-7.86c-.57-.31-.57-1.13,0-1.44l4.8-2.63c.99-.54,2.18-.54,3.16,0l18.83,10.32c1.06.58,1.71,1.68,1.71,2.89v19.26h0Z" style="fill: #293239;"/>
</svg>