<?xml version="1.0" encoding="UTF-8"?>
<svg id="uuid-2855fdf7-4b20-4869-9ef3-affaee26229e" data-name="Capa 1" xmlns="http://www.w3.org/2000/svg" viewBox="0 0 338.42 74.08">
  <path d="M336.83,19.83c.5.28.89.66,1.17,1.14.28.47.43,1.02.43,1.57,0,.57-.14,1.09-.43,1.56-.28.47-.67.85-1.17,1.12-.5.28-1.04.41-1.64.41s-1.12-.14-1.61-.41c-.48-.26-.88-.65-1.17-1.12-.29-.47-.43-.99-.43-1.56s.14-1.09.43-1.57c.28-.48.67-.86,1.17-1.14.49-.28,1.03-.42,1.61-.42s1.15.14,1.64.42M336.49,24.72c.38-.21.69-.52.9-.89.22-.38.33-.81.33-1.29s-.11-.91-.33-1.3c-.21-.38-.52-.69-.9-.91-.39-.22-.83-.33-1.32-.33s-.9.11-1.29.33c-.38.21-.69.53-.9.91-.22.39-.33.82-.33,1.3s.11.91.33,1.29c.21.37.52.68.9.89.38.21.81.32,1.29.32s.93-.11,1.32-.32M336.34,22.42c-.15.16-.35.27-.6.35l.94,1.4h-.85l-.78-1.29h-.31v1.29h-.73v-3.36h.99c1.03,0,1.55.34,1.55,1.02,0,.24-.07.43-.22.59M334.75,22.34h.38c.46,0,.69-.17.69-.51,0-.17-.06-.29-.17-.37s-.3-.11-.54-.11h-.36v.99h0ZM108.72,29.95c-.21.2-.46.3-.76.3h-9.06c-.3,0-.44.14-.44.43v20.58c0,2.17.49,3.73,1.46,4.7.98.97,2.53,1.45,4.66,1.45h2.67c.3,0,.55.1.76.3.21.2.31.44.31.73v6.41c0,.63-.36,1-1.06,1.11l-4.62.08c-4.68,0-8.17-.77-10.48-2.31s-3.49-4.44-3.55-8.71v-24.34c0-.29-.15-.43-.44-.43h-5.06c-.3,0-.55-.1-.76-.3-.21-.2-.31-.44-.31-.73v-5.98c0-.29.1-.53.31-.73.21-.2.46-.3.76-.3h5.06c.3,0,.44-.14.44-.43v-9.99c0-.29.1-.53.31-.73.21-.2.46-.3.76-.3h7.73c.3,0,.55.1.76.3.21.2.31.44.31.73v9.99c0,.29.15.43.44.43h9.06c.3,0,.55.1.76.3.21.2.31.44.31.73v5.98c-.01.29-.11.53-.32.73M149.45,43.92l-.09,2.65c0,.68-.36,1.02-1.06,1.02h-27.8c-.3,0-.44.14-.44.43.18,1.88.44,3.16.8,3.84,1.42,4.1,4.88,6.18,10.39,6.23,4.03,0,7.22-1.59,9.59-4.78.23-.34.53-.51.89-.51.23,0,.44.08.62.26l5.51,4.35c.53.4.62.85.27,1.37-1.84,2.5-4.28,4.44-7.33,5.81s-6.44,2.05-10.17,2.05c-4.62,0-8.54-1-11.77-2.99s-5.58-4.78-7.06-8.37c-1.36-3.08-2.04-7.35-2.04-12.81,0-3.3.36-5.98,1.06-8.03,1.19-3.99,3.42-7.13,6.7-9.44s7.24-3.46,11.85-3.46c11.66,0,18.23,5.87,19.71,17.6.24,1.42.36,3.01.36,4.78M123.92,31.66c-1.45,1.05-2.47,2.52-3.07,4.4-.36.97-.59,2.22-.71,3.76-.12.29,0,.43.36.43h18.03c.3,0,.44-.14.44-.43-.12-1.42-.3-2.5-.53-3.25-.53-2.05-1.58-3.64-3.15-4.78-1.57-1.14-3.54-1.71-5.91-1.71-2.19,0-4.01.53-5.46,1.58M186.61,25.64c2.87,2.73,4.31,6.46,4.31,11.19v28.01c0,.29-.1.53-.31.73-.21.2-.46.3-.76.3h-8.17c-.3,0-.55-.1-.76-.3-.21-.2-.31-.44-.31-.73v-25.97c0-2.62-.77-4.74-2.31-6.36s-3.58-2.43-6.13-2.43-4.6.8-6.17,2.39c-1.57,1.59-2.35,3.7-2.35,6.32v26.05c0,.29-.1.53-.31.73-.21.2-.46.3-.76.3h-8.17c-.3,0-.55-.1-.76-.3-.21-.2-.31-.44-.31-.73V23.25c0-.29.1-.53.31-.73.21-.2.46-.3.76-.3h8.17c.3,0,.55.1.76.3.21.2.31.44.31.73v2.73c0,.17.06.29.18.34.12.06.21,0,.27-.17,2.43-3.08,6.1-4.61,11.01-4.61s8.63,1.37,11.51,4.1M224.69,23.42c2.84,1.25,5.03,2.97,6.57,5.17,1.54,2.19,2.31,4.68,2.31,7.47v28.78c0,.29-.1.53-.31.73-.21.2-.46.3-.76.3h-8.17c-.3,0-.55-.1-.76-.3-.21-.2-.31-.44-.31-.73v-2.73c0-.17-.06-.27-.18-.3-.12-.03-.24.01-.36.13-2.9,3.08-7.1,4.61-12.61,4.61-4.44,0-8.1-1.08-10.97-3.25-2.87-2.16-4.31-5.38-4.31-9.65s1.61-7.9,4.84-10.38c3.23-2.48,7.77-3.72,13.63-3.72h9.5c.3,0,.44-.14.44-.43v-2.05c0-2.22-.68-3.94-2.04-5.17-1.36-1.23-3.4-1.84-6.13-1.84-2.25,0-4.07.38-5.46,1.15-1.39.77-2.27,1.84-2.62,3.2-.18.68-.59.97-1.24.85l-8.62-1.02c-.3-.06-.55-.15-.76-.3-.21-.14-.28-.33-.22-.55.47-3.47,2.41-6.32,5.82-8.54,3.4-2.22,7.68-3.33,12.83-3.33,3.74,0,7.02.63,9.86,1.88M219.83,56.47c2.07-1.48,3.11-3.36,3.11-5.64v-4.02c0-.29-.15-.43-.44-.43h-7.46c-3.14,0-5.61.57-7.42,1.71s-2.71,2.76-2.71,4.87c0,1.82.69,3.23,2.09,4.23,1.39,1,3.18,1.49,5.37,1.49,2.9,0,5.39-.74,7.46-2.22M277.36,43.92c0,4.04-.56,7.6-1.69,10.68-1.3,3.76-3.4,6.69-6.3,8.8-2.9,2.11-6.45,3.16-10.66,3.16s-7.55-1.51-10.21-4.53c-.12-.17-.24-.23-.36-.17-.12.06-.18.17-.18.34v2.65c0,.29-.1.53-.31.73-.21.2-.46.3-.76.3h-8.17c-.3,0-.55-.1-.76-.3-.21-.2-.31-.44-.31-.73V7.11c0-.29.1-.53.31-.73.21-.2.46-.3.76-.3h8.17c.3,0,.55.1.76.3.21.2.31.44.31.73v18.53c0,.17.06.29.18.34.12.06.23.03.36-.08,2.54-2.9,5.92-4.35,10.13-4.35s8.01,1.05,10.88,3.16c2.87,2.11,4.99,5.04,6.35,8.8,1.01,3.19,1.51,6.66,1.51,10.42M266.79,44.09c0-4.44-.89-7.91-2.67-10.42-1.6-2.39-3.97-3.59-7.1-3.59-2.9,0-5.12,1.25-6.66,3.76-1.48,2.34-2.22,5.72-2.22,10.16s.68,7.69,2.04,9.91c1.54,2.73,3.85,4.1,6.93,4.1,1.66,0,3.14-.36,4.44-1.07,1.3-.71,2.34-1.72,3.11-3.03,1.42-2.39,2.13-5.66,2.13-9.82M281.61,65.63c-.21-.2-.31-.44-.31-.73V7.17c0-.29.1-.53.31-.73.21-.2.46-.3.76-.3h8.17c.3,0,.55.1.76.3.21.2.31.44.31.73v57.74c0,.29-.1.53-.31.73-.21.2-.46.3-.76.3h-8.18c-.3,0-.55-.1-.75-.3M335.28,43.85l-.09,2.65c0,.68-.36,1.02-1.06,1.02h-27.8c-.3,0-.44.14-.44.43.18,1.88.44,3.16.8,3.84,1.42,4.1,4.88,6.18,10.39,6.23,4.03,0,7.22-1.59,9.59-4.78.23-.34.53-.51.89-.51.23,0,.44.08.62.26l5.51,4.35c.53.4.62.85.27,1.37-1.84,2.5-4.28,4.44-7.33,5.81s-6.44,2.05-10.17,2.05c-4.62,0-8.54-1-11.77-2.99-3.23-1.99-5.58-4.78-7.06-8.37-1.36-3.08-2.04-7.35-2.04-12.81,0-3.3.36-5.98,1.06-8.03,1.19-3.99,3.42-7.13,6.7-9.44,3.29-2.31,7.24-3.46,11.85-3.46,11.66,0,18.23,5.87,19.71,17.6.24,1.42.36,3.02.36,4.78M309.75,31.59c-1.45,1.05-2.47,2.52-3.07,4.4-.36.97-.59,2.22-.71,3.76-.12.29,0,.43.36.43h18.03c.3,0,.44-.14.44-.43-.12-1.42-.3-2.5-.53-3.25-.53-2.05-1.58-3.64-3.15-4.78-1.57-1.14-3.54-1.71-5.91-1.71-2.19,0-4.01.53-5.46,1.58M76.7,41.16l-10.27-30.5c-.75-2.21-2.62-3.85-4.9-4.29L29.47.12c-2.24-.44-4.57.35-6.08,2.05L1.64,26.53c-1.55,1.74-2.05,4.18-1.31,6.39l10.27,30.5c.75,2.21,2.62,3.85,4.9,4.29l32.06,6.25c.4.08.82.12,1.23.12,1.83,0,3.61-.78,4.85-2.17l21.74-24.37c1.55-1.73,2.05-4.18,1.31-6.39M64.29,11.39l6.75,20.06-14.36-22.65c-.31-.48-.68-.92-1.11-1.29l5.52,1.08c1.49.29,2.71,1.36,3.19,2.8M53.7,64.28l-12.51.63,20.24-11.72s.06-.04.09-.06l-4.87,9.26c-.58,1.1-1.7,1.82-2.95,1.88M22.26,64.08l-7.07-11.15c.13.1.27.19.42.27l20.4,11.81c.09.05.19.11.29.15l-10.87.55c-1.27.06-2.48-.56-3.16-1.63M23.33,9.8l12.51-.63-20.24,11.72s-.06.04-.09.06l4.87-9.26c.58-1.1,1.7-1.82,2.94-1.88M54.78,10.01l7.07,11.15c-.13-.1-.27-.19-.42-.27l-20.4-11.81c-.09-.05-.19-.11-.29-.15l10.87-.55c1.27-.07,2.48.56,3.16,1.63M61.68,48.86c0,.98-.53,1.89-1.38,2.39l-20.4,11.81c-.86.49-1.91.49-2.77,0l-20.4-11.81c-.85-.5-1.38-1.41-1.38-2.39v-23.64c0-.98.53-1.89,1.38-2.39l20.4-11.81c.42-.24.9-.37,1.38-.37.48,0,.96.12,1.38.37l20.4,11.81c.85.49,1.38,1.41,1.38,2.39v23.63ZM13.19,49.77l-5.93-9.35c-.67-1.07-.73-2.42-.14-3.54l5.98-11.36v23.34c0,.31.03.61.09.91M63.85,24.31l5.93,9.35c.67,1.07.73,2.42.14,3.54l-5.98,11.36v-23.34c0-.31-.03-.61-.08-.91M25.07,3.67c.81-.9,1.96-1.41,3.16-1.41.27,0,.53.03.8.08l20.01,3.9-25.83,1.31c-.72.04-1.4.21-2.04.49l3.9-4.37ZM3.33,28.04l14.38-16.11-12.59,23.91c-.37.71-.59,1.49-.65,2.29l-1.99-5.93c-.48-1.44-.16-3.03.85-4.17M12.75,62.7l-6.76-20.06,14.36,22.65c.31.48.68.91,1.11,1.29l-5.52-1.08c-1.49-.29-2.71-1.36-3.2-2.8M51.96,70.42c-1,1.11-2.5,1.62-3.97,1.34l-20.01-3.9,25.83-1.31c.72-.04,1.4-.21,2.04-.49l-3.9,4.37ZM73.7,46.05l-14.38,16.11,12.59-23.91c.37-.71.59-1.49.65-2.29l1.99,5.93c.48,1.44.16,3.03-.85,4.16" style="fill: #041e42;"/>
</svg>