<?xml version="1.0" encoding="UTF-8"?>
<svg id="uuid-d6485e2a-d875-4455-978b-66138bda76b3" data-name="Capa 1" xmlns="http://www.w3.org/2000/svg" viewBox="0 0 244.79 93.25">
  <path d="M0,64.9c0,2.42,2.03,4.85,4.79,4.85h18.43v18.65c0,2.42,2.03,4.85,4.79,4.85h15.75v-44.3H0v15.95ZM58.41,0C39.15,0,23.77,15.48,23.77,34.59v7.37h19.34v-7.37c0-8.3,6.73-15.01,15.29-15.01s14.37,5.97,14.37,14.82-6.36,15.2-14.84,15.2h-7.28v19.58h7.28c18.89,0,34.18-15.57,34.18-34.78S77.85,0,58.4,0" style="fill: #4acbd6;"/>
  <path d="M244.79,69.75l-12.07-13.8,10.78-12.4h-6.73l-9.67,11.56v-23.4l-5.71,2.89v33.66c0,.84.64,1.49,1.38,1.49h4.33v-13.05l10.68,13.05h7.01,0ZM203.51,42.8c-4.61,0-9.4,2.43-11.79,5.97v19.58c0,.74.65,1.4,1.38,1.4h4.33v-18.65c1.38-1.77,3.59-2.89,6.08-2.89,3.96,0,6.81,3.17,6.81,7.36v14.17h5.62v-14.36c0-7.18-5.34-12.59-12.43-12.59M183.06,31.15c-2.12,0-3.87,1.68-3.87,3.82,0,1.03.37,1.86,1.01,2.52h5.71c.64-.66,1.01-1.49,1.01-2.52,0-2.14-1.75-3.82-3.87-3.82M185.92,69.75v-26.2h-5.71v24.8c0,.74.65,1.4,1.38,1.4h4.33ZM168.69,68.35c0,.74.65,1.4,1.38,1.4h4.33V31.71l-5.71,2.89v33.75ZM155.88,59.5h7.74v-5.78h-10.5l2.76,5.78ZM135.71,43.09c-4.88,0-10.04,2.61-12.62,6.43v28.72c0,.75.64,1.4,1.38,1.4h4.33v-27.78c1.38-2.05,3.96-3.36,6.82-3.36,4.42,0,7.65,3.36,7.65,8.11s-3.23,8.21-7.65,8.21h-4.05v4.94h4.15c7.65,0,13.26-5.5,13.26-13.15,0-7.74-5.71-13.52-13.26-13.52M110.1,60.99v-12.31h7.37v-5.13h-7.37v-7.92l-5.71,2.89v23.69c0,4.85,2.86,7.55,7.92,7.55h7.37v-4.94h-5.89c-2.77,0-3.69-1.03-3.69-3.83"/>
</svg>