<?xml version="1.0" encoding="UTF-8"?>
<svg id="uuid-f486cab3-3a09-4193-8b12-15d9935091f7" data-name="Capa 1" xmlns="http://www.w3.org/2000/svg" xmlns:xlink="http://www.w3.org/1999/xlink" viewBox="0 0 313.81 74.08">
  <defs>
    <linearGradient id="uuid-60d18071-fb8b-4cbc-9854-5f4f53780a70" data-name="Degradado sin nombre 34" x1="139.98" y1="-3285.34" x2="158.37" y2="-3184.92" gradientTransform="translate(0 -3164.7971) scale(1 -1)" gradientUnits="userSpaceOnUse">
      <stop offset="0" stop-color="#c2c4ce"/>
      <stop offset=".4" stop-color="#d6d9e2"/>
      <stop offset="1" stop-color="#fff"/>
    </linearGradient>
  </defs>
  <path d="M66.57,0h4.59v4.6h-4.59V0ZM55.1,22.97v9.2s0,2.42-.03,3.21c-.04,1.09-.08,2.15-.19,3.21-.3,2.83-.93,5.53-2.22,7.8-.37.66-.75,1.3-1.2,1.9-2.76,3.69-6.96,6.46-12.21,7.22-.62.09-1.88.17-2.51.17s-1.89-.08-2.51-.17c-5.24-.77-9.45-3.54-12.21-7.22-.45-.61-.83-1.24-1.2-1.9-1.3-2.28-1.92-4.97-2.22-7.8-.11-1.06-.15-2.13-.19-3.21-.03-.79-.03-3.21-.03-3.21V.58H0v34.49c0,3.37.29,7.35.94,10.49.37,1.75.93,3.49,1.58,5.16.67,1.71,1.45,3.35,2.28,4.81,1.1,1.92,2.37,3.76,3.84,5.49.07.08.14.17.21.25h0c.35.41.7.82,1.08,1.22.39.42.81.83,1.23,1.23h0l.16.15c5.87,5.66,13.53,9.2,21.54,10.01.96.1,2.89.2,3.86.2.97,0,2.9-.1,3.86-.2,8-.81,15.66-4.35,21.54-10.01.47-.45.94-.91,1.39-1.39.4-.42.77-.85,1.15-1.29h0c.05-.06.1-.12.15-.17,1.47-1.73,2.74-3.57,3.84-5.49.84-1.47,1.62-3.1,2.28-4.81.65-1.67,1.21-3.41,1.58-5.16.66-3.14.94-7.12.94-10.49v-2.91h-9.18v-9.18h9.18v-9.19h-9.18v9.19h-9.18ZM198.24,56.43c2.13,0,4.51-.57,6.28-1.3l5.65,5.97h10.38l-9.13-9.71c4.25-3.84,5.76-9.66,5.76-14.12,0-2.44-.36-4.93-1.3-7.32-2.02-5.35-7.58-11.73-17.64-11.73s-15.56,6.38-17.59,11.78c-.94,2.39-1.3,4.82-1.3,7.27s.36,4.93,1.24,7.32c2.07,5.4,7.52,11.84,17.64,11.84ZM206.22,45.94c-1.71,1.97-4.61,3.69-7.94,3.69s-6.27-1.66-7.99-3.69c-2.07-2.38-2.75-5.81-2.75-8.67s.67-6.17,2.75-8.62c1.71-2.02,4.57-3.58,7.94-3.58s6.27,1.56,7.99,3.58c2.07,2.38,2.75,5.76,2.75,8.62s-.67,6.28-2.75,8.67ZM119.71,40.13c-.1,1.61-.26,3.27-1.04,4.73h.01c-1.4,2.44-3.94,3.95-6.8,3.95s-5.45-1.51-6.74-3.84c-.88-1.56-1.04-3.22-1.09-4.41v-21.6h-7.63v21.07c0,1.4.1,3.06.36,4.41.31,1.4.94,2.96,1.66,4.2.57,1.03,1.3,2.02,2.13,2.91,2.96,3.11,7.06,4.88,11.31,4.88s8.35-1.76,11.26-4.88c.83-.88,1.56-1.87,2.18-2.91.67-1.24,1.3-2.8,1.61-4.2.26-1.35.41-3.01.41-4.41v-21.07h-7.63v21.18ZM133.45,18.95v36.75h13.75c9.6,0,13.54-5.39,13.54-10.8,0-2.55-1.56-6.49-5.45-8.2,2.54-1.72,3.84-5.04,3.84-6.96,0-5.39-3.94-10.8-13.59-10.8h-12.09ZM141.08,34.06v-8.62h4.46c4.36,0,5.86,1.4,5.86,4.31s-1.5,4.31-5.86,4.31h-4.46ZM141.08,49.16v-8.56h6.12c4.3,0,5.81,1.4,5.81,4.31s-1.51,4.26-5.81,4.26h-6.12ZM166.55,18.95h7.63v36.75h-7.63V18.95ZM244.46,44.86c.78-1.45.94-3.12,1.04-4.73v-21.18h7.63v21.07c0,1.4-.16,3.06-.41,4.41-.31,1.4-.94,2.96-1.61,4.2-.62,1.04-1.35,2.02-2.18,2.91-2.9,3.12-7.01,4.88-11.26,4.88s-8.35-1.77-11.31-4.88c-.83-.88-1.56-1.87-2.13-2.91-.73-1.24-1.35-2.8-1.66-4.2-.26-1.35-.36-3.01-.36-4.41v-21.07h7.63v21.6c.05,1.19.21,2.85,1.09,4.41,1.3,2.34,3.89,3.84,6.74,3.84s5.4-1.51,6.8-3.95h-.01ZM266.87,18.95h-7.63v36.75h7.63V18.95ZM301.62,18.95v6.49h-11.26v30.27h-7.63v-30.27h-11.26v-6.49h30.15ZM313.81,18.95h-7.63v36.75h7.63V18.95ZM57.39,6.89h6.89v6.89h-6.89v-6.89Z" style="fill: #212124; fill-rule: evenodd;"/>
  <path d="M66.57,0h4.59v4.6h-4.59V0ZM55.1,22.97v9.2s0,2.42-.03,3.21c-.04,1.09-.08,2.15-.19,3.21-.3,2.83-.93,5.53-2.22,7.8-.37.66-.75,1.3-1.2,1.9-2.76,3.69-6.96,6.46-12.21,7.22-.62.09-1.88.17-2.51.17s-1.89-.08-2.51-.17c-5.24-.77-9.45-3.54-12.21-7.22-.45-.61-.83-1.24-1.2-1.9-1.3-2.28-1.92-4.97-2.22-7.8-.11-1.06-.15-2.13-.19-3.21-.03-.79-.03-3.21-.03-3.21V.58H0v34.49c0,3.37.29,7.35.94,10.49.37,1.75.93,3.49,1.58,5.16.67,1.71,1.45,3.35,2.28,4.81,1.1,1.92,2.37,3.76,3.84,5.49.07.08.14.17.21.25h0c.35.41.7.82,1.08,1.22.39.42.81.83,1.23,1.23h0l.16.15c5.87,5.66,13.53,9.2,21.54,10.01.96.1,2.89.2,3.86.2.97,0,2.9-.1,3.86-.2,8-.81,15.66-4.35,21.54-10.01.47-.45.94-.91,1.39-1.39.4-.42.77-.85,1.15-1.29h0c.05-.06.1-.12.15-.17,1.47-1.73,2.74-3.57,3.84-5.49.84-1.47,1.62-3.1,2.28-4.81.65-1.67,1.21-3.41,1.58-5.16.66-3.14.94-7.12.94-10.49v-2.91h-9.18v-9.18h9.18v-9.19h-9.18v9.19h-9.18ZM198.24,56.43c2.13,0,4.51-.57,6.28-1.3l5.65,5.97h10.38l-9.13-9.71c4.25-3.84,5.76-9.66,5.76-14.12,0-2.44-.36-4.93-1.3-7.32-2.02-5.35-7.58-11.73-17.64-11.73s-15.56,6.38-17.59,11.78c-.94,2.39-1.3,4.82-1.3,7.27s.36,4.93,1.24,7.32c2.07,5.4,7.52,11.84,17.64,11.84ZM206.22,45.94c-1.71,1.97-4.61,3.69-7.94,3.69s-6.27-1.66-7.99-3.69c-2.07-2.38-2.75-5.81-2.75-8.67s.67-6.17,2.75-8.62c1.71-2.02,4.57-3.58,7.94-3.58s6.27,1.56,7.99,3.58c2.07,2.38,2.75,5.76,2.75,8.62s-.67,6.28-2.75,8.67ZM119.71,40.13c-.1,1.61-.26,3.27-1.04,4.73h.01c-1.4,2.44-3.94,3.95-6.8,3.95s-5.45-1.51-6.74-3.84c-.88-1.56-1.04-3.22-1.09-4.41v-21.6h-7.63v21.07c0,1.4.1,3.06.36,4.41.31,1.4.94,2.96,1.66,4.2.57,1.03,1.3,2.02,2.13,2.91,2.96,3.11,7.06,4.88,11.31,4.88s8.35-1.76,11.26-4.88c.83-.88,1.56-1.87,2.18-2.91.67-1.24,1.3-2.8,1.61-4.2.26-1.35.41-3.01.41-4.41v-21.07h-7.63v21.18ZM133.45,18.95v36.75h13.75c9.6,0,13.54-5.39,13.54-10.8,0-2.55-1.56-6.49-5.45-8.2,2.54-1.72,3.84-5.04,3.84-6.96,0-5.39-3.94-10.8-13.59-10.8h-12.09ZM141.08,34.06v-8.62h4.46c4.36,0,5.86,1.4,5.86,4.31s-1.5,4.31-5.86,4.31h-4.46ZM141.08,49.16v-8.56h6.12c4.3,0,5.81,1.4,5.81,4.31s-1.51,4.26-5.81,4.26h-6.12ZM166.55,18.95h7.63v36.75h-7.63V18.95ZM244.46,44.86c.78-1.45.94-3.12,1.04-4.73v-21.18h7.63v21.07c0,1.4-.16,3.06-.41,4.41-.31,1.4-.94,2.96-1.61,4.2-.62,1.04-1.35,2.02-2.18,2.91-2.9,3.12-7.01,4.88-11.26,4.88s-8.35-1.77-11.31-4.88c-.83-.88-1.56-1.87-2.13-2.91-.73-1.24-1.35-2.8-1.66-4.2-.26-1.35-.36-3.01-.36-4.41v-21.07h7.63v21.6c.05,1.19.21,2.85,1.09,4.41,1.3,2.34,3.89,3.84,6.74,3.84s5.4-1.51,6.8-3.95h-.01ZM266.87,18.95h-7.63v36.75h7.63V18.95ZM301.62,18.95v6.49h-11.26v30.27h-7.63v-30.27h-11.26v-6.49h30.15ZM313.81,18.95h-7.63v36.75h7.63V18.95ZM57.39,6.89h6.89v6.89h-6.89v-6.89Z" style="fill: url(#uuid-60d18071-fb8b-4cbc-9854-5f4f53780a70); fill-rule: evenodd;"/>
  <path d="M66.57,0h4.59v4.6h-4.59V0ZM55.1,22.97v9.2s0,2.42-.03,3.21c-.04,1.09-.08,2.15-.19,3.21-.3,2.83-.93,5.53-2.22,7.8-.37.66-.75,1.3-1.2,1.9-2.76,3.69-6.96,6.46-12.21,7.22-.62.09-1.88.17-2.51.17s-1.89-.08-2.51-.17c-5.24-.77-9.45-3.54-12.21-7.22-.45-.61-.83-1.24-1.2-1.9-1.3-2.28-1.92-4.97-2.22-7.8-.11-1.06-.15-2.13-.19-3.21-.03-.79-.03-3.21-.03-3.21V.58H0v34.49c0,3.37.29,7.35.94,10.49.37,1.75.93,3.49,1.58,5.16.67,1.71,1.45,3.35,2.28,4.81,1.1,1.92,2.37,3.76,3.84,5.49.07.08.14.17.21.25h0c.35.41.7.82,1.08,1.22.39.42.81.83,1.23,1.23h0l.16.15c5.87,5.66,13.53,9.2,21.54,10.01.96.1,2.89.2,3.86.2.97,0,2.9-.1,3.86-.2,8-.81,15.66-4.35,21.54-10.01.47-.45.94-.91,1.39-1.39.4-.42.77-.85,1.15-1.29h0c.05-.06.1-.12.15-.17,1.47-1.73,2.74-3.57,3.84-5.49.84-1.47,1.62-3.1,2.28-4.81.65-1.67,1.21-3.41,1.58-5.16.66-3.14.94-7.12.94-10.49v-2.91h-9.18v-9.18h9.18v-9.19h-9.18v9.19h-9.18ZM198.24,56.43c2.13,0,4.51-.57,6.28-1.3l5.65,5.97h10.38l-9.13-9.71c4.25-3.84,5.76-9.66,5.76-14.12,0-2.44-.36-4.93-1.3-7.32-2.02-5.35-7.58-11.73-17.64-11.73s-15.56,6.38-17.59,11.78c-.94,2.39-1.3,4.82-1.3,7.27s.36,4.93,1.24,7.32c2.07,5.4,7.52,11.84,17.64,11.84ZM206.22,45.94c-1.71,1.97-4.61,3.69-7.94,3.69s-6.27-1.66-7.99-3.69c-2.07-2.38-2.75-5.81-2.75-8.67s.67-6.17,2.75-8.62c1.71-2.02,4.57-3.58,7.94-3.58s6.27,1.56,7.99,3.58c2.07,2.38,2.75,5.76,2.75,8.62s-.67,6.28-2.75,8.67ZM119.71,40.13c-.1,1.61-.26,3.27-1.04,4.73h.01c-1.4,2.44-3.94,3.95-6.8,3.95s-5.45-1.51-6.74-3.84c-.88-1.56-1.04-3.22-1.09-4.41v-21.6h-7.63v21.07c0,1.4.1,3.06.36,4.41.31,1.4.94,2.96,1.66,4.2.57,1.03,1.3,2.02,2.13,2.91,2.96,3.11,7.06,4.88,11.31,4.88s8.35-1.76,11.26-4.88c.83-.88,1.56-1.87,2.18-2.91.67-1.24,1.3-2.8,1.61-4.2.26-1.35.41-3.01.41-4.41v-21.07h-7.63v21.18ZM133.45,18.95v36.75h13.75c9.6,0,13.54-5.39,13.54-10.8,0-2.55-1.56-6.49-5.45-8.2,2.54-1.72,3.84-5.04,3.84-6.96,0-5.39-3.94-10.8-13.59-10.8h-12.09ZM141.08,34.06v-8.62h4.46c4.36,0,5.86,1.4,5.86,4.31s-1.5,4.31-5.86,4.31h-4.46ZM141.08,49.16v-8.56h6.12c4.3,0,5.81,1.4,5.81,4.31s-1.51,4.26-5.81,4.26h-6.12ZM166.55,18.95h7.63v36.75h-7.63V18.95ZM244.46,44.86c.78-1.45.94-3.12,1.04-4.73v-21.18h7.63v21.07c0,1.4-.16,3.06-.41,4.41-.31,1.4-.94,2.96-1.61,4.2-.62,1.04-1.35,2.02-2.18,2.91-2.9,3.12-7.01,4.88-11.26,4.88s-8.35-1.77-11.31-4.88c-.83-.88-1.56-1.87-2.13-2.91-.73-1.24-1.35-2.8-1.66-4.2-.26-1.35-.36-3.01-.36-4.41v-21.07h7.63v21.6c.05,1.19.21,2.85,1.09,4.41,1.3,2.34,3.89,3.84,6.74,3.84s5.4-1.51,6.8-3.95h-.01ZM266.87,18.95h-7.63v36.75h7.63V18.95ZM301.62,18.95v6.49h-11.26v30.27h-7.63v-30.27h-11.26v-6.49h30.15ZM313.81,18.95h-7.63v36.75h7.63V18.95ZM57.39,6.89h6.89v6.89h-6.89v-6.89Z" style="fill-rule: evenodd;"/>
</svg>