<?xml version="1.0" encoding="UTF-8"?>
<svg id="uuid-c5e26caa-4758-49a0-a328-2c1d2e3f2876" data-name="Capa 1" xmlns="http://www.w3.org/2000/svg" viewBox="0 0 352.1 74.08">
  <path d="M319.25.3c.14-.02.66.69.64,1l-2.98,46.59,18.5-27.57,15.08-.06,1.61.62v1.07s-17.8,26.08-17.8,26.08l16.93,24.69-.22,1.02c-.04.19-.65.33-.86.33l-15.51-.06-17.73-25.51-1.7,25.49-15.79-.02,4.76-71.95c.05-.81.26-1.39.55-1.71h14.52Z" style="fill: #0ab286;"/>
  <path d="M59.62,0l.33.33h14S74.4,0,74.4,0h.77c.18.52.23,1.3-.24,1.99l-29.98,43.26-1.95,28.73c-5.5.14-10.39.15-15.94-.04l1.91-28.69L.05,1.55C-.15,1.24.33.32.53.32l16.29-.03,20.97,31.3L59.02,0h.61Z" style="fill: #0ab286;"/>
  <polygon points="74.4 0 73.96 .33 59.96 .33 59.62 0 74.4 0" style="fill: #0ab286;"/>
  <path d="M177.05,73.92l-15.01.13c-.55,0-1.2-.71-1.18-1.21l.21-4.43c-5.38,3.92-11.35,5.88-17.83,5.57-10.94-.53-20.25-7.51-23.23-18.19-1.92-6.89-1.2-14.41,2.04-20.9,7.58-15.19,28.49-21.5,41.95-10.3l.46-4.43h16.17s-3.56,53.76-3.56,53.76ZM161.03,47.62c1.02-7.04-2.95-13.58-9.5-15.74-5.09-1.68-10.45-.26-14.56,2.99s-6.04,7.89-5.87,13.22c.28,8.64,7.94,14.95,16.66,13.38,6.79-1.22,12.24-6.77,13.26-13.85Z" style="fill: #0ab286;"/>
  <path d="M275.71,43.9c.17-4.54-.87-9.1-5.14-10.41-6.14-1.89-12.85,1.51-14.9,7.57l-2.37,32.91-15.99.03,3.75-53.78h16.08s.04,3.97.04,3.97c7.99-5.21,17.92-6.96,26.64-3.27,6.31,2.67,8.74,9.35,8.56,16.15l-2.43,36.92-16.3-.02,2.04-30.07Z" style="fill: #0ab286;"/>
  <path d="M108.04,55.94c.38,0,.97.08,1,.27l.17.96c-2.67,5.33-6.55,9.72-11.69,12.75-4.93,3.12-10.47,4.48-16.26,4.06-10.78-.77-19.84-7.87-22.65-18.44-1.82-6.83-1.06-14.24,2.13-20.64,5.08-10.17,15.85-16.28,27.11-15.92,6.16.2,11.46,2.47,15.87,6.6,6.79,6.36,9.68,15.49,7.67,24.76h-41.34c1.3,6.94,7.31,11.63,14.39,11.4,4.54-.15,8.53-2.33,11.55-5.78l12.05-.02ZM99.18,40.85c-1.71-4.6-4.75-7.39-8.7-8.93-7.72-2.33-16.1,1.53-19.34,8.96l28.05-.03Z" style="fill: #0ab286;"/>
  <path d="M207.09.3c.09,0,.56.76.54,1.05l-5.14,72.63-16.14-.03L191.3,1.68c.04-.59.38-1.22.6-1.38h15.19Z" style="fill: #0ab286;"/>
  <polygon points="227.93 73.95 212.11 73.97 215.68 20.16 231.64 20.17 227.93 73.95" style="fill: #0ab286;"/>
  <path d="M232.82.35c.08.09.41.97.38,1.35l-1.14,11.35-15.85-.05.85-12.02.65-.68,15.11.05Z" style="fill: #0ab286;"/>
</svg>