<?xml version="1.0" encoding="UTF-8"?>
<svg id="uuid-05af9bf6-5b15-4ff0-99f5-8dfd482dcd5d" data-name="Capa 1" xmlns="http://www.w3.org/2000/svg" viewBox="0 0 305.46 90.52">
  <path d="M160.05,36.91c-.17,2.09-1.11,6.5-1.11,7.48l5.19-1.97c3.65-1.22,16.13-3.43,16.13,2.29,0,2.89-3.97,4.09-6.17,4.65-5.98,1.52-15.27,3.09-18.28,9.08-2.77,5.52-.43,12.2,5.81,14.29,1.12.37,2.04.48,3.45.68,2.48.36,7.14.05,9.64-.37.68-.11,1.28-.29,1.89-.34.29-1.24.6-2.56.92-3.69.36-1.28.86-2.24,1.15-3.47-1.46.7-6.44,1.91-8.27,1.91-1.93,0-4.01.09-5.61-.92-1.86-1.17-1.87-2.3-1.87-4.01,0-5.41,13.42-6.39,17.18-8.91,0,1.01-.17,1.33-.16,2.38l-1.11,16.87c.74,0,1.5.02,2.23,0,.9-.01,1.1-.17,2.06-.17,1.51,0,2.77.17,4.46.17l.48-14.63c.13-4.63.63-8.97.63-13.69,0-8.5-8.65-9.7-15.59-9.7-4.94,0-9.03,1.13-13.05,2.07Z" style="fill: #213139; fill-rule: evenodd;"/>
  <path d="M249.46,36.91c0,2.49-1.1,6.7-1.11,7.48,2.94-1.41,9.5-3.34,12.73-3.34,3.06,0,8.59-.39,8.59,3.82,0,5.31-12.88,4.54-20.2,9.24-2.82,1.81-5.26,4.72-5.26,8.27,0,2.6.07,3.63,1.32,5.99,3.19,6.01,12.74,5.8,18.63,4.73.71-.13,1.35-.33,2-.39.04-2.01,1.5-5.23,1.91-7-.62.05-1.23.33-1.88.51-4.57,1.27-3.57,1.24-8.62,1.24-2.84,0-5.25-1.52-5.25-4.45,0-2.1,1.31-3.11,2.54-3.98,1.29-.91,2.97-1.43,4.68-2.01,1.84-.62,6.26-1.7,7.62-2.24.76-.3,1.7-.85,2.34-1,0,5.71-.78,13.13-1.27,19.09h8.75l.16-8.75c.04-.71.16-.76.17-1.58,0-.58-.03-1.19-.01-1.76.02-.8.16-.88.17-1.74.06-4.96.63-9.35.63-14.8,0-10.41-14.66-10.03-22.23-8.71-.99.17-2.09.41-3.16.66-.96.22-2.41.66-3.24.73Z" style="fill: #213139; fill-rule: evenodd;"/>
  <path d="M97.68,73.66h9.7c0-2.03-.06-5.58.14-7.34.07-.61.02-1.42.02-2.05,0-.97.14-1.23.17-2.06.02-.68-.03-1.4-.01-2.08.05-1.69.34-4.36.32-6.36-.02-2.8.68-3.09,2.61-5.98l10.47-15.62c.6-.9,1.14-1.64,1.75-2.55.73-1.09,5.07-7.34,5.22-7.99-.85,0-1.7,0-2.55,0-1.12,0-1.59.15-2.54.17-1.9.02-3.29-.17-5.26-.17l-7.51,11.9c-.32.51-.51.85-.86,1.37-.6.9-1.13,1.71-1.69,2.61-.58.93-1.11,1.68-1.67,2.63-.31.53-.56.85-.88,1.35-.31.49-.49.99-.92,1.3l-5.73-10.49c-.99-1.71-1.91-3.42-2.91-5.21l-2.65-5.46c-1.97,0-3.37.17-5.26.16-1.02,0-1.42-.17-2.54-.17-.9,0-1.8,0-2.71,0,2.21,4.18,5.46,9.53,7.91,13.89l8.72,15.3c.2.59.11,1.49.09,2.15l-.8,12.41c-.02.74-.12,1.18-.17,2.06-.03.64-.11,1.27-.17,2.06-.1,1.35-.31,2.62-.31,4.15Z" style="fill: #213139; fill-rule: evenodd;"/>
  <path d="M136.34,41.05c4.72,0,7.64,2.93,7.64,7.48h-17.5c.41-1.76,1.13-2.94,2.18-4.19.56-.67.51-.56,1.12-1.11,1.39-1.24,3.99-2.18,6.57-2.18h0ZM117.25,54.89c0,8.57,4.17,15.82,12.34,17.88,5.92,1.5,11.64.77,17.41-.54,1.82-.41.99.42,1.95-4.73.16-.87.59-2.19.59-3.22-3.03.71-6.93,2.7-11.3,2.7-4.02,0-6.92-.25-9.83-3.38-1.65-1.78-2.74-5.13-2.74-8.55,0-.55.12-.62.16-1.11h25.93c1.62-6.94-1.19-15.31-8.25-17.84-7.25-2.6-16.3-1.31-21.38,4.44-2.76,3.12-4.89,8.5-4.89,14.36Z" style="fill: #213139; fill-rule: evenodd;"/>
  <path d="M195.53,43.91c0,3.06.55,4.6,2.36,6.86,1.46,1.82,4.29,4.19,6.32,5.77l4.4,3.71c1.71,1.94,1.77,4.37-.52,5.76-3.6,2.2-11.49-.41-15.27-2.22,0,1.59.61,5.32.63,6.84.03,1.58-.31,1.2,2.84,1.94,5.99,1.41,15.14,2.05,19.64-3.02,1.95-2.19,3.03-5.84,1.67-9.38-1.08-2.82-3.43-5.02-5.58-6.83-2.17-1.83-4.8-3.68-6.76-5.65-2.49-2.5-1.95-5.69,3.46-6.01,5.81-.34,8.48,1.95,10.03,2.07-.16-1.97-.64-6.07-.64-7.8-.66-.05-1.38-.26-2.16-.39-5.14-.85-12.09-1.56-16.48,1.47-1.81,1.25-3.95,3.87-3.95,6.87Z" style="fill: #213139; fill-rule: evenodd;"/>
  <path d="M12.09,80.02c0,3.06.74,10.5,4.61,10.5,1.6,0,2.67-.67,3.7-1.71,4.17-4.19,6.7-11.52,7.82-17.16.95-4.79,1.68-10.95.15-15.56-1.98-5.99-6.3-4.53-9.58.41-4.04,6.1-6.71,16.04-6.71,23.51Z" style="fill: #358aca; fill-rule: evenodd;"/>
  <path d="M241.98,65.86c-2.25,0-10.34,3.61-10.34-1.91v-3.35c0-.98.16-1.23.16-2.22l.5-11.28c.08-.74.14-1.28.14-2.25h9.55c0-2.27.32-4.94.32-6.36h-9.55l.15-5.57c0-.87.15-1.06.16-1.74-.85,0-3.03.61-4.13.8l-3.1.55c-.71.11-.66-.05-.84.43-.01.04-.18,4.42-.18,4.75-.02,2.15-.56,6.31-.64,9.23l-1.1,18.75c.16,1.5.37,2.8.98,3.95,2.63,4.93,10.28,4.21,14.97,3.3,1.71-.33,1.47.1,1.98-2.95.15-.94.67-3.47.98-4.11Z" style="fill: #213139; fill-rule: evenodd;"/>
  <path d="M43.75,36.59c0,2.09.44,3.12,2.35,4.33,1.92,1.22,4.08,1.24,6.4,1.24,7.05,0,13.6-3.71,18.48-7.61,1.83-1.47,4.43-5.08,4.43-7.5,0-3.86-4.15-5.41-8.11-5.41-7.86,0-16.58,4.4-21.27,9.91-.36.43-.73.94-1,1.39-.55.91-1.28,2.22-1.28,3.65Z" style="fill: #f6b300; fill-rule: evenodd;"/>
  <path d="M0,41.21c0,2.81,1.91,4.24,4.34,5.21,6.71,2.68,16.18.94,22.23-1.87,5.23-2.42,10.24-8.21,2.71-11.93-5.7-2.82-16.85-1.21-21.91,1.33-.43.21-.78.35-1.19.56-2.17,1.13-6.18,3.78-6.18,6.71Z" style="fill: #81ba24; fill-rule: evenodd;"/>
  <path d="M291.94,38.66c.31-.56.16-2.01.16-2.7h-8.27v7.32c0,3.2-.34,7.41-.32,10.82,0,.97-.12,1.3-.16,2.07-.04.72.03,1.51,0,2.23-.02.83-.17,1.08-.17,2.06.02,3.19-.32,5.44-.47,8.44-.08,1.6-.16,2.8-.16,4.46.64-.36,6.9-.16,8.11-.16.61,0,.06-.05.48.16,0-5.53.1-17.16.8-22.27.66-4.84,3.78-8.84,8.6-8.47,1.2.09,1.62.09,2.56.31.76.18,1.76.39,2.35.67,0-2.32-.32-4.99-.32-7.8-.66-.06-1.23-.3-1.97-.41-3.25-.5-6.7.1-9.42,1.91-1.22.81-1.1,1.18-1.81,1.37Z" style="fill: #213139; fill-rule: evenodd;"/>
  <path d="M27.84,15.11c0,4.14,1.13,8.66,4.02,11.58,2.5,2.52,6.02,2.36,8.44-.08,4.05-4.08,4.73-9,4.73-14.52,0-3.46-1.55-8.28-4.1-10.54-1.02-.9-2.07-1.39-3.1-1.55h-1.52c-2.52.38-4.82,2.57-6.24,5.41-1.22,2.44-2.23,6.04-2.23,9.71Z" style="fill: #358aca; fill-rule: evenodd;"/>
  <path d="M48.36,73.66c5.28,0,9.07-6.25,9.07-11.61,0-3.79-.51-6.34-2.55-9.23-2.44-3.45-6.66-5.1-10.5-2.55-3.5,2.33-5.12,6.81-5.24,10.99,0,.22.15,2.09.21,2.48.33,2.05,1.1,4.27,2.26,5.86.52.72.6.86,1.22,1.48.58.57.74.77,1.45,1.25.97.64,2.56,1.33,4.08,1.33Z" style="fill: #358aca; fill-rule: evenodd;"/>
</svg>