<svg width="170" height="85" viewBox="0 0 170 85" fill="none" xmlns="http://www.w3.org/2000/svg">
<path d="M170 0.548615H0V84.1749H170V0.548615Z" fill="white"/>
<path d="M167.978 17.9283H1.71338V81.906H167.978V17.9283Z" fill="#040040"/>
<path d="M168.132 2.81754H1.86768V16.3694H168.132V2.81754Z" fill="#DE1F2B"/>
<path d="M130.487 63.0754V23.8707H120.361L120.392 60.7447C122.244 60.9917 130.487 63.0754 130.487 63.0754Z" fill="white"/>
<path d="M63.7772 61.2078V53.4903L56.3067 55.3888L56.2295 24.0097H46.0425L46.1197 66.1778C51.8875 64.1275 57.7867 62.4671 63.7772 61.2078Z" fill="white"/>
<path d="M32.1509 63.2606C30.7137 63.9613 29.1136 64.26 27.5204 64.125C21.4699 64.125 19.7103 55.1882 20.2969 47.7022C20.7908 41.5283 20.1734 32.6378 27.1191 32.6223C31.2248 32.6223 31.5489 35.9717 31.9193 40.0156L42.9244 39.4446C43.0325 27.0966 35.8398 24.1486 27.8754 24.164C19.4943 24.164 8.412 30.4306 8.14961 47.7331C7.84091 67.4126 18.5219 73.5094 27.613 73.3242C34.5587 73.1853 40.5475 67.8602 42.6003 65.2826V44.2294L26.8567 46.3131V55.8982L32.1663 55.3734L32.1509 63.2606Z" fill="white"/>
<path d="M76.8503 23.8245C67.2498 23.8245 61.7395 30.6467 61.8167 42.5007C61.8167 52.7649 68.1142 59.2939 76.9275 59.3093C86.0495 59.3093 91.992 52.5951 91.9611 41.3894C91.9302 30.1836 84.8919 23.701 76.8503 23.8245ZM76.9738 52.1784C72.4977 52.5797 72.2198 46.6681 72.2044 41.7752C72.2044 36.5582 72.4051 31.3413 76.8349 31.2795C81.2647 31.2178 81.4653 36.8515 81.4653 41.9142C81.4653 46.6681 81.4345 51.9314 76.9738 52.1629V52.1784Z" fill="white"/>
<path d="M112.335 45.6494C117.182 44.2294 117.429 37.6078 117.398 35.0919C117.275 26.0625 110.468 23.8862 105.93 23.8862H93.582V58.0745L102.658 58.3677V47.2392H103.769L108.4 58.9234C110.715 59.0006 119.312 60.4669 119.312 60.4669C118.386 58.0745 112.335 45.6494 112.335 45.6494ZM102.781 40.9417V32.1284C106.933 31.9586 108.384 33.2397 108.307 36.4811C108.214 40.17 106.841 41.1115 102.766 40.9417H102.781Z" fill="white"/>
<path d="M150.953 23.9016H138.914L131.197 63.4613L138.004 65.5758L139.964 55.111L147.45 58.6456L149.796 70.1446C154.21 71.935 161.449 75.9944 161.449 75.9944C160.677 70.7928 150.953 23.9016 150.953 23.9016ZM141.476 47.9029L143.437 38.0091L145.613 49.9403L141.476 47.9029Z" fill="white"/>
<path d="M43.0943 14.44C42.8142 14.7354 42.4553 14.9443 42.0601 15.042C41.6841 15.1507 41.2939 15.2028 40.9025 15.1964C39.2356 15.1964 38.3095 14.5172 38.3095 12.1094V7.1702C38.2652 6.74309 38.319 6.31151 38.4666 5.90828C38.6142 5.50505 38.8518 5.14078 39.1613 4.84316C39.4708 4.54554 39.8441 4.32241 40.2528 4.19072C40.6615 4.05904 41.0949 4.02228 41.5199 4.08322C43.5728 4.08322 44.7149 4.88584 44.7458 6.98498V8.11173H42.1682V6.56824C42.1682 6.13606 42.0293 5.73476 41.4891 5.73476C40.9488 5.73476 40.8099 6.13606 40.8099 6.56824V12.5879C40.8099 13.02 40.9334 13.4213 41.4891 13.4213C42.0447 13.4213 42.1682 13.02 42.1682 12.5879V11.1678H41.2112V9.62435H44.7612V14.9185H43.2178L43.0943 14.44Z" fill="white"/>
<path d="M60.0107 14.9185V4.26843H62.5575C64.9808 4.26843 66.3699 4.49996 66.3699 6.72258C66.4086 7.01055 66.3884 7.30336 66.3105 7.58327C66.2326 7.86319 66.0986 8.12436 65.9168 8.35096C65.7349 8.57756 65.5089 8.76485 65.2525 8.90149C64.9961 9.03814 64.7146 9.12127 64.4251 9.14586C65.6445 9.14586 66.3699 9.62434 66.3699 11.1524V13.4368C66.3416 13.9782 66.476 14.5158 66.7558 14.9803H64.2399C63.9646 14.5145 63.8356 13.9768 63.8695 13.4368V11.1833C63.8695 10.427 63.4064 10.0565 62.9588 10.0565H62.5421V14.9185H60.0107ZM62.5421 8.52847C63.6842 8.52847 63.8695 8.15803 63.8695 7.15476C63.8695 6.15149 63.6997 5.79649 62.5421 5.79649V8.52847Z" fill="white"/>
<path d="M88.1952 11.8778C88.1952 14.1313 87.3463 15.1192 84.9693 15.1192C81.8052 15.1346 81.8052 12.9892 81.8052 11.6463V4.26843H84.3365V11.9859C84.3365 12.8348 84.3365 13.5294 85.0002 13.5294C85.6639 13.5294 85.6793 12.8965 85.6793 11.9859V4.26843H88.2107L88.1952 11.8778Z" fill="white"/>
<path d="M103.537 14.9185V4.26843H106.624C108.646 4.26843 109.943 4.71604 109.943 6.5528V8.4976C109.943 10.0411 108.492 10.7974 106.995 10.7974H106.068V14.9185H103.537ZM106.068 9.26934H106.501C107.38 9.26934 107.442 8.79086 107.442 7.54063C107.442 6.29041 107.442 5.79649 106.501 5.79649H106.099L106.068 9.26934Z" fill="white"/>
<path d="M131.691 12.0167C131.634 12.8277 131.272 13.5872 130.678 14.1417C130.084 14.6963 129.301 15.0047 128.488 15.0047C127.675 15.0047 126.892 14.6963 126.298 14.1417C125.703 13.5872 125.341 12.8277 125.285 12.0167V7.17018C125.341 6.35918 125.703 5.59975 126.298 5.04517C126.892 4.4906 127.675 4.18219 128.488 4.18219C129.301 4.18219 130.084 4.4906 130.678 5.04517C131.272 5.59975 131.634 6.35918 131.691 7.17018V12.0167ZM127.816 12.5878C127.816 13.02 127.955 13.4213 128.496 13.4213C129.036 13.4213 129.175 13.02 129.175 12.5878V6.59909C129.175 6.16691 129.036 5.7656 128.496 5.7656C127.955 5.7656 127.816 6.16691 127.816 6.59909V12.5878Z" fill="white"/>
</svg>
