<svg width="167" height="24" viewBox="0 0 167 24" fill="none" xmlns="http://www.w3.org/2000/svg">
<g clip-path="url(#clip0_808_167)">
<path d="M18.1014 0.398438H10.9763C9.29186 0.398438 7.77108 0.617056 6.41577 1.05607C5.06045 1.49508 3.9093 2.14027 2.96058 2.98986C2.01362 3.84123 1.28315 4.88988 0.769188 6.13938C0.256983 7.38888 0 8.83745 0 10.4851V23.1027C0 23.3782 0.22178 23.6022 0.494604 23.6022H3.05915C3.33197 23.6022 3.55375 23.3782 3.55375 23.1027V13.5155H15.3855C15.6583 13.5155 15.8801 13.2916 15.8801 13.0161V10.5864C15.8801 10.3109 15.6583 10.087 15.3855 10.087H3.59248C3.59248 8.97075 3.77553 8.01985 4.14516 7.23603C4.51304 6.4522 5.027 5.80701 5.6853 5.30224C6.3436 4.79746 7.12687 4.43132 8.03511 4.20559C8.94335 3.97986 9.92375 3.86611 10.9763 3.86611H18.1014C18.3743 3.86611 18.596 3.64216 18.596 3.36667V0.897882C18.596 0.622388 18.3743 0.398438 18.1014 0.398438Z" fill="white"/>
<path d="M24.9966 0.398438H22.4321C22.1589 0.398438 21.9375 0.622046 21.9375 0.897882V23.1027C21.9375 23.3786 22.1589 23.6022 22.4321 23.6022H24.9966C25.2698 23.6022 25.4913 23.3786 25.4913 23.1027V0.897882C25.4913 0.622046 25.2698 0.398438 24.9966 0.398438Z" fill="white"/>
<path d="M47.1949 11.7201C48.1947 11.3486 48.9921 10.7567 49.5835 9.94624C50.1766 9.13575 50.4723 8.14575 50.4723 6.97623C50.4723 5.5952 50.1573 4.45768 49.5254 3.56721C48.8935 2.67674 48.0909 1.96579 47.1175 1.43435C46.1441 0.90291 45.0651 0.531438 43.8806 0.318152C42.696 0.106643 41.5519 0 40.4447 0C36.759 0 34.0026 0.91713 32.1738 2.75139C30.3432 4.58565 29.4297 7.25706 29.4297 10.7656V23.1042C29.4297 23.3797 29.6515 23.6036 29.9243 23.6036H41.0766C42.4443 23.6036 43.7274 23.5112 44.9261 23.3246C46.123 23.1397 47.1632 22.7932 48.0451 22.2884C48.9269 21.7836 49.6169 21.0922 50.1185 20.2142C50.6184 19.3379 50.8684 18.1951 50.8684 16.7856C50.8684 15.5094 50.5392 14.4412 49.8809 13.5757C49.2226 12.7118 48.3267 12.0951 47.1967 11.7218L47.1949 11.7201ZM32.9817 9.8858C32.9817 7.70673 33.6065 6.07865 34.8562 5.00156C36.106 3.92446 37.9682 3.38769 40.443 3.38769C41.3107 3.38769 42.1415 3.44635 42.9301 3.56721C43.7204 3.68629 44.4104 3.88536 45.0035 4.16619C45.595 4.44523 46.0632 4.82382 46.4046 5.30193C46.7461 5.78005 46.9186 6.37903 46.9186 7.09531C46.9186 8.21151 46.4257 9.00955 45.4383 9.48767C44.4509 9.96579 43.1677 10.2057 41.5888 10.2057H32.9817V9.88758V9.8858ZM46.7602 18.4972C46.4451 18.9487 46.0104 19.2953 45.4577 19.5334C44.905 19.7734 44.2467 19.9316 43.4828 20.0116C42.7189 20.0915 41.9039 20.1306 41.0344 20.1306H32.9799V13.5916H41.705C43.3895 13.5916 44.7307 13.8049 45.7322 14.2297C46.732 14.6545 47.2319 15.4917 47.2319 16.7412C47.2319 17.4592 47.0735 18.044 46.7584 18.4954L46.7602 18.4972Z" fill="white"/>
<path d="M71.9573 0.398438H64.6738C63.0157 0.398438 61.509 0.617056 60.1537 1.05607C58.7984 1.49508 57.6402 2.14027 56.6792 2.98986C55.7181 3.84123 54.9806 4.88988 54.4684 6.13938C53.9544 7.38888 53.6992 8.83745 53.6992 10.4851V13.5155C53.6992 15.1632 53.9562 16.6117 54.4684 17.8612C54.9824 19.1107 55.7181 20.1612 56.6792 21.0107C57.6402 21.8621 58.7966 22.5055 60.1537 22.9445C61.509 23.3836 63.0157 23.6022 64.6738 23.6022H71.9573C72.2301 23.6022 72.4519 23.3782 72.4519 23.1027V20.6322C72.4519 20.3567 72.2301 20.1327 71.9573 20.1327H64.6738C63.5684 20.1327 62.5669 20.0136 61.6727 19.7737C60.7768 19.5337 60.0006 19.1498 59.344 18.6166C58.6857 18.0852 58.1788 17.4009 57.8233 16.5637C57.4677 15.7266 57.2899 14.7099 57.2899 13.5137H69.2396C69.5125 13.5137 69.7342 13.2898 69.7342 13.0143V10.5846C69.7342 10.3091 69.5125 10.0852 69.2396 10.0852H57.2899C57.3163 8.96898 57.5205 8.01808 57.9025 7.23425C58.2844 6.45043 58.8037 5.80524 59.462 5.30046C60.1203 4.79568 60.8895 4.42954 61.7713 4.20381C62.6531 3.97809 63.6195 3.86433 64.6738 3.86433H71.9573C72.2301 3.86433 72.4519 3.64038 72.4519 3.36489V0.897882C72.4519 0.622388 72.2301 0.398438 71.9573 0.398438Z" fill="white"/>
<path d="M92.9281 14.1924C94.3221 13.8209 95.4557 13.1029 96.3234 12.04C97.1912 10.9771 97.6259 9.68674 97.6259 8.17241C97.6259 6.94957 97.4094 5.84048 96.9747 4.84337C96.5399 3.84626 95.8816 2.98956 94.9998 2.2715C94.1179 1.55343 92.9985 0.995334 91.6432 0.597201C90.2878 0.199067 88.6879 0 86.8467 0C83.161 0 80.3975 0.91713 78.5564 2.75139C76.7135 4.58565 75.793 7.25705 75.793 10.7656V23.1042C75.793 23.3797 76.0148 23.6036 76.2876 23.6036H78.8521C79.1249 23.6036 79.3467 23.3797 79.3467 23.1042V15.7494H86.6514C89.1244 15.7494 91.0078 16.4017 92.2979 17.7027C93.5072 18.9238 94.1496 20.7296 94.2253 23.1184C94.2341 23.3886 94.4471 23.6036 94.7146 23.6036H97.3637C97.64 23.6036 97.8671 23.3744 97.8583 23.0953C97.7984 21.0531 97.3725 19.2811 96.5822 17.7827C95.7267 16.1617 94.5087 14.9656 92.9298 14.1942L92.9281 14.1924ZM91.9811 11.4019C91.3756 11.7201 90.6786 11.9529 89.8883 12.1004C89.098 12.2462 88.283 12.319 87.4399 12.319H79.3467V9.96756C79.3467 7.65519 79.998 5.98089 81.3005 4.94468C82.603 3.90847 84.4917 3.38947 86.9664 3.38947C88.019 3.38947 88.9801 3.47656 89.8478 3.64897C90.7156 3.82137 91.4531 4.10042 92.0586 4.48611C92.6641 4.87181 93.1375 5.36236 93.479 5.96134C93.8205 6.56032 93.993 7.29616 93.993 8.17418C93.993 8.94557 93.8082 9.59609 93.4403 10.1275C93.0707 10.659 92.5849 11.0838 91.9794 11.4037L91.9811 11.4019Z" fill="white"/>
<path d="M118.205 20.1327H112.185C111.106 20.1327 110.112 20.0136 109.203 19.7737C108.295 19.5337 107.512 19.1498 106.854 18.6166C106.195 18.0852 105.681 17.4009 105.313 16.5637C104.946 15.7266 104.761 14.7099 104.761 13.5137V0.897882C104.761 0.622388 104.539 0.398438 104.266 0.398438H101.702C101.429 0.398438 101.207 0.622388 101.207 0.897882V13.5155C101.207 15.1632 101.464 16.6117 101.976 17.8612C102.49 19.1107 103.226 20.1612 104.187 21.0107C105.148 21.8621 106.304 22.5055 107.662 22.9445C109.017 23.3836 110.524 23.6022 112.182 23.6022H118.201C118.474 23.6022 118.696 23.3782 118.696 23.1027V20.6322C118.696 20.3567 118.474 20.1327 118.201 20.1327H118.205Z" fill="white"/>
<path d="M141.288 0.398438H138.724C138.451 0.398438 138.229 0.622388 138.229 0.897882V13.2365C138.229 14.5926 138.057 15.7355 137.715 16.665C137.372 17.5964 136.872 18.3536 136.216 18.9383C135.557 19.5231 134.767 19.9425 133.846 20.1931C132.924 20.4455 131.886 20.5717 130.727 20.5717C129.569 20.5717 128.529 20.4455 127.608 20.1931C126.686 19.9408 125.898 19.5231 125.239 18.9383C124.581 18.3536 124.081 17.5964 123.74 16.665C123.396 15.7355 123.226 14.5926 123.226 13.2365V0.897882C123.226 0.622388 123.004 0.398438 122.731 0.398438H120.166C119.894 0.398438 119.672 0.622388 119.672 0.897882V13.3947C119.672 15.2289 119.934 16.8108 120.462 18.1385C120.988 19.468 121.731 20.5646 122.692 21.4284C123.653 22.2922 124.812 22.9374 126.167 23.3622C127.522 23.787 129.043 24.0003 130.727 24.0003C132.412 24.0003 133.931 23.787 135.288 23.3622C136.643 22.9374 137.801 22.2922 138.763 21.4284C139.724 20.5646 140.466 19.468 140.993 18.1385C141.519 16.8108 141.783 15.2289 141.783 13.3947V0.897882C141.783 0.622388 141.561 0.398438 141.288 0.398438Z" fill="white"/>
<path d="M166.993 23.0245C166.785 21.7164 166.498 20.538 166.131 19.4929C165.71 18.2967 165.189 17.2338 164.571 16.3042C163.953 15.3747 163.242 14.5571 162.44 13.8532C161.637 13.1494 160.748 12.5042 159.775 11.9194C160.774 11.388 161.67 10.789 162.459 10.1261C163.249 9.46131 163.932 8.67749 164.511 7.77458C165.09 6.87167 165.559 5.81412 165.912 4.6055C166.226 3.53907 166.463 2.32157 166.622 0.952981C166.657 0.657935 166.425 0.398438 166.131 0.398438H163.536C163.283 0.398438 163.073 0.59395 163.045 0.848115C162.908 2.09228 162.686 3.17293 162.38 4.08651C162.038 5.11028 161.57 5.99364 160.979 6.73836C160.387 7.48308 159.669 8.12827 158.826 8.67215C157.983 9.21781 156.983 9.7297 155.825 10.2078C154.64 9.7297 153.619 9.21781 152.766 8.67215C151.91 8.12827 151.192 7.48308 150.615 6.73836C150.036 5.99542 149.575 5.11028 149.233 4.08651C148.927 3.17115 148.705 2.09228 148.568 0.848115C148.54 0.59395 148.33 0.398438 148.077 0.398438H145.482C145.188 0.398438 144.956 0.657935 144.991 0.952981C145.151 2.31979 145.387 3.53019 145.7 4.58417C146.056 5.78035 146.522 6.83079 147.102 7.7337C147.681 8.63838 148.371 9.42221 149.175 10.0852C149.978 10.7499 150.879 11.3613 151.879 11.9194C150.932 12.4775 150.055 13.1085 149.252 13.8123C148.45 14.5162 147.739 15.3338 147.121 16.2634C146.501 17.1947 145.975 18.2576 145.542 19.4538C145.162 20.4989 144.857 21.6879 144.629 23.0174C144.576 23.3213 144.812 23.5986 145.118 23.5986H147.821C148.066 23.5986 148.27 23.4173 148.309 23.1738C148.492 22.0185 148.754 20.9841 149.094 20.0705C149.476 19.0485 149.976 18.1367 150.594 17.3404C151.211 16.5424 151.949 15.8457 152.804 15.2467C153.66 14.6495 154.667 14.1109 155.825 13.6328C156.957 14.1109 157.951 14.6495 158.807 15.2467C159.662 15.8457 160.392 16.5424 160.998 17.3404C161.603 18.1385 162.096 19.0485 162.478 20.0705C162.82 20.9859 163.093 22.0239 163.297 23.1827C163.339 23.4227 163.543 23.5986 163.783 23.5986H166.502C166.805 23.5986 167.039 23.3249 166.991 23.0245H166.993Z" fill="white"/>
</g>
<defs>
<clipPath id="clip0_808_167">
<rect width="167" height="24" fill="white"/>
</clipPath>
</defs>
</svg>
