<svg width="957" height="217" viewBox="0 0 957 217" fill="none" xmlns="http://www.w3.org/2000/svg">
<mask id="path-1-inside-1_2032_7943" fill="white">
<path d="M957 199C957 208.941 948.941 217 939 217H75.3419C69.8631 217 64.6826 214.505 61.2672 210.221L3.92534 138.294C1.38396 135.106 0 131.15 0 127.073V18C0 8.05888 8.05887 0 18 0H939C948.941 0 957 8.05888 957 18V199Z"/>
</mask>
<path d="M3.92534 138.294L4.70726 137.67L3.92534 138.294ZM61.2672 210.221L62.0492 209.597L61.2672 210.221ZM939 217V216H75.3419V217V218H939V217ZM61.2672 210.221L62.0492 209.597L4.70726 137.67L3.92534 138.294L3.14341 138.917L60.4853 210.844L61.2672 210.221ZM0 127.073H1V18H0H-1V127.073H0ZM18 0V1H939V0V-1H18V0ZM957 18H956V199H957H958V18H957ZM939 0V1C948.389 1 956 8.61116 956 18H957H958C958 7.50659 949.493 -1 939 -1V0ZM0 18H1C1 8.61116 8.61116 1 18 1V0V-1C7.50659 -1 -1 7.50659 -1 18H0ZM3.92534 138.294L4.70726 137.67C2.30707 134.66 1 130.924 1 127.073H0H-1C-1 131.376 0.460844 135.552 3.14341 138.917L3.92534 138.294ZM75.3419 217V216C70.1675 216 65.2747 213.643 62.0492 209.597L61.2672 210.221L60.4853 210.844C64.0904 215.366 69.5587 218 75.3419 218V217ZM939 217V218C949.493 218 958 209.493 958 199H957H956C956 208.389 948.389 216 939 216V217Z" fill="#C2C2C3" mask="url(#path-1-inside-1_2032_7943)"/>
</svg>
