<svg width="370" height="483" viewBox="0 0 370 483" fill="none" xmlns="http://www.w3.org/2000/svg">
<mask id="path-1-inside-1_2065_3447" fill="white">
<path d="M613 465C613 474.941 604.941 483 595 483H57.0449C48.6546 483 41.377 477.203 39.5008 469.025L0.455827 298.843C0.15291 297.523 0 296.173 0 294.818V18C0 8.05888 8.05888 0 18 0H595C604.941 0 613 8.05888 613 18V465Z"/>
</mask>
<path d="M0.455827 298.843L1.4305 298.62L0.455827 298.843ZM39.5008 469.025L38.5261 469.249L39.5008 469.025ZM595 483V482H57.0449V483V484H595V483ZM39.5008 469.025L40.4755 468.802L1.4305 298.62L0.455827 298.843L-0.518849 299.067L38.5261 469.249L39.5008 469.025ZM0 294.818H1V18H0H-1V294.818H0ZM18 0V1H595V0V-1H18V0ZM613 18H612V465H613H614V18H613ZM595 0V1C604.389 1 612 8.61116 612 18H613H614C614 7.50659 605.493 -1 595 -1V0ZM0 18H1C1 8.61117 8.61116 1 18 1V0V-1C7.50659 -1 -1 7.5066 -1 18H0ZM0.455827 298.843L1.4305 298.62C1.14442 297.373 1 296.097 1 294.818H0H-1C-1 296.248 -0.838595 297.673 -0.518849 299.067L0.455827 298.843ZM57.0449 483V482C49.1207 482 42.2475 476.525 40.4755 468.802L39.5008 469.025L38.5261 469.249C40.5066 477.881 48.1884 484 57.0449 484V483ZM595 483V484C605.493 484 614 475.493 614 465H613H612C612 474.389 604.389 482 595 482V483Z" fill="#C2C2C3" mask="url(#path-1-inside-1_2065_3447)"/>
</svg>
