<?xml version="1.0" encoding="UTF-8"?>
<svg id="uuid-1188b516-8fc5-4491-a268-54894e0f82c8" data-name="Capa 1" xmlns="http://www.w3.org/2000/svg" viewBox="0 0 206.26 100.54">
  <path d="M42.56,72.67c0-1.14-.85-1.7-1.99-1.7-.99,0-1.71.28-2.42.71v-1.42c.56-.42,1.55-.7,2.67-.7,1.97,0,3.24,1.12,3.24,2.93v5.72h-1.4v-.67c-.25.28-1.23.84-2.21.84-1.67,0-3.21-.98-3.21-2.65,0-1.53,1.4-2.65,3.21-2.65.84,0,2.1.7,2.1.7v-1.1ZM42.56,75.3c-.28-.7-1.11-1.11-1.95-1.11-.98,0-1.95.42-1.95,1.53,0,.98.98,1.53,1.95,1.53.84,0,1.67-.42,1.95-1.12v-.84ZM60.5,66.49v11.71h-1.5v-5.26h-6.55v5.26h-1.5v-11.71h1.5v5.05h6.55v-5.05h1.5ZM64.03,74.18c0,1.95,1.26,2.93,2.79,2.93.98,0,1.67-.28,2.38-.84v1.25c-.71.56-1.54.7-2.52.7-2.37,0-4.04-1.67-4.04-4.32s1.53-4.46,3.76-4.46,3.49,1.67,3.44,4.19v.59h-5.82v-.04ZM64.03,73.04h4.32c0-1.25-.7-2.37-2.09-2.37-.98.14-1.95.84-2.23,2.37ZM78.68,76.26l1.83-6.44h1.36l-2.5,8.49h-1.4l-1.81-6.4-1.8,6.4h-1.4l-2.5-8.49h1.36l1.83,6.44,1.68-6.44h1.26l2.1,6.44h0ZM84.99,78.31h-1.4v-12.46h1.4v12.46ZM88.29,74.18c0,1.95,1.25,2.93,2.79,2.93.98,0,1.67-.28,2.39-.84v1.25c-.72.56-1.56.7-2.53.7-2.37,0-4.04-1.67-4.04-4.32s1.53-4.46,3.76-4.46,3.49,1.67,3.46,4.19v.59h-5.83v-.04ZM88.29,73.04h4.32c0-1.25-.7-2.37-2.09-2.37-.98.14-1.95.84-2.23,2.37ZM98.2,78.31h-1.4v-7.3h-1.83v-1.29h1.83v-2.26h1.4v2.26h1.93v1.29h-1.93v7.3ZM104.65,78.31h-1.4v-7.3h-1.83v-1.29h1.83v-2.26h1.4v2.26h1.93v1.29h-1.93v7.3ZM114.21,73.47v4.73h-1.5v-11.71h4.24c2.32,0,3.83,1.26,3.83,3.49s-1.5,3.49-3.83,3.49h-2.73ZM116.98,67.78h-2.77v4.3h2.77c1.52,0,2.36-.83,2.36-2.22.14-1.11-.69-2.08-2.36-2.08ZM127.21,72.67c0-1.14-.85-1.7-1.99-1.7-.99,0-1.71.28-2.42.71v-1.42c.56-.42,1.55-.7,2.67-.7,1.97,0,3.24,1.12,3.24,2.93v5.72h-1.4v-.67c-.25.28-1.23.84-2.21.84-1.67,0-3.21-.98-3.21-2.65,0-1.53,1.4-2.65,3.21-2.65.84,0,2.1.7,2.1.7v-1.1h0ZM127.21,75.3c-.28-.7-1.11-1.11-1.95-1.11-.98,0-1.95.42-1.95,1.53,0,.98.98,1.53,1.95,1.53.84,0,1.67-.42,1.95-1.11v-.84h0ZM134.43,69.58c.84,0,1.67.14,2.23.7v1.4c-.56-.56-1.4-.84-2.23-.84-1.53,0-2.79,1.12-2.79,3.07s1.26,3.07,2.79,3.07c.84,0,1.53-.28,2.23-.84v1.4c-.56.56-1.4.7-2.23.7-2.23,0-4.04-1.67-4.04-4.46,0-2.51,1.81-4.19,4.04-4.19h0ZM145.76,78.31h-1.87l-3.91-4.2v4.2h-1.4v-12.46h1.4v7.53l3.8-3.66h1.83l-4.23,3.94,4.37,4.65ZM151.8,72.67c0-1.14-.85-1.7-1.99-1.7-.99,0-1.71.28-2.42.71v-1.42c.56-.42,1.55-.7,2.67-.7,1.97,0,3.24,1.12,3.24,2.93v5.72h-1.4v-.67c-.31.28-1.29.84-2.26.84-1.67,0-3.21-.98-3.21-2.65,0-1.53,1.4-2.65,3.21-2.65.84,0,2.15.7,2.15.7v-1.1h0ZM151.7,75.3c-.28-.7-1.11-1.11-1.95-1.11-.98,0-1.95.42-1.95,1.53,0,.98.98,1.53,1.95,1.53.84,0,1.67-.42,1.95-1.11v-.84ZM159.64,71.14c-.28-.14-.55-.28-.97-.28-.83,0-1.66.56-1.93,1.53v5.69h-1.4v-8.48h1.4v1.12c.41-.7,1.1-1.26,2.07-1.26.41,0,.69,0,.83.14v1.53ZM166.95,77.25c-.42.56-1.4,1.12-2.37,1.12-2.51,0-3.77-1.96-3.77-4.48,0-2.38,1.4-4.48,3.77-4.48.92-.01,1.8.4,2.37,1.12v-4.9h1.4v12.46h-1.4v-.84h0ZM166.95,72.23c-.42-.85-1.28-1.4-2.23-1.4-1.67,0-2.51,1.25-2.51,3.07s.98,3.07,2.51,3.07c.84,0,1.67-.56,2.23-1.4v-3.34h0ZM39.77,85.63v1.37h-6.02v3.76h5.48v1.4h-5.48v4.08h6.02v1.4h-7.41v-11.73l7.41-.28ZM41.6,88.83h1.4v1.11c.56-.69,1.4-1.25,2.53-1.25,1.97,0,2.95,1.25,2.95,3.06v5.56h-1.5v-5.3c0-1.12-.55-1.95-1.79-1.95-.97,0-1.8.7-2.07,1.53v5.72h-1.4v-8.59h-.11v.11ZM53.2,97.21h-1.4v-7.3h-1.83v-1.18h1.83v-2.26h1.4v2.26h1.93v1.18h-1.93v7.3ZM57.34,93.29c0,1.95,1.25,2.93,2.79,2.93.98,0,1.67-.28,2.42-.84v1.25c-.74.56-1.58.7-2.55.7-2.37,0-4.04-1.67-4.04-4.32s1.53-4.46,3.77-4.46,3.49,1.67,3.48,4.18v.51h-5.85v.05ZM57.48,92.16h4.32c0-1.25-.7-2.37-2.09-2.37-1.11,0-1.95.84-2.23,2.37ZM69.42,90.26c-.28-.14-.55-.28-.97-.28-.83,0-1.66.56-1.93,1.53v5.69h-1.4v-8.48h1.4v1.12c.41-.7,1.1-1.26,2.07-1.26.41,0,.69,0,.83.14v1.53ZM72.42,100.54h-1.4v-11.71h1.4v.98c.42-.56,1.4-1.11,2.37-1.11,2.51,0,3.77,2.09,3.77,4.46s-1.26,4.46-3.77,4.46c-1.12,0-1.95-.56-2.37-1.11v4.04ZM72.42,94.68c.42.85,1.28,1.4,2.23,1.4,1.67,0,2.51-1.25,2.51-3.07s-.98-3.07-2.51-3.07c-.84,0-1.67.56-2.23,1.4v3.35h0ZM84.78,90.26c-.28-.14-.55-.28-.97-.28-.83,0-1.66.56-1.93,1.53v5.69h-1.4v-8.48h1.4v1.12c.41-.7,1.1-1.26,2.07-1.26.41,0,.69,0,.83.14v1.53ZM87.18,87.15c-.54,0-.98-.44-.98-.98s.44-.98.98-.98.98.44.98.98c-.14.56-.56.98-.98.98ZM87.89,97.21h-1.4v-8.49h1.4v8.49ZM89.83,95.1c.84.7,1.82,1.12,2.79,1.12s1.82-.28,1.82-1.12c0-.7-.42-.98-1.26-1.26l-1.12-.42c-1.26-.42-2.09-.98-2.09-2.37,0-1.54,1.26-2.37,2.93-2.37.89,0,1.76.24,2.51.7v1.54c-.7-.56-1.54-.98-2.51-.98-.84,0-1.54.42-1.54,1.12s.42.98,1.26,1.26l1.26.42c1.26.42,1.95,1.12,1.95,2.37,0,1.54-1.4,2.51-3.21,2.51-1.12,0-2.09-.28-2.79-.84v-1.68ZM98.61,93.29c0,1.95,1.25,2.93,2.79,2.93.98,0,1.67-.28,2.39-.84v1.25c-.71.56-1.55.7-2.53.7-2.37,0-4.04-1.67-4.04-4.32s1.53-4.46,3.77-4.46,3.49,1.67,3.45,4.18v.51h-5.82v.05ZM98.61,92.16h4.32c0-1.25-.7-2.37-2.09-2.37-.98,0-1.95.84-2.23,2.37ZM114.23,88.69c.84,0,1.67.14,2.23.7v1.4c-.56-.56-1.4-.84-2.23-.84-1.53,0-2.79,1.12-2.79,3.07s1.26,3.07,2.79,3.07c.84,0,1.53-.28,2.23-.84v1.4c-.56.56-1.4.7-2.23.7-2.23,0-4.04-1.67-4.04-4.46,0-2.51,1.81-4.19,4.04-4.19h0ZM121.62,97.47c-2.37,0-3.9-1.81-3.9-4.46s1.53-4.46,3.9-4.46,3.9,1.81,3.9,4.46-1.67,4.46-3.9,4.46ZM121.62,89.94c-1.53,0-2.37,1.25-2.37,3.21,0,1.81.98,3.21,2.37,3.21,1.53,0,2.37-1.26,2.37-3.21s-.84-3.21-2.37-3.21ZM135.95,88.69c1.67,0,2.64,1.25,2.64,3.06v5.56h-1.4v-5.42c.04-1.11-.51-1.95-1.49-1.95-.84,0-1.53.56-1.84,1.53v5.95h-1.4v-5.44c0-1.12-.56-1.95-1.53-1.95-.83,0-1.53.56-1.8,1.53v5.75h-1.4v-8.49h1.4v.97c.42-.69,1.25-1.11,2.22-1.11,1.11,0,1.95.56,2.22,1.39.28-.83,1.11-1.39,2.36-1.39h0ZM142.35,100.54h-1.4v-11.71h1.4v.98c.42-.56,1.4-1.11,2.37-1.11,2.51,0,3.77,2.09,3.77,4.46s-1.26,4.46-3.77,4.46c-1.12,0-1.95-.56-2.37-1.11v4.04ZM142.35,94.68c.42.85,1.28,1.4,2.23,1.4,1.67,0,2.51-1.25,2.51-3.07s-.98-3.07-2.51-3.07c-.84,0-1.67.56-2.23,1.4v3.35h0ZM155.24,91.63c0-1.14-.85-1.71-1.99-1.71-.99,0-1.71.28-2.42.71v-1.37c.56-.42,1.55-.7,2.67-.7,1.97,0,3.24,1.12,3.24,2.93v5.72h-1.4v-.72c-.26.28-1.24.84-2.21.84-1.67,0-3.21-.98-3.21-2.65,0-1.53,1.4-2.65,3.21-2.65.84,0,2.11.7,2.11.7v-1.1h0ZM155.24,94.26c-.28-.7-1.11-1.11-1.95-1.11-.98,0-1.95.42-1.95,1.53,0,.98.98,1.53,1.95,1.53.84,0,1.67-.42,1.95-1.12v-.84ZM159,88.83h1.4v1.11c.56-.69,1.4-1.25,2.53-1.25,1.97,0,2.95,1.25,2.95,3.06v5.56h-1.5v-5.3c0-1.12-.55-1.95-1.79-1.95-.97,0-1.8.7-2.07,1.53v5.72h-1.4v-8.59h-.11v.11ZM169.03,100.54l1.25-3.21-3.34-8.5h1.53l2.51,6.69,2.51-6.69h1.53l-4.6,11.71h-1.39Z" style="fill: #646569;"/>
  <path d="M117,32.01c0,11.18-8.91,20.27-19.76,20.27s-19.76-9.09-19.76-20.27V14.8s9.45,2.36,9.45,12.37v4.78c0,6.14,4.6,11.02,10.31,11.02s10.31-4.88,10.31-11.02v-9.76c.42-8.37,7.52-11.02,9.34-11.99h.12v21.81ZM66.11,11.85c2.65,0,5.16.42,7.39,1.4v10.6c-1.95-1.67-4.6-2.65-7.39-2.65-6.28,0-11.3,4.88-11.3,11.02v19.99h-9.45V15.62s3.9.14,6.41,1.95c3.63-3.63,8.78-5.72,14.36-5.72M20.66,43.09c-6.28,0-11.43-5.02-11.43-11.16s5.16-11.15,11.43-11.15,11.43,5.02,11.43,11.15-5.16,11.16-11.43,11.16M20.64,11.85c-11.43,0-20.64,9.06-20.64,20.08s9.2,20.08,20.64,20.08c4.74,0,9.06-1.53,12.55-4.19,2.09,3.49,8.09,4.19,8.09,4.19v-20.08c0-11.02-9.2-20.08-20.64-20.08M185.63,43.09c-6.28,0-11.43-5.02-11.43-11.16s5.16-11.15,11.43-11.15,11.43,5.02,11.43,11.15-5.16,11.16-11.43,11.16M185.63,11.85c-11.43,0-20.64,9.06-20.64,20.08s9.2,20.08,20.64,20.08c4.74,0,9.06-1.53,12.55-4.19,2.09,3.49,8.09,4.19,8.09,4.19v-20.08c0-11.02-9.2-20.08-20.64-20.08M141.84,43.09c-6.27,0-11.43-5.02-11.43-11.16s5.16-11.15,11.43-11.15,11.44,5.02,11.44,11.15c.14,6.14-5.02,11.16-11.44,11.16M141.91,11.85c-4.2,0-8.12,1.26-11.48,3.35v-3.21c-.42-8.37-7.28-11.02-9.1-11.99h-.14v52.15s6.16-.7,8.54-4.04c3.5,2.37,7.7,3.9,12.18,3.9,11.48,0,20.71-9.06,20.71-20.08.14-11.02-9.24-20.08-20.71-20.08" style="fill: #f5831f;"/>
</svg>