<?xml version="1.0" encoding="UTF-8"?>
<svg id="uuid-530d1175-579b-42c5-8d7a-efa408f12eed" data-name="Capa 1" xmlns="http://www.w3.org/2000/svg" viewBox="0 0 311.9 74.08">
  <g>
    <path d="M311.35,42.09c-.38-.68-.89-1.23-1.54-1.6-.68-.38-1.47-.58-2.39-.58s-1.71.17-2.39.55-1.19.89-1.57,1.57-.55,1.5-.55,2.42.17,1.71.55,2.36.89,1.16,1.57,1.5,1.47.55,2.39.55,1.74-.17,2.39-.55c.68-.34,1.19-.85,1.54-1.5.38-.65.55-1.43.55-2.36s-.17-1.71-.55-2.39h0v.03ZM309.98,47.08c-.61.61-1.5.92-2.59.92s-1.98-.31-2.63-.92-.96-1.47-.96-2.56.31-2.01.96-2.66c.65-.68,1.5-1.02,2.63-1.02s1.98.34,2.59,1.02.92,1.57.92,2.66-.31,1.95-.96,2.56h.03Z" style="fill: #1d2939;"/>
    <path d="M309.1,44.38c.14-.24.24-.55.24-.85,0-.51-.14-.89-.44-1.09-.31-.24-.68-.34-1.19-.34h-1.91v4.57h.85v-1.67h.75l1.13,1.67h1.02l-1.19-1.78c.34-.07.61-.24.75-.48h0v-.03ZM307.7,44.18h-1.06v-1.3h1.09c.2,0,.38.03.51.14.14.1.24.27.24.48s-.07.41-.24.51c-.14.1-.34.17-.58.17h.03Z" style="fill: #1d2939;"/>
    <rect x="35.61" y="29.15" width="8.77" height="44.38" style="fill: #1d2939;"/>
    <path d="M65.58,40.01c-1.74,0-3.45.2-5.12.58-1.64.41-3.17,1.02-4.54,1.84-1.37.85-2.53,1.91-3.45,3.24-.92,1.33-1.5,2.9-1.74,4.75h8.91c.17-.68.51-1.19,1.06-1.64.55-.41,1.23-.75,2.05-.96.82-.24,1.67-.34,2.53-.34,1.37,0,2.49.27,3.38.79s1.54,1.26,1.98,2.18c.44.96.65,2.01.65,3.24h-4.78c-2.18,0-4.27.14-6.32.38-2.01.24-3.82.72-5.36,1.43-1.54.72-2.77,1.74-3.69,3.11s-1.37,3.17-1.37,5.43.31,3.14.96,4.4c.61,1.26,1.47,2.29,2.56,3.14s2.32,1.47,3.72,1.84c1.4.41,2.87.58,4.37.58s1.74-.07,2.94-.24,2.49-.58,3.79-1.26c1.33-.68,2.49-1.74,3.55-3.21l.14,4.27h7.89v-17.82c0-5.02-1.16-8.91-3.45-11.64s-5.84-4.1-10.65-4.1h0ZM71.35,60.39c0,1.26-.34,2.39-1.06,3.38s-1.67,1.81-2.87,2.39c-1.23.58-2.56.89-4.03.89s-1.71-.14-2.46-.41-1.33-.68-1.78-1.26-.65-1.26-.65-2.12.2-1.5.58-2.01.89-.85,1.54-1.09,1.37-.38,2.18-.48c.82-.07,1.67-.14,2.53-.14h6.01v.82h0v.03Z" style="fill: #1d2939;"/>
    <path d="M108.97,56.19c-1.16-.68-2.42-1.16-3.79-1.43-1.13-.31-2.42-.58-3.86-.85-1.43-.27-2.87-.58-4.3-.92-.75-.2-1.4-.44-1.91-.68s-.92-.58-1.19-.96-.41-.79-.41-1.26.14-1.06.44-1.4.68-.65,1.13-.85.96-.34,1.54-.44c.58-.07,1.09-.14,1.6-.14,1.43,0,2.63.27,3.58.85s1.54,1.3,1.71,2.22h8.4c-.31-2.42-1.06-4.4-2.32-5.94-1.26-1.54-2.83-2.66-4.78-3.38-1.91-.72-4.03-1.09-6.28-1.09s-3.31.17-4.88.55c-1.6.34-3.04.92-4.34,1.74-1.3.79-2.32,1.84-3.11,3.11-.79,1.26-1.16,2.8-1.16,4.61s.07,1.54.24,2.22.41,1.33.68,1.98c.31.61.68,1.19,1.13,1.71s.99.96,1.57,1.37c1.43.89,3.11,1.54,5.09,2.01,1.98.44,3.79.89,5.53,1.26.96.2,1.81.44,2.56.65.75.24,1.33.55,1.74.92s.61.89.61,1.57-.14,1.13-.44,1.54-.68.72-1.19.96-1.06.41-1.64.51c-.58.07-1.16.14-1.74.14-.89,0-1.74-.14-2.59-.38s-1.6-.65-2.25-1.19-1.09-1.19-1.33-1.95h-8.91c.31,2.08.92,3.82,1.88,5.22s2.12,2.49,3.52,3.31c1.37.82,2.9,1.4,4.51,1.74,1.64.34,3.21.51,4.78.51s3.28-.17,4.92-.51,3.17-.89,4.57-1.71c1.4-.79,2.53-1.88,3.35-3.24s1.26-3.07,1.26-5.19-.38-3.35-1.09-4.47c-.72-1.16-1.67-2.05-2.83-2.73h.03v.03Z" style="fill: #1d2939;"/>
    <path d="M144.1,41.99c-1.74-1.37-4.16-2.08-7.27-2.08s-2.18.14-3.41.41-2.46.72-3.65,1.33c-1.19.61-2.25,1.5-3.24,2.63v-15.16h-8.77v44.38h8.77v-16.42c0-1.09.14-2.18.38-3.28s.65-2.08,1.23-2.97c.58-.89,1.3-1.6,2.22-2.15s2.01-.82,3.31-.82,2.49.27,3.31.79c.82.51,1.47,1.23,1.95,2.08.44.85.79,1.78.96,2.8.2.99.27,2.01.27,3v17h8.77v-18.23c0-2.8-.38-5.36-1.13-7.72-.75-2.36-2.01-4.2-3.76-5.56h.07v-.03Z" style="fill: #1d2939;"/>
    <path d="M186.06,51.99c-1.06-.85-2.25-1.57-3.65-2.12-1.37-.58-2.87-1.06-4.44-1.47-1.26-.41-2.56-.75-3.96-.99-1.37-.24-2.7-.58-3.96-.99-1.23-.38-2.25-.79-3.17-1.23-.89-.44-1.57-.96-2.05-1.57-.44-.61-.68-1.33-.68-2.15s.2-1.54.58-2.12c.41-.58.96-1.06,1.64-1.4s1.47-.61,2.36-.79,1.78-.24,2.7-.24c1.43,0,2.7.2,3.86.58,1.16.38,2.12.96,2.87,1.74s1.19,1.81,1.37,3.07h8.71c-.2-3.04-1.06-5.56-2.49-7.58-1.47-2.01-3.35-3.52-5.63-4.51s-4.88-1.5-7.78-1.5-2.83.1-4.4.31c-1.54.2-3.07.58-4.61,1.13s-2.9,1.3-4.13,2.29-2.22,2.22-2.94,3.72-1.09,3.35-1.09,5.53.31,3.72.96,5.16c.65,1.43,1.54,2.59,2.66,3.55,1.13.96,2.42,1.71,3.89,2.32s3,1.13,4.57,1.54c.82.34,1.71.61,2.59.89.89.24,1.81.44,2.77.61s1.84.38,2.73.61c1.06.31,1.95.61,2.66.96s1.3.82,1.71,1.4.58,1.33.58,2.25-.38,2.18-1.09,2.87c-.72.72-1.67,1.23-2.8,1.5-1.13.31-2.29.44-3.45.44s-3-.2-4.4-.58c-1.4-.38-2.59-.99-3.62-1.84-.99-.85-1.71-1.98-2.08-3.41h-9.15c.44,3.31,1.57,6.01,3.35,8.09s3.99,3.62,6.66,4.57,5.53,1.43,8.64,1.43,4.3-.24,6.35-.75,3.89-1.3,5.5-2.39c1.6-1.09,2.9-2.53,3.82-4.3.96-1.78,1.4-3.93,1.4-6.49s-.31-3.55-.89-4.85c-.58-1.33-1.4-2.39-2.46-3.24v-.07h.03Z" style="fill: #1d2939;"/>
    <path d="M205.89,31.65h-8.77v8.84h-4.88v7.85h4.88v14.17c0,2.8.48,5.02,1.4,6.62.96,1.6,2.36,2.77,4.2,3.41,1.84.68,4.16.99,6.93.99h3.14v-7.85h-2.77c-1.74,0-2.9-.41-3.38-1.19-.51-.79-.75-1.88-.75-3.24v-12.9h7.2v-7.85h-7.2v-8.84h0Z" style="fill: #1d2939;"/>
    <path d="M231.98,40.01c-1.74,0-3.45.2-5.12.58-1.64.41-3.17,1.02-4.54,1.84-1.37.85-2.53,1.91-3.45,3.24-.92,1.33-1.5,2.9-1.74,4.75h8.91c.17-.68.51-1.19,1.06-1.64.55-.41,1.23-.75,2.05-.96.82-.24,1.67-.34,2.53-.34,1.37,0,2.49.27,3.38.79.89.51,1.54,1.26,1.98,2.18.44.96.65,2.01.65,3.24h-4.78c-2.18,0-4.27.14-6.32.38-2.01.24-3.82.72-5.36,1.43s-2.77,1.74-3.69,3.11-1.37,3.17-1.37,5.43.31,3.14.96,4.4c.61,1.26,1.47,2.29,2.56,3.14s2.32,1.47,3.72,1.84c1.4.41,2.87.58,4.37.58s1.74-.07,2.94-.24,2.49-.58,3.79-1.26c1.33-.68,2.49-1.74,3.55-3.21l.14,4.27h7.89v-17.82c0-5.02-1.16-8.91-3.45-11.64-2.29-2.73-5.84-4.1-10.65-4.1h0ZM237.75,60.39c0,1.26-.34,2.39-1.06,3.38s-1.67,1.81-2.87,2.39c-1.23.58-2.56.89-4.03.89s-1.71-.14-2.46-.41-1.37-.68-1.78-1.26c-.44-.58-.65-1.26-.65-2.12s.2-1.5.58-2.01c.38-.51.89-.85,1.54-1.09s1.37-.38,2.18-.48c.82-.07,1.67-.14,2.53-.14h6.01v.82h0v.03Z" style="fill: #1d2939;"/>
    <path d="M270.55,39.94c-1.16,0-2.32.1-3.45.34s-2.22.68-3.24,1.33c-1.06.65-1.98,1.6-2.83,2.87l-.58-3.96h-7.89v33.05h8.77v-15.5c0-2.22.38-4.03,1.16-5.46.79-1.43,1.88-2.46,3.35-3.14s3.17-.99,5.16-.99h2.08v-8.47h-2.49v-.07h-.03Z" style="fill: #1d2939;"/>
    <path d="M289.19,31.65h-8.77v8.84h-4.88v7.85h4.88v14.17c0,2.8.48,5.02,1.4,6.62.96,1.6,2.36,2.77,4.2,3.41,1.84.68,4.16.99,6.93.99h3.14v-7.85h-2.77c-1.74,0-2.87-.41-3.38-1.19s-.75-1.88-.75-3.24v-12.9h7.2v-7.85h-7.2v-8.84h0Z" style="fill: #1d2939;"/>
    <polygon points="7.48 36.02 0 36.02 0 73.54 8.94 73.54 8.94 57.25 28.1 57.25 28.1 48.96 8.94 48.96 8.94 37.48 31.58 37.48 31.58 29.15 .07 29.15 7.48 36.02" style="fill: #1d2939;"/>
  </g>
  <path d="M240.2,11.64v-.07h-.1v.07h.1Z" style="fill: #1d2939;"/>
  <path d="M258.64,15.09h0v-.51c.2-3.99-2.36-7.34-6.21-8.43l-5.26,8.98,8.36.1-11.13,9.93h0l-6.32,5.67c3.38-1.91,3.11-2.18,5.74-2.18h20.48c1.47-1.43,2.46-3.35,2.56-5.43.24-4.47-3.45-8.06-8.26-8.06v-.07h.03Z" style="fill: #1d2939;"/>
  <path d="M249.49,5.74h3.14l.58-.99c.89-1.54.27-2.77-1.37-2.77h-2.94c-1.64,0-3.69,1.23-4.57,2.77l-3,5.05c.14-.17.27-.31.38-.44.07-.07.14-.14.17-.2.24-.24.48-.48.72-.72.07-.07.17-.17.24-.24.31-.27.65-.51,1.02-.75.14-.07.27-.14.41-.24.24-.14.51-.27.75-.41.17-.07.34-.14.48-.2.24-.1.51-.2.79-.31.17-.07.34-.1.51-.17.31-.07.58-.14.89-.2.14,0,.31-.07.44-.07.44-.07.89-.1,1.33-.1h.03Z" style="fill: #1d2939; isolation: isolate; opacity: .3;"/>
  <path d="M255.29,1.64c-.65-1.02-1.84-1.64-3.31-1.64h-2.94c-2.46,0-5.26,1.67-6.55,3.86l-3.89,6.69c-.92-.38-1.91-.61-3-.61-4.2,0-7.75,3.14-7.99,7.03v.48h-.58c-4.1,0-7.58,3.07-7.78,6.9-.1,1.6.41,3.07,1.33,4.23h18.57l6.01-10.04h-9.01l8.16-13.79c.89-1.54,2.94-2.77,4.57-2.77h2.94c1.64,0,2.25,1.23,1.37,2.77l-.58.99h2.36l.07-.14c.82-1.4.89-2.83.2-3.96,0,0,.07,0,.07,0Z" style="fill: #1d2939;"/>
</svg>