<?xml version="1.0" encoding="UTF-8"?>
<svg id="uuid-51b6fe97-a41d-4a03-ad93-3b407c4320c3" data-name="Capa 1" xmlns="http://www.w3.org/2000/svg" viewBox="0 0 498.82 57.19">
  <path d="M323.44,56.64h-13.73V.6l44.16.04s8.08-.3,13.23,4.78c0,0,5.25,4.38,5.25,15.1v36.11h-13.69V19.58s.17-3.78-1.12-5.1c0,0-1.14-1.44-3.31-1.44h-30.82l.03,43.58v.02ZM381.88,56.63V.64h55.1v12.45h-41.45s0,9.52,0,9.52h28.8v12.02h-28.8v9.55h41.71v12.46h-55.39l.03-.02ZM285.78,56.63V.64h13.67v56h-13.67v-.02ZM456.67,56.63V13.08h-12.91V.63h51.33v12.45h-24.75v43.55h-13.68ZM240.62,56.63V13.08h-12.91V.63h51.33v12.45h-24.75v43.55h-13.68ZM199.4,22.57c3.34-.03,5.34,0,6.14-.49,0,0,1.4-.78,1.42-2.44v-3.66c0-1.67-1.42-2.44-1.42-2.44-1.07-.58-2.87-.47-7.16-.47h-26.64v9.51h28.26-.61,0ZM206.76,56.63v-19.11c0-1.72-1.44-2.44-1.44-2.44-.65-.4-2.59-.48-5.44-.48h.66-28.8v22.02h-13.67V.64h42.68c7.37.02,12.46,1.11,15.96,4.51,3.44,3.51,3.9,8.1,3.92,12.87v3.99c.05,4.06-2.09,7.76-4.63,9.92l.51.25c1.04.5,1.61,1.21,1.61,1.21,1.93,2.47,1.91,4.6,1.91,7.21v16.03h-13.26ZM0,.62v55.99h13.67v-22h41.42v-12.03H13.68v-9.51h48.15V.61H0h0ZM490.48,46.72v2.57h2.39c.65,0,1.27-.18,1.37-1.14.14-1.27-.79-1.43-1.37-1.43h-2.39ZM489.51,45.88h3.33c1.16,0,2.28.22,2.38,1.91.04.97-.25,1.32-.98,1.87.77.49.79.61.9,1.9.08.98-.06,1.14.35,1.79h-1.14l-.15-.94c-.16-.89.27-2.25-1.28-2.25h-2.45v3.2h-.96v-7.46h0ZM492.02,43.82c-3.3,0-5.96,2.68-5.96,5.97,0,.01,0,.02,0,.03,0,3.3,2.67,5.99,5.99,5.97,3.31,0,5.98-2.69,5.98-6,0-3.31-2.69-5.98-6-5.98M492.05,56.57c-3.73,0-6.76-3.01-6.77-6.75v-.02c0-3.73,3.02-6.77,6.75-6.77,0,0,.01,0,.02,0,3.73,0,6.77,3.04,6.77,6.77,0,3.73-3.04,6.76-6.77,6.76" style="fill: #231f20;"/>
  <path d="M139.27,57.18c4.44-1.51,7.9-6.62,8.73-13.05v-1.86h-22.77v14.91h14.04ZM148.01,14.92v-1.68c-.87-6.71-4.59-12-9.32-13.24h-13.45v14.92s22.77,0,22.77,0ZM67.87,42.27v1.84c.82,6.44,4.28,11.56,8.73,13.07h13.97v-14.91h-22.7ZM77.18.01c-4.73,1.24-8.45,6.53-9.32,13.25v1.67h22.7V.02h-13.39,0ZM148.02,21.15h-22.77v14.92h22.77v-14.92ZM96.78,57.19h22.28v-14.91h-22.28v14.91ZM119.06,0h-22.28v14.92h22.28V0ZM67.88,36.05h22.7v-14.92h-22.7v14.92Z" style="fill: #ee2e24;"/>
</svg>