<?xml version="1.0" encoding="UTF-8"?>
<svg id="uuid-58282e5a-0477-47d1-960d-f42e69c14765" data-name="Capa 1" xmlns="http://www.w3.org/2000/svg" viewBox="0 0 296.31 74.08">
  <path d="M0,74.08V0h25.43v30.67h43.84V0s25.43,0,25.43,0v74.08h-25.43v-34.5H25.43v34.5H0ZM103.4,62.48c11.47,1.16,22.91,2.28,34.41,2.64,7.39.23,16.81-.62,21.39-2.77,4.59-2.15,6.88-5.43,6.88-9.07,0-2.65-.56-5.69-2.96-7.84-2.4-2.15-5.41-3.58-10.53-4.76-4.65-1.08-12.49-1.41-22.42-1.41h-16.67v-8.58l15.5-.05c9.49,0,16.09-.31,20.32-.93,4.65-.67,7.98-2.05,10.33-4.06,2.34-2.01,3.04-5.08,3.04-7.41,0-2.8-1-5.22-4.41-6.99-3.41-1.76-13.07-2.49-20.27-2.49-9.13,0-22.8.77-33.25,2.44V1.17C117.48.31,133.17,0,140.87,0h.36c13.11,0,32.59,1.24,39.72,4.26,7.1,3.01,9.6,7.46,9.6,12.54,0,4.11-2.29,8.41-6.86,11.31-4.57,2.91-7.21,3.99-16.29,6.12,8.16,1.38,10.77,2.25,15.16,3.84,4.37,1.59,6.76,3.31,8.69,6.05,1.92,2.72,2.31,6.28,2.3,9.16,0,2.61-1.84,11.06-10.06,15.18-9.39,4.7-28.08,5.61-44.78,5.61-4.38,0-23.29-.71-35.31-1.55v-10.04ZM296.31,72.66c-9.75.72-20.24,1.42-29.99,1.42-20.4,0-42.89-2.53-52.67-9.5-9.78-6.96-13.95-16.73-13.95-27.51s3.59-20.77,13.33-27.71c9.75-6.93,31.18-9.36,52.06-9.36h.66c13.73,0,19.95.21,30.56.9v11.4c-11.37-2.08-18.51-2.74-26.64-2.74-13.04,0-24.03,1.51-32.19,7.73-6.31,4.81-7.79,11.83-7.79,19.55,0,10.95,3.45,16.3,10.54,20.8,7.87,4.99,18.51,6.6,30.6,6.09,10.98-.45,14.88-.79,25.49-2.27v11.2Z" style="fill: #e20613;"/>
</svg>