<?xml version="1.0" encoding="UTF-8"?>
<svg id="uuid-6950270b-cefa-4b46-8b21-ba046784f3c9" data-name="Capa 1" xmlns="http://www.w3.org/2000/svg" viewBox="0 0 298.94 74.08">
  <path d="M298.94,41.04v4.78l-.47.73c-1.33,9.32-9.27,15.89-18.68,15.68-11.18.42-19.38-8.28-19.29-19.17.09-10.95,8.27-19.12,19.28-19.01,10.14.09,17.82,7.15,19.16,17.01ZM285.65,49.05c1.59-3.81,1.51-8.18-.03-11.8-1.12-2.64-3.47-4.05-6.03-4.06s-4.9,1.53-5.99,4.16c-1.5,3.66-1.51,7.79-.11,11.49,1.04,2.72,3.36,4.33,6.07,4.33,2.51,0,4.94-1.36,6.08-4.11Z" style="fill: #f58b3f;"/>
  <path d="M27.99,74.08H3.21C.95,72.91,0,71.14,0,68.5l.02-33.5h7.59s0,31.43,0,31.43h20.28s.1,7.66.1,7.66Z" style="fill: #404c83;"/>
  <path d="M70.75,74.08h-14.39s0-7.66,0-7.66h10.39s0-10.35,0-10.35h7.61s-.05,14.02-.05,14.02c0,2.1-2,3.31-3.56,3.99Z" style="fill: #404c83;"/>
  <path d="M218.43,61.24l-11.88.02-.05-21.19c0-1.71-.49-3.96-1.74-5.13-2.09-1.94-5.98-1.18-7.34,1.29-.95,1.74-1.34,3.98-1.35,6l-.04,19.02h-11.88s0-36.12,0-36.12l11.51-.02.23,4.6c2.81-4.15,6.99-5.98,11.84-5.58,3.78.31,7.12,1.81,9.03,5.65,2.94-4.07,7.24-5.99,12.23-5.68,8.13.5,11.09,4.95,11.8,12.91l.03,24.24h-12.02s0-22.57,0-22.57c-.34-2.23-1.55-4.08-3.47-4.58-2.03-.52-4.63-.08-5.72,1.97-.83,1.55-1.04,3.54-1.17,5.37v19.8Z" style="fill: #f58b3f;"/>
  <path d="M179.76,25.13v36.12s-11.54,0-11.54,0l-.09-4.79c-3.18,4.56-8.36,6.35-13.84,5.7-8.29-.99-10.62-7.15-10.62-15.14l.02-21.9h11.89s0,21.74,0,21.74c.21,1.51.59,3.33,1.72,4.28,2,1.7,4.8,1.68,7.03.54,1.91-.98,3.47-3.4,3.48-5.97l.09-20.59h11.88Z" style="fill: #f58b3f;"/>
  <path d="M23.73,48.14l-.15,6.36-7.31.13c-.57.01-1.44-.96-1.43-1.53l.14-7.24,6.58-.17,6.23-3.74v-11.72s-5.92-5.37-5.92-5.37l-6.84-.12-.21-7.29c-.02-.58.88-1.54,1.46-1.53l7.32.12.13,6.22,6.53,5.86,11.41-.02,4.32-2.6-.03-9.2c0-.57.97-1.61,1.53-1.61h10.17c.8-.01,1.73.92,1.73,1.67v10.02c.01.63-.81,1.74-1.48,1.74h-10.02s-3.82,2.28-3.82,2.28l.02,11.64,4.22,3.82,9.35-.05c.74,0,1.81.87,1.81,1.61l.02,10.02c0,.82-1.03,1.85-1.86,1.85l-10.06-.02c-.76,0-1.6-1.06-1.6-1.82v-9.45s-4.13-3.65-4.13-3.65h-11.8s-6.31,3.8-6.31,3.8Z" style="fill: #f58b3f;"/>
  <path d="M74.35,45.84l-7.6.08V7.42s-37.26,0-37.26,0l.02-7.41h39.21c2.71-.02,5.05.67,5.62,3.68v42.15Z" style="fill: #404c83;"/>
  <rect x="109.91" y="11.59" width="11.89" height="49.66" style="fill: #f58b3f;"/>
  <rect x="127" y="11.59" width="11.99" height="49.66" style="fill: #f58b3f;"/>
  <rect x="92.73" y="25.12" width="11.99" height="36.13" style="fill: #f58b3f;"/>
  <rect x="245.58" y="25.12" width="11.89" height="36.13" style="fill: #f58b3f;"/>
  <path d="M7.61,7.42v17.41s-7.61,0-7.61,0V4.41C.02,2.16,1.74.13,3.98.03L19.4,0v7.41s-11.78,0-11.78,0Z" style="fill: #404c83;"/>
  <rect x="92.73" y="11.59" width="11.99" height="9.16" style="fill: #f58b3f;"/>
  <rect x="245.58" y="11.59" width="11.89" height="9.16" style="fill: #f58b3f;"/>
</svg>