<?xml version="1.0" encoding="UTF-8"?>
<svg id="uuid-15714fe3-bd0e-47f9-8ad6-7335df7a610d" data-name="Capa 1" xmlns="http://www.w3.org/2000/svg" viewBox="0 0 463.59 81.51">
  <g id="uuid-a265fef7-57bd-4f05-8716-240e32405907" data-name="Layer 1-2">
    <g>
      <path d="M441.77,2.3c27.25,18.95,15.88,62.91-13.24,67.67h0c37.4.03,49.54-50.68,13.24-67.67" style="fill: #ffcd22; fill-rule: evenodd;"/>
      <path d="M412.75,2.01c32.49-4.78,45.81,35.35,31.6,53.9,23.52-23.71,4.7-65.58-31.6-53.9" style="fill: #0078b6; fill-rule: evenodd;"/>
      <path d="M393.56,21.6c16.02-23.72,49.3-9.04,52.63,14.93,3.82-29.63-35.24-46.06-52.63-14.93" style="fill: #009a50; fill-rule: evenodd;"/>
      <path d="M392.78,39.34c3.89-24.63,35.94-27.21,47.49-9.91-9.44-24.51-46.87-21.51-47.49,9.91" style="fill: #ca2031; fill-rule: evenodd;"/>
      <g>
        <path d="M0,26.22h13.03l10.86,28.5,10.59-28.5h12.79v43.55h-9.82v-30.58l-12.05,30.58h-4.46l-12.11-30.58v30.58H0V26.22Z" style="fill: #231f20;"/>
        <path d="M73.86,65.93c-2.26,3.36-5.62,4.52-9.4,4.52-6.19,0-10.83-3.09-10.83-9.46,0-8.09,7.55-10.26,14.43-10.26h5.71c0-4.28-.42-7.17-5.41-7.17-2.8,0-5.56,1.28-6.52,4.11l-6.75-2.95c2.08-5.74,8.54-7.55,14.28-7.55,7.71,0,13.12,3.3,13.12,11.84v20.76h-8.63s0-3.84,0-3.84ZM70.38,55.94c-3.15,0-8.12.24-8.12,4.52,0,2.83,2.11,3.84,4.67,3.84,3.45,0,6.84-1.81,6.84-5.68v-2.67h-3.39Z" style="fill: #231f20;"/>
        <path d="M90.1,37.91h8.84v5.05c2.05-3.92,6.4-5.8,10.77-5.8,7.43,0,10.62,5.38,10.62,12.31v20.29h-8.84v-19.01c0-3.96-1.79-6.4-5.89-6.4-4.37,0-6.66,2.8-6.66,7.02v18.38h-8.84v-31.86h0Z" style="fill: #231f20;"/>
        <path d="M146.11,65.93c-2.26,3.36-5.62,4.52-9.4,4.52-6.19,0-10.83-3.09-10.83-9.46,0-8.09,7.55-10.26,14.43-10.26h5.71c0-4.28-.42-7.17-5.41-7.17-2.8,0-5.56,1.28-6.52,4.11l-6.75-2.95c2.08-5.74,8.54-7.55,14.28-7.55,7.71,0,13.12,3.3,13.12,11.84v20.76h-8.63v-3.84ZM142.63,55.94c-3.15,0-8.12.24-8.12,4.52,0,2.83,2.11,3.84,4.67,3.84,3.45,0,6.84-1.81,6.84-5.68v-2.67h-3.39Z" style="fill: #231f20;"/>
        <path d="M168.51,70.81c1.34,3.24,4.73,4.25,8.03,4.25,5.14,0,8-2.47,8-7.79v-4.82c-2.08,3.57-6.1,5.92-10.23,5.92-9.04,0-13.89-7.2-13.89-15.65s5.33-15.56,14.25-15.56c4.14,0,7.71,1.58,9.87,5.5v-4.76h8.78v29.36c0,10.38-7.43,14.25-16.78,14.25-5.98,0-12.58-1.58-14.96-7.68l6.93-3.03h0ZM184.78,52.66c0-4.97-2.41-8.78-7.74-8.78s-7.62,4.19-7.62,9.25c0,4.61,2.53,8.6,7.71,8.6s7.65-4.17,7.65-9.07h0Z" style="fill: #231f20;"/>
        <path d="M230.3,62.96c-2.47,5.74-8.74,7.49-14.19,7.49-10.53,0-16.93-6.52-16.93-16.72,0-9.55,6.78-16.57,16.45-16.57,6.19,0,11.75,2.86,14.13,8.68,1.34,3.27,1.34,6.63,1.34,9.96h-22.96c.24,4.91,2.7,8.36,7.91,8.36,3.45,0,6.07-.89,7.74-4.11l6.52,2.89h0ZM222.5,50.4c-.24-4.37-2.35-7.14-6.75-7.14s-6.93,3.03-7.49,7.14h14.25,0Z" style="fill: #231f20;"/>
        <path d="M238.03,26.22h27.61v5.41h-20.85v13.27h17.01v5.33h-17.01v14.13h21.89v5.41h-28.64V26.22h0Z" style="fill: #231f20;"/>
        <path d="M273.66,37.88h6.33v5.05c1.9-3.96,6.13-5.65,10.44-5.65,7.74,0,11.36,5.5,11.36,12.85v19.63h-6.33v-19.45c0-4.91-2.32-7.71-7.2-7.71-5.15,0-8.27,3.12-8.27,8.12v19.04h-6.33v-31.89h0Z" style="fill: #231f20;"/>
        <path d="M314.56,71.52c1.67,3.72,5.8,4.94,9.55,4.94,5.86,0,9.93-2.98,9.93-9.13v-4.7c-2.23,3.75-6.72,5.98-11.03,5.98-8.95,0-14.25-7.05-14.25-15.38s5.77-15.94,14.58-15.94c4.31,0,8.48,1.73,10.71,5.53v-4.94h6.27v29.63c0,9.7-7.29,13.95-16.36,13.95-5.89,0-11.69-1.79-14.4-7.74,0,0,5-2.2,5-2.2ZM334.23,52.66c0-5.86-3.24-10.38-9.43-10.38-6.52,0-9.58,5-9.58,10.98,0,5.38,3.54,10.35,9.25,10.35,6.3,0,9.76-4.91,9.76-10.95h0Z" style="fill: #231f20;"/>
        <path d="M351.87,24.88c2.11,0,3.93,1.64,3.93,3.84s-1.79,3.84-3.93,3.84-3.92-1.7-3.92-3.84,1.79-3.84,3.92-3.84ZM348.8,37.97h6.27v31.8h-6.27v-31.8Z" style="fill: #231f20;"/>
        <path d="M364.74,37.88h6.33v5.05c1.9-3.96,6.13-5.65,10.44-5.65,7.74,0,11.36,5.5,11.36,12.85v19.63h-6.33v-19.45c0-4.91-2.32-7.71-7.2-7.71-5.15,0-8.27,3.12-8.27,8.12v19.04h-6.33v-31.89h0Z" style="fill: #231f20;"/>
        <path d="M429.32,62.63c-2.8,5.41-7.79,7.74-13.5,7.74-10.06,0-15.97-7.14-15.97-16.42s6.01-16.66,15.41-16.66c11.15,0,14.69,7.91,14.69,17.85h-23.65c0,5.86,3.12,10.32,9.22,10.32,3.89,0,6.87-1.84,8.57-5.05l5.24,2.23h0ZM423.67,50.61c-.33-5.14-3-8.51-8.18-8.51s-8.3,3.72-9.01,8.51h17.2Z" style="fill: #231f20;"/>
      </g>
    </g>
  </g>
</svg>