<?xml version="1.0" encoding="UTF-8"?>
<svg id="uuid-98c757ea-d203-4de9-98e4-32a90fd1d279" data-name="Capa 1" xmlns="http://www.w3.org/2000/svg" viewBox="0 0 532.28 74.08">
  <path d="M53.91.31h-4.47c-2.77,0-4.16,1.54-4.16,4.16v45.13L14.63,3.08C13.55,1.08,12.01.31,9.55.31h-5.39C1.39.31,0,1.85,0,4.47v63.92c0,2.77,1.39,4.16,4.16,4.16h4.62c2.77,0,4.16-1.39,4.16-4.16V22.33l30.8,47.59c1.08,2,2.77,2.77,4.93,2.77h5.39c2.77,0,4.16-1.39,4.16-4.16V4.62c-.15-2.77-1.69-4.31-4.31-4.31ZM115.51,61.45h-30.19v-20.18h21.41c2.77,0,4.16-1.39,4.16-4.16v-2.77c0-2.77-1.54-4.16-4.16-4.16h-21.41V11.55h28.65c2.77,0,4.16-1.39,4.16-4.16v-2.77c0-2.77-1.54-4.16-4.16-4.16h-37.43c-2.77,0-4.16,1.54-4.16,4.16v63.92c0,2.77,1.39,4.16,4.16,4.16h38.97c2.77,0,4.16-1.39,4.16-4.16v-2.77c0-2.93-1.54-4.31-4.16-4.31h0ZM185.13.31h-51.13c-2.77,0-4.16,1.54-4.16,4.16v2.77c0,2.77,1.39,4.16,4.16,4.16h19.1v56.99c0,2.77,1.39,4.16,4.16,4.16h4.47c2.77,0,4.16-1.39,4.16-4.16V11.4h19.1c2.77,0,4.16-1.39,4.16-4.16v-2.77c.15-2.62-1.23-4.16-4-4.16ZM209.31,20.33c0-4.77,4.16-8.01,10.78-8.01,5.54,0,9.4,2.16,12.32,3.85,2.16,1.08,4.16,1.54,5.7-1.39l1.85-3.39c1.23-2.16.92-4.16-1.23-5.7-3.08-2.16-10.01-5.39-18.33-5.39-13.55,0-24.03,8.16-24.03,20.64,0,22.18,33.27,19.41,33.27,32.96,0,4.77-4,8.16-10.63,8.16-7.08,0-12.17-3.54-14.48-5.24-2.46-1.39-4.16-1.23-5.85.92l-2.16,3.23c-2,2.77-1.08,4.47.62,5.85,3.54,2.77,11.71,7.24,21.87,7.24,14.94,0,23.56-9.55,23.56-21.1,0-22.79-33.27-19.41-33.27-32.65h0ZM311.11,56.52c-1.54-2.31-3.54-2.31-5.85-.77-3.39,2.46-9.4,6.16-17.4,6.16-15.4,0-24.03-12.17-24.03-25.57s8.32-24.49,23.87-24.49c7.39,0,12.94,3.08,16.02,5.08,2.46,1.54,4.31,1.23,5.7-1.08l1.85-2.93c1.39-2.16,1.23-4.16-.77-5.85-3.85-2.77-11.71-7.08-23.26-7.08-21.56,0-36.81,15.86-36.81,36.5s14.48,37.12,36.81,37.12c12.63,0,21.25-5.54,25.26-8.78,2-1.69,2.16-3.85.62-5.85l-2-2.46ZM458.35.31h-4.62c-2.77,0-4.16,1.54-4.16,4.16v42.51c0,9.7-6.31,15.09-15.86,15.09s-15.71-5.39-15.71-15.09V4.47c0-2.77-1.39-4.16-4.16-4.16h-4.47c-2.77,0-4.16,1.54-4.16,4.16v42.66c0,16.02,11.4,26.8,28.65,26.8s28.65-10.78,28.65-26.8V4.47c-.15-2.62-1.54-4.16-4.16-4.16h0ZM527.35.31h-51.13c-2.77,0-4.16,1.54-4.16,4.16v2.77c0,2.77,1.39,4.16,4.16,4.16h19.1v56.99c0,2.77,1.39,4.16,4.16,4.16h4.47c2.77,0,4.16-1.39,4.16-4.16V11.4h19.1c2.77,0,4.16-1.39,4.16-4.16v-2.77c.15-2.62-1.23-4.16-4-4.16h0Z" style="fill: #54565a;"/>
  <path d="M356.7.31h-27.88c-3.23,0-6.01,2.62-6.01,6.01s2.62,6.01,6.01,6.01h26.64-.31,1.69c13.71,0,23.56,10.63,23.56,24.49s-9.86,25.57-23.56,25.57-23.56-11.09-23.56-25.57c0-8.62,3.85-16.02,10.01-20.33-.15,0-.15.15-.31.15h-8.32c-2.77,0-4.93-1.85-5.7-4.31-5.7,6.47-9.09,14.94-9.09,24.49,0,20.95,15.25,37.27,36.81,37.27s36.81-16.33,36.81-37.27S378.27.31,356.7.31h0Z" style="fill: #93d500;"/>
  <path d="M334.52,16.48h8.32c.15,0,.15-.15.31-.15,3.39-2.31,7.39-3.85,11.86-4h.31-26.49c.77,2.31,3.08,4.16,5.7,4.16h0Z" style="fill: #789c4a;"/>
  <path d="M520.58,66.54c0-1.08.31-2,.77-2.93s1.23-1.69,2.16-2.16,1.85-.77,2.93-.77,2,.31,2.93.77,1.69,1.23,2.16,2.16.77,1.85.77,2.93-.31,2-.77,2.93-1.23,1.69-2.16,2.16c-.92.62-1.85.77-3.08.77-1.08,0-2.16-.31-3.08-.77-.92-.62-1.69-1.23-2.16-2.16-.15-.92-.46-2-.46-2.93h0ZM521.35,66.54c0,.92.15,1.69.62,2.62s1.08,1.39,1.85,1.85,1.69.62,2.46.62c.92,0,1.69-.15,2.62-.62.77-.46,1.39-1.08,1.85-1.85s.62-1.69.62-2.62-.15-1.69-.62-2.62c-.46-.77-1.08-1.39-1.85-1.85s-1.69-.62-2.62-.62-1.69.15-2.62.62c-.77.46-1.39,1.08-1.85,1.85-.15.77-.46,1.54-.46,2.62ZM528.89,65c0,.46-.15.77-.31,1.08s-.46.62-.92.77l1.85,3.08h-1.39l-1.69-2.77h-1.08v2.77h-1.23v-7.08h2c.92,0,1.54.15,1.85.46.77.46.92,1.08.92,1.69ZM525.51,66.23h.92c.46,0,.77-.15,1.08-.31s.31-.46.31-.77c0-.46-.15-.62-.31-.77s-.62-.31-1.08-.31h-.77v2.16h-.15Z" style="fill: #54565a;"/>
</svg>