<?xml version="1.0" encoding="UTF-8"?>
<svg id="uuid-daa7aa66-4c84-463f-ab2c-3b3e5235c03e" data-name="Capa 1" xmlns="http://www.w3.org/2000/svg" viewBox="0 0 405.16 74.08">
  <path d="M172.14,13.59c-5.23,0-10.67,1.43-17.4,5.03l3.74,9.24c5.84-3.26,10.67-4.69,14.2-4.69,4.01,0,5.78,1.5,5.78,3.47v.14c0,1.36-1.09,2.11-3.74,2.38l-4.62.48c-11.55,1.22-16.31,6.25-16.31,13.18v.48c0,6.59,5.44,11.76,13.12,11.76,5.06,0,9.45-2.13,12.12-5.9l.86,5.22h10.47v-23.72c0-11.21-6.46-17.06-18.21-17.06M171.12,46.01c-3.87,0-5.71-1.5-5.71-3.81v-.14c0-2.04,1.16-3.53,5.37-4.15l1.83-.27c2.68-.37,4.33-.87,5.84-1.79v3.01c0,4.55-2.85,7.14-7.34,7.14" style="fill: #231f20;"/>
  <polygon points="73.73 13.86 60.35 .48 46.96 13.86 53.62 20.52 20.05 54.09 33.43 67.48 46.82 54.09 40.16 47.43 73.73 13.86" style="fill: #ef4e23;"/>
  <rect x="-.26" y="14.49" width="47.48" height="18.93" transform="translate(-10.06 23.62) rotate(-45)" style="fill: #ef4e23;"/>
  <rect x="46.56" y="34.54" width="47.48" height="18.93" transform="translate(-10.52 62.6) rotate(-45)" style="fill: #ef4e23;"/>
  <rect x="197.14" width="11.89" height="54.37" style="fill: #231f20;"/>
  <path d="M133.81,13.59c-5.41,0-9.75,2.39-12.14,6.14l-.91-5.46h-10.47v53.69h11.89v-18.61c2.26,3.49,6.55,5.7,11.62,5.7,9.51,0,17.26-8.43,17.26-20.05v-1.36c0-11.62-7.75-20.05-17.26-20.05M138.84,34.66c0,6.12-3.19,10.53-8.49,10.53s-8.49-4.42-8.49-10.53v-.68c0-6.12,3.19-10.53,8.49-10.53s8.49,4.42,8.49,10.53v.68Z" style="fill: #231f20;"/>
  <path d="M369.48,13.59c-12.16,0-20.73,8.43-20.73,20.05v1.36c0,11.62,8.56,20.05,20.73,20.05s20.73-8.43,20.73-20.05v-1.36c0-11.62-8.56-20.05-20.73-20.05M377.98,34.66c0,6.12-3.19,10.53-8.49,10.53s-8.49-4.42-8.49-10.53v-.68c0-6.12,3.19-10.53,8.49-10.53s8.49,4.42,8.49,10.53v.68Z" style="fill: #231f20;"/>
  <path d="M401.42,16.04v-.2c0-1.16-.88-1.97-2.45-1.97h-2.72v6.25h1.29v-2.11h1.44l1.08,2.11h1.43l-1.33-2.47c.81-.24,1.26-.85,1.26-1.6M397.55,15.02h1.43c.82,0,1.16.27,1.16.88v.07c0,.54-.34.88-1.16.88h-1.43v-1.83Z" style="fill: #231f20;"/>
  <path d="M398.71,10.53c-3.67,0-6.46,2.79-6.46,6.46s2.79,6.46,6.46,6.46,6.46-2.79,6.46-6.46-2.79-6.46-6.46-6.46M398.71,22.56c-3.19,0-5.5-2.31-5.5-5.57s2.31-5.57,5.5-5.57,5.5,2.31,5.5,5.57-2.31,5.57-5.5,5.57" style="fill: #231f20;"/>
  <rect x="301.87" width="11.89" height="54.37" style="fill: #231f20;"/>
  <path d="M337.2,45.19c-3.47,0-4.76-1.7-4.76-5.37v-16.38h14v-9.17h-14V5.1l-11.89,1.77v34.11c0,9.31,4.76,14.07,14.27,14.07,4.21,0,9.17-1.29,13.25-3.6l-3.4-8.43c-2.38,1.29-5.71,2.17-7.47,2.17" style="fill: #231f20;"/>
  <path d="M276.86,13.59c-5.23,0-10.67,1.43-17.4,5.03l3.74,9.24c5.84-3.26,10.67-4.69,14.2-4.69,4.01,0,5.78,1.5,5.78,3.47v.14c0,1.36-1.09,2.11-3.74,2.38l-4.62.48c-11.55,1.22-16.31,6.25-16.31,13.18v.48c0,6.59,5.44,11.76,13.12,11.76,5.05,0,9.45-2.13,12.12-5.9l.86,5.22h10.47v-23.72c0-11.21-6.46-17.06-18.21-17.06M275.84,46.01c-3.87,0-5.71-1.5-5.71-3.81v-.14c0-2.04,1.16-3.53,5.37-4.15l1.84-.27c2.68-.37,4.33-.87,5.84-1.79v3.01c0,4.55-2.85,7.14-7.34,7.14" style="fill: #231f20;"/>
  <path d="M235.06,13.59c-12.16,0-20.73,8.43-20.73,20.05v1.36c0,11.62,8.56,20.05,20.73,20.05s20.73-8.43,20.73-20.05v-1.36c0-11.62-8.56-20.05-20.73-20.05M243.56,34.66c0,6.12-3.19,10.53-8.49,10.53s-8.49-4.42-8.49-10.53v-.68c0-6.12,3.19-10.53,8.49-10.53s8.49,4.42,8.49,10.53v.68Z" style="fill: #231f20;"/>
  <polygon points="283.74 64.01 286.79 64.01 291 69.55 291.04 69.55 291.04 64.01 293.83 64.01 293.83 73.79 290.88 73.79 286.58 68.1 286.54 68.1 286.54 73.79 283.74 73.79 283.74 64.01" style="fill: #231f20;"/>
  <polygon points="297.55 64.01 306.1 64.01 306.22 66.38 300.47 66.38 300.47 67.72 304.98 67.72 304.98 69.89 300.47 69.89 300.47 71.41 306.38 71.41 306.27 73.79 297.55 73.79 297.55 64.01" style="fill: #231f20;"/>
  <polygon points="312.34 66.52 308.91 66.52 309.02 64.01 318.6 64.01 318.71 66.52 315.28 66.52 315.28 73.79 312.34 73.79 312.34 66.52" style="fill: #231f20;"/>
  <polygon points="321.07 64.01 324.2 64.01 325.79 70.8 325.95 70.8 328.02 64.01 330.88 64.01 332.91 70.8 333.06 70.8 334.63 64.01 337.62 64.01 335.04 73.79 331.2 73.79 329.41 67.89 329.33 67.89 327.51 73.79 323.65 73.79 321.07 64.01" style="fill: #231f20;"/>
  <path d="M339.77,68.9c0-3.19,2.17-5.18,5.59-5.18s5.59,2,5.59,5.18-2.17,5.18-5.59,5.18-5.59-2-5.59-5.18M348.03,68.9c0-1.69-.98-2.7-2.67-2.7s-2.67,1.01-2.67,2.7.98,2.7,2.66,2.7,2.68-1.01,2.68-2.7" style="fill: #231f20;"/>
  <path d="M354.12,64.01h5.7c2.6,0,3.87,1.23,3.87,3.51,0,1.57-.64,2.63-1.9,3.13l2.32,3.14h-3.33l-1.8-2.57h-1.93v2.57h-2.94v-9.78ZM359.44,68.93c.98,0,1.33-.55,1.33-1.29s-.35-1.27-1.33-1.27h-2.39v2.56h2.39Z" style="fill: #231f20;"/>
  <polygon points="367.51 64.01 370.44 64.01 370.44 67.61 371.64 67.61 374.51 64.01 377.81 64.01 377.82 64.02 374.08 68.7 378.03 73.77 378.02 73.79 374.59 73.79 371.63 70.03 370.44 70.03 370.44 73.79 367.51 73.79 367.51 64.01" style="fill: #231f20;"/>
  <path d="M380.28,73.15v-2.68h.01c1.64.82,3.23,1.23,4.61,1.23,1.05,0,1.58-.25,1.58-.74s-.35-.62-2.45-.95c-2.29-.36-3.82-1.05-3.82-3.02,0-1.83,1.61-3.24,4.75-3.24,1.26,0,2.57.27,3.79.78v2.66h-.01c-1.16-.66-2.72-1.08-3.98-1.08-1.12,0-1.57.27-1.57.71,0,.57.68.63,2.4.92,2.29.39,3.81,1.03,3.81,3.1,0,1.61-1.2,3.21-4.65,3.21-1.7,0-3.06-.35-4.49-.91" style="fill: #231f20;"/>
</svg>