<?xml version="1.0" encoding="UTF-8"?>
<svg id="uuid-911f437f-cdb8-4a49-9ab1-25bfa5cb7b8b" data-name="Capa 1" xmlns="http://www.w3.org/2000/svg" viewBox="0 0 200.19 101.96">
  <path d="M16.2,89.61c-1.33,0-3.52-.2-5.45-.46v11.48c0,.73-.6,1.33-1.33,1.33H1.39c-.73,0-1.39-.6-1.39-1.33v-46.54c0-1.06.26-1.53,2.06-1.93,3.78-.93,9.03-1.73,14.14-1.73,10.75,0,16.66,6.24,16.66,17v5.17c0,10.42-5.44,17-16.66,17ZM22.1,67.44c0-4.72-1.19-8.1-5.9-8.1-2.19,0-4.18.13-5.45.33v20.71c1.59.2,3.85.4,5.45.4,4.71,0,5.9-3.52,5.9-8.17v-5.17Z"/>
  <path d="M65.45,73.35h-21.18v.13c0,3.79,1.6,7.24,6.84,7.24,4.18,0,10.09-.33,12.75-.6h.2c.73,0,1.26.33,1.26,1.06v5.04c0,1.07-.27,1.53-1.39,1.8-4.25,1.06-7.84,1.59-13.61,1.59-8.03,0-16.66-4.25-16.66-17.06v-4.64c0-10.68,6.24-17.46,16.79-17.46s16.39,7.44,16.39,17.46v3.85c0,.99-.52,1.59-1.39,1.59ZM56.35,66.44c0-4.91-2.26-7.37-5.98-7.37s-6.1,2.52-6.1,7.37v.27h12.08v-.27Z"/>
  <path d="M85.02,89.61c-1.33,0-3.52-.2-5.45-.46v11.48c0,.73-.59,1.33-1.33,1.33h-8.03c-.73,0-1.39-.6-1.39-1.33v-46.54c0-1.06.26-1.53,2.06-1.93,3.78-.93,9.03-1.73,14.14-1.73,10.75,0,16.66,6.24,16.66,17v5.17c0,10.42-5.44,17-16.66,17ZM90.93,67.44c0-4.72-1.19-8.1-5.91-8.1-2.19,0-4.18.13-5.45.33v20.71c1.6.2,3.86.4,5.45.4,4.71,0,5.91-3.52,5.91-8.17v-5.17Z"/>
  <path d="M112.97,89.02h-8.1c-.73,0-1.39-.66-1.39-1.39v-48.19c0-.73.66-1.33,1.39-1.33h8.1c.73,0,1.26.6,1.26,1.33v48.19c0,.73-.53,1.39-1.26,1.39Z" style="fill: #ababab;"/>
  <path d="M127.03,89.02h-8.1c-.73,0-1.33-.6-1.33-1.33v-35.38c0-.73.59-1.33,1.33-1.33h8.1c.73,0,1.33.6,1.33,1.33v35.38c0,.73-.6,1.33-1.33,1.33Z" style="fill: #ababab;"/>
  <path d="M162.75,89.02h-8.03c-.73,0-1.33-.66-1.33-1.39v-22.11c0-4.64-.86-6.17-4.91-6.17-1.93,0-3.98.93-6.24,2.12v26.16c0,.73-.6,1.39-1.33,1.39h-8.04c-.73,0-1.39-.66-1.39-1.39v-35.32c0-.73.6-1.33,1.33-1.33h7.44c.73,0,1.32.6,1.32,1.33v1.59c3.65-2.59,6.58-3.45,10.82-3.45,9.62,0,11.75,6.71,11.75,15.07v22.11c0,.73-.66,1.39-1.4,1.39Z" style="fill: #ababab;"/>
  <path d="M199.92,52.37l-12.35,16.79,12.28,18.46c.13.13.13.33.13.53,0,.47-.33.86-.86.86h-10.02c-.73,0-1.13-.13-1.66-.93l-9.56-15.6v15.14c0,.73-.6,1.39-1.33,1.39h-8.03c-.73,0-1.39-.66-1.39-1.39v-48.19c0-.73.66-1.33,1.39-1.33h8.03c.73,0,1.33.6,1.33,1.33v27.74l10.09-15.2c.53-.8,1.2-1,1.73-1h9.49c.6,0,1,.33,1,.73,0,.2-.07.4-.27.66Z" style="fill: #ababab;"/>
  <path d="M38.22,11.79c-3.15-1.05-6.51-.8-9.48.69-2.96,1.49-5.17,4.04-6.21,7.19-1.04,3.15-.8,6.51.69,9.47,1.49,2.96,4.04,5.17,7.19,6.21,1.29.43,2.61.64,3.92.64,1.91,0,3.8-.44,5.56-1.33,2.96-1.49,5.17-4.04,6.21-7.19,2.15-6.5-1.38-13.53-7.87-15.69Z" style="fill: #ffb81c;"/>
  <path d="M66.61.68c-2.74-.92-5.67-.69-8.24.6-2.58,1.29-4.5,3.52-5.41,6.26-1.87,5.65,1.2,11.78,6.85,13.65,1.12.37,2.27.55,3.39.55,4.53,0,8.76-2.87,10.26-7.4h0c1.87-5.66-1.21-11.78-6.86-13.65Z" style="fill: #ffb81c;"/>
  <path d="M99.12,4.96c-1.08-2.15-2.93-3.75-5.21-4.5-4.71-1.57-9.79,1-11.35,5.7-.76,2.28-.58,4.72.5,6.86,1.08,2.15,2.93,3.75,5.21,4.5.93.31,1.88.46,2.83.46,1.38,0,2.75-.32,4.02-.96,2.15-1.08,3.74-2.93,4.5-5.21.76-2.28.58-4.72-.5-6.86Z" style="fill: #ffb81c;"/>
  <path d="M113.55,16.79c-3.73-1.24-7.74.79-8.98,4.5-.6,1.8-.46,3.73.39,5.42s2.31,2.96,4.11,3.55c.74.25,1.49.36,2.23.36,2.98,0,5.76-1.89,6.75-4.87h0c1.23-3.72-.79-7.74-4.51-8.97Z" style="fill: #ffb81c;"/>
  <path d="M126.96,39.41c-.53-1.07-1.45-1.86-2.58-2.23-1.13-.37-2.34-.29-3.41.25-1.07.54-1.86,1.45-2.24,2.58-.77,2.34.5,4.86,2.83,5.64.46.16.93.23,1.4.23,1.87,0,3.61-1.18,4.24-3.06h0c.37-1.13.29-2.34-.25-3.41Z" style="fill: #ffb81c;"/>
</svg>