<?xml version="1.0" encoding="UTF-8"?>
<svg id="uuid-cb3d5893-4355-46ae-9c6a-3387908ad313" data-name="Capa 1" xmlns="http://www.w3.org/2000/svg" viewBox="0 0 364.11 104.78">
  <path d="M98.89,40.7c-6.42,0-11.16,1.76-14.15,3.16l-.44.18,2.73,6.33.44-.18c.18-.09,5.01-2.29,10.99-2.29s9.49,2.73,9.49,7.21v3.96c-2.9-2.2-6.94-3.43-11.16-3.43-6.86,0-17.05,3.6-17.05,13.45,0,6.94,4.75,15.03,18.02,15.03,10.11,0,15.65-3.43,18.02-5.54l.18-.18v-21.71c-.09-11.16-5.19-16-17.05-16ZM107.95,66.54v7.91c-2.46,1.67-5.98,2.55-9.85,2.55-6.94,0-10.02-3.78-10.02-7.38s2.99-6.94,9.67-6.94c5.1,0,8.7,2.55,10.2,3.87Z" style="fill: #36517f;"/>
  <path d="M144.61,40.7c-5.98,0-10.28,2.73-12.75,4.75v-3.69h-8.18v41.23h8.18v-29.98c1.67-1.93,5.8-4.75,10.28-4.75,6.51,0,8.88,3.08,8.88,11.34v23.38h8.18v-26.99c0-10.11-4.92-15.3-14.59-15.3Z" style="fill: #36517f;"/>
  <path d="M61.09,54.15l-.09.09h0l.09-.09c-4.57-2.2-8.53-4.13-8.53-7.74,0-2.64,2.02-5.19,6.68-5.19s8.61,3.34,9.67,4.57l.62.7,4.04-7.21-.35-.35c-2.64-2.64-8.09-5.63-15.12-5.63-8.97,0-15.74,5.89-15.74,13.71,0,7.38,6.77,10.99,12.75,14.06,4.75,2.46,8.88,4.66,8.88,8.18,0,6.51-6.07,7.03-7.91,7.03h-16.88v8h17.32c10.55,0,17.58-6.07,17.58-15.21,0-8.53-6.86-11.96-13.01-14.94Z" style="fill: #36517f;"/>
  <path d="M188.65,40.7c-5.98,0-11.52,1.93-15.65,5.54-4.48,3.96-6.94,9.58-6.94,16.17,0,8,3.34,13.1,6.15,15.91,3.6,3.6,8.53,5.71,13.45,5.71,4.22,0,8.97-1.93,12.04-5.01v6.33c0,8.18-3.78,12.31-11.25,12.31-5.8,0-10.99-2.2-13.71-4.04l-.44-.26-3.69,6.24.35.26c2.73,1.85,8.7,4.92,17.41,4.92,3.69,0,8.97-.7,13.1-4.22,4.13-3.52,6.24-8.88,6.24-15.91v-39.03l-.26-.18c-4.75-3.16-10.28-4.75-16.79-4.75ZM197.7,50.11v20.92c-2.11,3.52-6.51,5.98-10.55,5.98-9.14,0-12.48-8.61-12.48-14.5,0-10.81,7.56-14.59,14.06-14.59,4.4-.09,7.56,1.41,8.97,2.2Z" style="fill: #36517f;"/>
  <path d="M234.88,40.7c-12.39,0-22.15,9.58-22.15,21.71s9.67,21.62,22.06,21.62,21.98-9.49,21.98-21.62-9.58-21.71-21.89-21.71ZM248.25,62.5c0,8.79-5.45,14.68-13.54,14.68-7.38,0-13.45-6.51-13.45-14.5,0-8.79,5.54-14.86,13.54-14.86,7.56,0,13.45,6.42,13.45,14.68Z" style="fill: #36517f;"/>
  <path d="M308.73,40.7c-6.15,0-11.52,3.52-14.42,5.89-2.37-3.87-5.98-5.89-10.64-5.89-5.89,0-10.37,2.99-12.57,4.83v-3.78h-8.18v41.23h8.18v-30.06c1.58-1.67,5.54-4.66,9.76-4.66,5.27,0,7.65,2.55,7.65,8.18v26.55h8.18v-30.15c2.11-2.2,5.98-4.66,9.93-4.66,5.1,0,7.38,2.55,7.38,8.35v26.37h8.18v-27.25c-.18-9.76-4.75-14.94-13.45-14.94Z" style="fill: #36517f;"/>
  <path d="M347.05,40.7c-6.42,0-11.16,1.76-14.15,3.16l-.44.18,2.73,6.33.44-.18c.18-.09,5.01-2.29,10.99-2.29s9.49,2.73,9.49,7.21v3.96c-2.9-2.2-6.94-3.43-11.16-3.43-6.86,0-17.05,3.6-17.05,13.45,0,6.94,4.75,15.03,18.02,15.03,10.11,0,15.65-3.43,18.02-5.54l.18-.18v-21.71c0-11.16-5.1-16-17.05-16ZM356.11,66.54v7.91c-2.46,1.67-5.98,2.55-9.85,2.55-6.94,0-10.02-3.78-10.02-7.38s2.99-6.94,9.67-6.94c5.1,0,8.79,2.55,10.2,3.87Z" style="fill: #36517f;"/>
  <path d="M83.86,31.38c.79-.18,1.58-.35,2.46-.44l1.41-.09h.26c3.69,0,7.03,1.23,9.76,3.25,4.22-.97,7.65-1.05,10.37-.53-4.04-5.89-10.55-10.02-18.2-10.64C85.09,9.23,72.08,0,57.4,0,40,0,24.97,13.54,23.12,30.77,9.93,32.61,0,44.04,0,57.4c0,14.86,12.04,26.9,26.9,26.9h4.66v-8h-4.66c-10.46,0-18.9-8.44-18.9-18.9,0-8.88,6.07-16.44,14.59-18.37,1.49-.35,2.99-.62,4.66-.62,1.41,0,2.73.18,4.04.44-.26-1.41-.35-2.9-.35-4.31,0-14.59,11.87-26.55,26.55-26.55,2.11,0,4.22.26,6.24.7,10.64,2.46,18.9,11.52,20.13,22.68Z" style="fill: #158fcf;"/>
</svg>