<?xml version="1.0" encoding="UTF-8"?>
<svg id="uuid-8cda0e3b-3418-4b11-aa0a-fc3c9c679ee8" data-name="Capa 1" xmlns="http://www.w3.org/2000/svg" viewBox="0 0 504.38 85.25">
  <g>
    <rect x="28.53" width="11.49" height="68.69" style="fill: #6b0aea;"/>
    <path d="M42.79,85.25l11.49-7.08V18.71c-3.4-2.53-7.33-4.26-11.49-5.09v71.63Z" style="fill: #6b0aea; fill-rule: evenodd;"/>
    <path d="M14.27,78.17l11.49,7.08V13.62c-4.16.82-8.08,2.56-11.49,5.09v59.46Z" style="fill: #6b0aea; fill-rule: evenodd;"/>
    <path d="M57.06,3.26v73.63l5.36-3.31c3.89-2.56,6.2-6.93,6.13-11.58V27.26c0-10.03-11.49-23.99-11.49-23.99Z" style="fill: #6b0aea; fill-rule: evenodd;"/>
    <path d="M0,62c-.08,4.66,2.23,9.03,6.13,11.58l5.36,3.31V3.26S0,17.22,0,27.26v34.75Z" style="fill: #6b0aea; fill-rule: evenodd;"/>
  </g>
  <g>
    <g>
      <polygon points="343.83 69.5 343.83 15.33 352.14 11.85 352.14 69.5 343.83 69.5" style="fill: #fff; fill-rule: evenodd;"/>
      <path d="M339.44,48.54c0-5.76-1.82-10.43-5.47-14.01-3.64-3.58-8.4-5.37-14.25-5.37-5.86,0-10.63,1.86-14.32,5.58-3.69,3.72-5.54,8.68-5.54,14.87,0,6.19,1.82,11.16,5.47,14.91,3.64,3.75,8.38,5.62,14.21,5.62,4.23.14,8.4-1.08,11.88-3.49,3.11-2.2,5.44-5.35,6.63-8.97h-8.97c-1.85,3.7-5.03,5.55-9.55,5.55-2.87.09-5.66-.96-7.76-2.92-2.13-2.08-3.34-4.91-3.39-7.89h30.76c.2-1.29.3-2.59.29-3.89ZM308.46,46.81c.15-2.96,1.41-5.75,3.54-7.81,2.08-1.95,4.84-3,7.69-2.92,2.88-.07,5.67.98,7.8,2.92,2.17,2.01,3.36,4.86,3.28,7.81h-22.31Z" style="fill: #fff; fill-rule: evenodd;"/>
      <path d="M267.4,29.81v6.27c2.67-4.61,6.95-6.91,12.83-6.91,4.19-.13,8.24,1.49,11.19,4.47,2.94,2.98,4.41,7.13,4.41,12.46v23.41h-8.24v-22.18c0-3.55-.9-6.28-2.7-8.17-1.94-1.95-4.62-2.99-7.36-2.85-2.76-.14-5.44.9-7.4,2.85-1.82,1.9-2.73,4.62-2.73,8.17v22.18h-8.31V29.81h8.31Z" style="fill: #fff; fill-rule: evenodd;"/>
      <rect x="243.62" y="29.81" width="8.31" height="39.69" style="fill: #fff;"/>
      <path d="M237.59,36.51h-9.77v21.97c-.11,1.17.27,2.33,1.06,3.21.7.65,1.91.97,3.61.97h5.1v6.84h-6.56c-7.73,0-11.59-3.67-11.59-11.02V23.42l8.38-3.48v9.87h9.77v6.7Z" style="fill: #fff; fill-rule: evenodd;"/>
      <path d="M187.19,29.81v6.27c2.67-4.61,6.95-6.91,12.83-6.91,4.19-.13,8.24,1.49,11.19,4.47,2.94,2.98,4.41,7.13,4.41,12.46v23.41h-8.24v-22.18c0-3.55-.9-6.28-2.7-8.17-1.94-1.95-4.62-2.99-7.36-2.85-2.76-.14-5.44.9-7.4,2.85-1.82,1.9-2.73,4.62-2.73,8.17v22.18h-8.31V29.81h8.31Z" style="fill: #fff; fill-rule: evenodd;"/>
      <path d="M174.49,48.54c0-5.76-1.82-10.43-5.47-14.01-3.64-3.58-8.4-5.37-14.25-5.37-5.86,0-10.63,1.86-14.32,5.58-3.69,3.72-5.54,8.68-5.54,14.87,0,6.19,1.82,11.16,5.47,14.91,3.64,3.75,8.38,5.62,14.21,5.62,4.23.14,8.4-1.08,11.88-3.49,3.11-2.2,5.44-5.35,6.63-8.97h-8.97c-1.85,3.7-5.03,5.55-9.55,5.55-2.87.09-5.66-.96-7.76-2.92-2.13-2.08-3.34-4.91-3.39-7.89h30.76c.2-1.29.3-2.59.29-3.89ZM143.51,46.81c.15-2.96,1.41-5.75,3.54-7.81,2.08-1.95,4.84-3,7.69-2.92,2.88-.07,5.67.98,7.8,2.92,2.17,2.01,3.36,4.86,3.28,7.81h-22.31Z" style="fill: #fff; fill-rule: evenodd;"/>
      <path d="M113.17,25.63c-2.17-.1-4.31.56-6.05,1.87-1.6,1.34-2.46,3.36-2.33,5.44-.1,2.17.95,4.24,2.77,5.44,2.04,1.33,4.32,2.26,6.71,2.74,2.62.58,5.25,1.24,7.87,1.98,2.58.72,4.91,2.15,6.71,4.14,1.85,2.02,2.77,4.87,2.77,8.57,0,3.7-1.58,7.01-4.74,9.94-3.16,2.93-7.39,4.39-12.68,4.39s-9.6-1.22-12.9-3.67c-3.25-2.34-5.11-6.15-4.96-10.16h8.89c.1,2.01.99,3.9,2.48,5.26,1.46,1.3,3.6,1.94,6.41,1.94,2.41.14,4.79-.63,6.67-2.16,2.85-2.47,3.27-6.75.95-9.72-1.06-1.14-2.39-2-3.86-2.48-1.71-.59-3.45-1.08-5.21-1.48-1.9-.43-3.8-.94-5.72-1.51-1.83-.54-3.59-1.29-5.25-2.23-1.63-.96-2.96-2.34-3.86-4-1.05-1.98-1.57-4.2-1.49-6.45-.14-4.07,1.63-7.97,4.77-10.55,3.18-2.66,7.31-4,12.39-4,5.08,0,9.14,1.15,12.17,3.46,3.04,2.3,4.73,5.64,5.07,10.01h-9.19c-.17-1.87-1.06-3.6-2.48-4.83-1.66-1.37-3.76-2.06-5.9-1.94Z" style="fill: #fff; fill-rule: evenodd;"/>
    </g>
    <g>
      <path d="M483.71,64.47c-2.94,2.04-6.47,3.08-10.05,2.96-2.69.03-5.34-.57-7.75-1.75-2.4-1.21-4.4-3.1-5.75-5.43-1.57-2.77-2.36-5.92-2.29-9.1h34c.23-1.25.36-2.51.36-3.78.01-2.91-.73-5.78-2.15-8.32-1.48-2.65-3.68-4.82-6.33-6.28-3.04-1.66-6.47-2.48-9.94-2.39-3.46-.07-6.88.76-9.94,2.39-2.89,1.59-5.25,3.99-6.81,6.89-1.71,3.25-2.56,6.89-2.48,10.57-.09,3.7.76,7.36,2.48,10.64,1.56,2.91,3.92,5.3,6.81,6.89,3.05,1.64,6.48,2.46,9.94,2.39,5,0,9.11-1.26,12.34-3.78,3.18-2.45,5.31-6.03,5.93-10h-3.42c-.48,3.26-2.27,6.19-4.95,8.1ZM460.16,40.23c1.37-2.33,3.38-4.21,5.79-5.43,4.92-2.37,10.65-2.38,15.58-.04,2.4,1.19,4.38,3.08,5.68,5.43,1.48,2.77,2.11,5.91,1.82,9.03h-31.16c-.06-3.15.73-6.26,2.29-9Z" style="fill: #fff; fill-rule: evenodd;"/>
      <path d="M433.16,29.94c4.66,0,8.45,1.43,11.36,4.28s4.37,7.07,4.37,12.64v22.63h-3.28v-22.49c0-4.66-1.19-8.22-3.57-10.67s-5.63-3.68-9.76-3.68c-3.86-.17-7.61,1.33-10.3,4.11-2.6,2.74-3.9,6.77-3.9,12.1v20.63h-3.28V30.73h3.28v10.21c.78-3.33,2.76-6.26,5.57-8.21,2.81-1.88,6.12-2.85,9.5-2.78Z" style="fill: #fff; fill-rule: evenodd;"/>
      <path d="M405.37,31.16c-2.02-3.81-5.07-6.96-8.81-9.1-7.92-4.33-17.49-4.33-25.41,0-3.74,2.15-6.81,5.3-8.85,9.1-2.18,4.08-3.28,8.65-3.2,13.28-.08,4.63,1.02,9.2,3.2,13.28,2.04,3.81,5.11,6.97,8.85,9.14,7.9,4.38,17.51,4.38,25.41,0,3.73-2.16,6.79-5.33,8.81-9.14,2.16-4.09,3.25-8.66,3.17-13.28.08-4.62-1.01-9.19-3.17-13.28ZM402.39,56.44c-1.76,3.31-4.42,6.06-7.68,7.93-6.77,3.71-14.96,3.71-21.73,0-3.24-1.87-5.89-4.62-7.65-7.93-1.93-3.7-2.9-7.82-2.8-11.99-.09-4.17.87-8.3,2.8-11.99,1.75-3.31,4.4-6.05,7.64-7.93,6.77-3.71,14.96-3.71,21.73,0,3.26,1.86,5.92,4.61,7.68,7.93,1.93,3.7,2.9,7.82,2.8,11.99.09,4.17-.87,8.3-2.8,11.99Z" style="fill: #fff; fill-rule: evenodd;"/>
    </g>
    <g>
      <path d="M501.02,35.17l-.9-1.35h-.73v1.35h-.92v-4.21h1.92c.99,0,1.59.52,1.59,1.39h0c.03.6-.34,1.13-.9,1.32l1.03,1.5h-1.08ZM501.04,32.4c0-.4-.28-.6-.73-.6h-.92v1.21h.94c.45,0,.71-.24.71-.6h0Z" style="fill: #fff;"/>
      <path d="M500.07,37.49c-2.38,0-4.31-1.93-4.31-4.31,0-2.38,1.93-4.31,4.31-4.31s4.31,1.93,4.31,4.31h0c0,2.38-1.93,4.31-4.31,4.31ZM500.07,29.81c-1.86,0-3.37,1.51-3.37,3.37s1.51,3.37,3.37,3.37c1.86,0,3.37-1.51,3.37-3.37h0c0-1.86-1.51-3.37-3.37-3.37Z" style="fill: #fff;"/>
    </g>
  </g>
</svg>