<?xml version="1.0" encoding="UTF-8"?>
<svg id="uuid-411ef0b4-ab02-4865-abdd-e6622bc173c2" data-name="Capa 1" xmlns="http://www.w3.org/2000/svg" viewBox="0 0 454.19 74.08">
  <path id="uuid-98f74cb7-5ce4-4188-b034-55a2dd92218b" data-name="Shape" d="M269.15.55l-11.62,35.2-.27.82-.27-.82L245.22.68h-11.76l18.6,51.84h9.71l11.63-33.83.27-.68.27.68,11.76,33.83h9.57L314.01.68h-11.49l-11.76,35.06-.27.82-.27-.82L278.59.55h-9.44ZM110.23.68v51.98h5.33V13.37l34.33,39.29h1.23V.68h-5.2v39.84L111.32.68h-1.09ZM165.21.68v51.84h4.92V.68h-4.92ZM331.38.68l-14.09,37.52,28.31.13,5.47,14.05h10.26L341.36.68h-9.98ZM371.86.68v51.57h29.4v-9.41h-19.56V.68h-9.85ZM411.79.68v51.57h29.4v-9.41h-19.56V.68h-9.85ZM16.41.82C7.11.82,0,6.55,0,14.32v.14c0,7.78,4.92,11.87,17.1,14.33,11.35,2.32,13.54,5.32,13.54,9.96v.13c0,5.46-4.93,9.28-11.9,9.28s-11.76-2.05-17.37-7.23l-.41-.41-.14.14v5.86c5.33,4.09,10.94,5.87,17.64,5.87,9.98,0,16.82-5.73,16.82-13.92v-.14c.14-7.5-4.93-11.73-16.55-14.19-11.76-2.46-13.95-5.46-13.95-10.23v-.14c0-5.05,4.79-8.73,11.49-8.73,5.61,0,9.98,1.64,14.36,5.46l.41.41.14-.13v-5.73C26.67,2.05,22.15.82,16.41.82h0ZM70.84.95c-4.65,0-8.89,1.09-12.86,3.41-3.97,2.32-6.97,5.46-9.3,9.41-2.32,4.09-3.42,8.46-3.42,13.1,0,7.09,2.46,13.1,7.52,18.01,5.06,5.05,11.22,7.5,18.46,7.5s13.27-2.46,18.19-7.5c5.06-5.05,7.52-11.19,7.52-18.28s-2.46-13.37-7.52-18.28c-4.92-4.91-11.22-7.37-18.6-7.37ZM210.62.95c-7.66,0-13.95,2.46-19.01,7.37-5.06,4.91-7.52,10.91-7.52,18.14,0,6.82,2.05,12.69,6.29,17.47,4.92,5.73,11.76,8.59,20.38,8.59,4.51,0,8.62-.82,12.31-2.59,1.78-.82,3.56-2.32,5.06-3.55v-6.27c-4.65,5.18-10.26,7.77-17.1,7.77-6.29,0-11.49-2.05-15.59-6-4.1-3.96-6.16-9-6.16-15.01,0-3.96.96-7.5,2.74-10.64,1.78-3.14,4.38-5.73,7.79-7.64,3.28-1.91,6.97-2.87,10.94-2.87,3.56,0,6.84.68,9.85,2.18,2.87,1.36,5.33,3.41,7.39,6v-6.69c-1.5-1.23-3.15-2.73-4.92-3.55-3.69-1.77-7.79-2.73-12.44-2.73h0ZM70.98,5.59c3.69,0,7.25.96,10.39,3,3.28,1.91,5.88,4.37,7.66,7.5,1.78,3.14,2.74,6.69,2.74,10.51s-.96,7.5-2.74,10.64c-1.78,3.14-4.24,5.73-7.52,7.5-3.15,1.77-6.7,2.73-10.53,2.73-5.74,0-10.53-2.05-14.63-6-3.97-3.96-6.02-8.87-6.02-14.73,0-3.96.96-7.5,2.73-10.64,1.91-3.27,4.38-5.73,7.66-7.64,3.15-1.91,6.56-2.87,10.26-2.87ZM336.57,14.32l6.84,17.74h-13.81l6.97-17.74Z" style="fill: #646569;"/>
  <path id="uuid-c59cbb5e-c480-4da3-97ed-31a272d44937" data-name="path45" d="M332.61,74.08s-24.07-8.6-29.4-23.06c-5.88-16.1,16.14-19.78,38.57-19.1,12.17.41,26.94,2.18,26.94,2.18,0,0-35.01,4.5-47.73,14.6-12.17,9.96,11.62,25.38,11.62,25.38h0Z" style="fill: #f36e21;"/>
  <path id="uuid-9fce725f-c56d-42f5-b893-94a5c5348718" data-name="path53" d="M452.69,8.32c-.96.96-2.05,1.36-3.42,1.36s-2.6-.41-3.42-1.36-1.37-2.05-1.37-3.41.55-2.59,1.5-3.55c.96-.82,2.05-1.36,3.42-1.36s2.46.41,3.42,1.36c.96.96,1.37,2.05,1.37,3.41,0,1.5-.55,2.59-1.5,3.55h0ZM446.39,2.05c-.82.82-1.23,1.77-1.23,2.87s.41,2.05,1.23,2.87,1.78,1.23,2.87,1.23,2.05-.41,2.87-1.23c.82-.82,1.23-1.77,1.23-2.87s-.41-2.05-1.23-2.87c-.82-.82-1.78-1.23-2.87-1.23s-2.05.41-2.87,1.23ZM447.08,7.5V2.05h2.6c.41,0,.82.14,1.09.27.55.27.68.68.68,1.23,0,.41-.14.82-.41.96-.27.14-.55.27-.96.41.27.14.55.14.82.27.27.27.41.68.41,1.23v.96h-1.37c0-.14-.14-.41-.14-.68s0-.55-.14-.68c-.14-.14-.14-.27-.41-.41-.14,0-.27-.14-.55-.14h-.55v1.91h-1.09v.14ZM449.68,3.14c-.14-.14-.41-.14-.82-.14h-.41v1.64h.55c.27,0,.55,0,.82-.14.14-.14.27-.41.27-.68s-.14-.55-.41-.68h0Z" style="fill: #646569;"/>
</svg>