<?xml version="1.0" encoding="UTF-8"?>
<svg id="uuid-68d202db-91cf-471f-ab4f-62f3f8281866" data-name="Capa 1" xmlns="http://www.w3.org/2000/svg" viewBox="0 0 315.7 153.69">
  <g id="uuid-3e38a641-e9aa-4cd2-90a6-f329b1ed14ef" data-name="letters">
    <path id="uuid-e1cf31fc-6553-4b44-88ab-fa602741eb1c" data-name="letter-s" d="M0,148.36h2.99c.11.96.43,1.6.85,1.92.43.43,1.17.53,2.13.53,1.81,0,2.67-.75,2.67-2.13,0-.64-.21-1.17-.53-1.49s-.96-.53-1.71-.75l-1.6-.21c-2.99-.53-4.48-2.03-4.48-4.59,0-1.49.53-2.77,1.49-3.63,1.07-.85,2.35-1.39,4.05-1.39,1.6,0,2.88.43,3.84,1.28s1.49,2.13,1.6,3.63h-2.99c0-.85-.32-1.39-.75-1.71s-1.07-.53-1.81-.53c-.85,0-1.39.21-1.81.53s-.64.85-.64,1.6c0,.53.21,1.07.53,1.39s.96.53,1.71.75l1.71.32c2.88.53,4.27,2.03,4.27,4.69,0,1.71-.53,2.99-1.6,3.84s-2.45,1.28-4.27,1.28-3.2-.43-4.16-1.28C.64,151.35.11,150.07,0,148.36h0Z"/>
    <path id="uuid-3c69e080-4b87-4a01-a17e-0e03bdb83e4e" data-name="letter-t" d="M26.13,139.61v13.87h-3.2v-13.87h-4.27v-2.77h11.63v2.77h-4.16Z"/>
    <path id="uuid-6bc66f72-9da9-464b-a274-b7b97b2a4dd7" data-name="letter-a" d="M39.36,150.17l-.96,3.2h-3.31l5.87-16.53h2.56l5.87,16.53h-3.31l-.96-3.2h-5.76ZM42.24,141.21l-2.03,6.4h4.05l-2.03-6.4Z"/>
    <path id="uuid-7d6debda-1889-4e96-be10-99d5f7a8a634" data-name="letter-r" d="M60.05,146.76v6.72h-3.09v-16.53h6.29c1.6,0,2.88.43,3.84,1.28s1.49,2.13,1.49,3.63c0,1.07-.21,2.03-.75,2.77s-1.28,1.28-2.13,1.71l3.63,7.25h-3.63l-3.09-6.72h-2.56v-.11ZM63.03,144.09c.75,0,1.28-.21,1.71-.64s.64-.96.64-1.71c0-.64-.21-1.17-.64-1.6s-.96-.64-1.71-.64h-2.99v4.48h2.99v.11Z"/>
    <path id="uuid-10da3910-8b7b-4846-9432-66534ab1ffa4" data-name="letter-l" d="M80.21,136.84v13.87h7.25v2.77h-10.35v-16.53h3.09v-.11Z"/>
    <path id="uuid-92d71b5e-c481-4f84-aa78-2d9a49808400" data-name="letter-i" d="M98.76,136.84v16.64h-3.09v-16.53h3.09v-.11Z"/>
    <path id="uuid-f6b63258-d881-4449-865c-86eb00880648" data-name="letter-n" d="M120.2,153.48h-3.09l-6.08-10.35v10.35h-3.31v-16.53h3.09l6.08,10.35v-10.35h3.09v16.53h.21Z"/>
    <path id="uuid-b56a3e53-f9c0-44b3-9c8a-6ed10f4ec2a5" data-name="letter-k" d="M132.15,148.79v4.59h-3.09v-16.53h3.09v7.68l5.76-7.68h3.73l-5.33,6.61,5.76,9.92h-3.63l-4.05-7.36-2.24,2.77Z"/>
  </g>
  <path id="uuid-e8c629fa-1ab8-40e4-bbb1-a64b06d7c320" data-name="path17" d="M4.69,116.36l-4.16,4.05h36.8C136.52,20.8,279.33,3.09,315.7.11v-.11C117.22,11.41,25.49,96.31,4.69,116.36"/>
  <path id="uuid-4eee8149-dac4-465f-a774-e415b0346238" data-name="path20" d="M105.8,120.42h36.37l-50.34-37.12c-6.08,4.16-12.37,8.85-18.34,13.55l32.32,23.57Z"/>
  <path id="uuid-53e73056-7ae4-4302-bc94-7fdf952f029a" data-name="path22" d="M39.36,44.26H2.99l42.66,31.25c6.19-4.16,13.33-8.64,19.94-12.48l-26.24-18.77Z"/>
</svg>