<?xml version="1.0" encoding="UTF-8"?>
<svg id="uuid-5ebc336b-e342-443c-a955-2e9cfcde3df5" data-name="Capa 1" xmlns="http://www.w3.org/2000/svg" viewBox="0 0 450.39 62.53">
  <path d="M426.76,62.46h-12.64c-3.91-.32-7.67-1.38-11.14-2.87-7.07-3.03-10.94-9.35-11.41-16.83-.4-6.27,2.4-11.62,8.38-14.23,10.54-4.59,22.2-2.48,33.38-.29v6.37s-23.56.02-23.56.02c-2.6,0-4.67,1.8-5.26,4.27-1.28,5.38.25,11.88,5.6,12.65,5.72.82,11.53,1.05,17.25.35,4.9-.6,8.43-3.62,9.46-8.45,1.92-8.99,2.8-27.14-6.01-31.19-8.83-4.06-26.37-.52-36.68,1.56l.07-7.21c2.02-2.46,4.54-3.41,7.48-4.5,10.27-2.39,21.03-2.76,31.35-.35,7.72,1.8,13.36,7.13,15.38,14.81,2.13,8.09,2.6,16.78,1.09,25.03-2.23,12.14-10.72,19.77-22.74,20.87Z" style="fill: #a42246;"/>
  <path d="M26.36,62.53h-7.01c-4.71-.44-9.26-1.25-13.72-2.87-2.09-.88-3.9-1.86-5.57-3.44v-8.49c10.78,4.77,22.32,6.17,33.85,4.12,3.33-.59,5.35-3.45,5.43-6.6.05-2.02.17-4.38-1.34-5.89-1.62-1.61-4.16-2.4-6.43-2.72l-13.34-1.9c-3.79-.54-7.37-1.55-10.74-3.14C2.37,29.02-.53,24.11.08,18.42-.45,10.46,4.4,3.86,12.28,1.74c10.75-2.89,26.74-2.35,36.48,3.55l-.04,7.95c-10.66-3.01-21.44-3.87-32.05-2.41-3.36.46-4.86,3.02-5.1,5.98-.26,3.23,1.33,5.82,4.79,6.31l18.56,2.59c4.38.61,8.48,2.17,11.78,4.98,3.95,3.36,4.93,8.32,4.83,13.29-.15,7.33-3.92,13.3-10.86,15.93-4.62,1.75-9.48,2.29-14.33,2.63Z" style="fill: #a42246;"/>
  <path d="M351.94,12.27c-2.9,1.64-4.4,5.18-4.41,8.44l-.13,40.84h-11.01s-.09-40.49-.09-40.49c0-3.04-.99-6.5-3.57-8.17-4.28-2.76-10.32-2.92-14.84-.6-2.81,1.44-4.37,4.83-4.38,8.07l-.11,41.2h-10.71s0-39.94,0-39.94c.55-10.86,5.2-19.2,16.54-20.36l11.17.09c4.35.04,8.35,2.14,11.48,5.13,3.01-3.06,7.07-5.2,11.54-5.21l11.26-.03c11.73,1.56,16.35,10.31,16.45,21.64v38.67s-10.78,0-10.78,0l-.1-40.49c0-3.29-1.43-6.78-4.2-8.49-4.06-2.51-9.78-2.74-14.1-.3Z" style="fill: #a42246;"/>
  <path d="M255.74,10.62c-4.82.58-8.27,3.66-9.35,8.31-1.75,7.52-1.83,15.58-.17,23.1,1.19,5.41,5.06,9.01,10.52,9.64,10.92,1.26,21.69.08,32.3-2.97l-.22,7.09c-.05,1.75-2.58,2.46-3.95,3.28-6.86,2.75-14.07,3.33-21.45,3.31-5.05-.01-9.69-.27-14.5-1.75-7.33-2.26-12.58-7.76-14.43-15.41-2.2-9.09-2.17-18.89.05-28,1.87-7.68,7.21-13.3,14.87-15.31,8.92-2.34,18.56-2.58,27.39-.46s14.3,9.26,14.79,18.24c.33,6.07-1.86,11.46-7.67,14.17-9.68,4.53-22.84,2.66-33.77,1.67v-7.64s23.29-.08,23.29-.08c3.11-.01,5.41-2.33,5.64-5.23.46-5.92-.67-10.95-6.79-11.83-5.42-.79-10.9-.81-16.55-.13Z" style="fill: #a42246;"/>
  <path d="M170.96,15.82c-2.57-6.81-15.41-6.09-22.53-5.15-9,1.19-9.97,10.17-10.28,18.32v32.55s-12.14.01-12.14.01l.04-33.32c0-4.3.71-8.29,1.91-12.3,2.04-6.82,7-11.95,14.02-13.89,8.07-2.23,16.75-2.72,24.96-1.06,14.2,2.87,20.1,16.03,16.77,29.09-2.29,8.96-10.91,12.59-19.84,12.78-6.94.15-13.69-.37-20.65-1.13v-7.74s22.77-.07,22.77-.07c5.5-.02,7.83-10.51,4.96-18.09Z" style="fill: #a42246;"/>
  <path d="M113.56,2.77v39.31c-.18,10.17-5.01,19.57-15.67,20.07-6.73.32-13.48.29-20.22.01-10.77-.44-15.96-10.19-16.46-20.41V2.77s11.23,0,11.23,0l.21,39.83c.03,4.94,3.67,8.45,8.26,8.42l13.65-.1c4.52-.03,7.56-3.53,7.57-8.07l.09-40.09h11.34Z" style="fill: #a42246;"/>
  <path d="M206.29,20.53v41.02s-11.91,0-11.91,0V20.48c.44-10.6,5.46-19.2,16.57-20.24,5.89-.55,11.79.54,17.87,1.05v9.69s-15.21.09-15.21.09c-2.18.45-4.38.81-5.62,2.74s-1.41,4.16-1.7,6.72Z" style="fill: #a42246;"/>
</svg>