<?xml version="1.0" encoding="UTF-8"?>
<svg id="Capa_1" xmlns="http://www.w3.org/2000/svg" version="1.1" viewBox="0 0 246.9 74.1">
  <!-- Generator: Adobe Illustrator 30.6.0, SVG Export Plug-In . SVG Version: 2.1.4 Build 109)  -->
  <defs>
    <style>
      .st0 {
        fill: #00d15f;
      }
    </style>
  </defs>
  <g id="Layer_1">
    <path class="st0" d="M112.1,24.9c-5.5,0-9.6,3.6-10.7,9.1h20.5c-.5-4.9-4.4-9.1-9.8-9.1ZM112.1,24.9c-5.5,0-9.6,3.6-10.7,9.1h20.5c-.5-4.9-4.4-9.1-9.8-9.1ZM112.1,24.9c-5.5,0-9.6,3.6-10.7,9.1h20.5c-.5-4.9-4.4-9.1-9.8-9.1ZM112.1,24.9c-5.5,0-9.6,3.6-10.7,9.1h20.5c-.5-4.9-4.4-9.1-9.8-9.1ZM112.1,24.9c-5.5,0-9.6,3.6-10.7,9.1h20.5c-.5-4.9-4.4-9.1-9.8-9.1ZM112.1,24.9c-5.5,0-9.6,3.6-10.7,9.1h20.5c-.5-4.9-4.4-9.1-9.8-9.1ZM112.1,24.9c-5.5,0-9.6,3.6-10.7,9.1h20.5c-.5-4.9-4.4-9.1-9.8-9.1Z"/>
    <path class="st0" d="M21,0C18.7,0,16.7.8,15.1,2.5L2.5,15C.9,16.6,0,18.7,0,20.9v53.2h226.1c2.2,0,4.3-.9,5.9-2.5l12.4-12.4c1.5-1.5,2.5-3.7,2.5-5.9V0H21ZM34.6,54.9L17.6,19.3h7.7s12.2,25.6,12.5,26.8h.2c.3-1.3,12.5-26.8,12.5-26.8h7.6l-17.1,35.6h-6.4ZM91.1,39.8h-27.6c1,5.8,5.2,9.4,10.7,9.4s7.5-1.8,9-5h7.2c-2.2,6.8-8.3,11.4-16.1,11.4s-13.8-4.1-16.5-10.7c-1-2.4-1.5-5-1.5-7.9,0-11,7.5-18.6,18-18.6s5.6.8,8,2.1c5.4,3,9.1,9.1,9.1,16.5s0,1.7-.1,2.8ZM129,39.8h-27.6c1,5.8,5.2,9.4,10.7,9.4s7.5-1.8,9-5h7.2c-2.2,6.8-8.3,11.4-16.1,11.4s-18-7.6-18-18.6,7.5-18.6,18-18.6,17,8,17,18.6,0,1.7-.2,2.8ZM167.8,54.9h-6.2l-.6-5.6c-2.7,4.1-7.6,6.3-11.9,6.3s-10.1-2.4-13.2-6.4c-2.5-3.2-3.9-7.4-3.9-12.2,0-10.6,7.9-18.6,18.1-18.6,4.5,0,8.8,1.6,12.1,4.6,3.4,3.1,5.7,7.9,5.7,14v17.8ZM224.8,54.9h-6.9v-20.5c0-5.8-2.6-9.3-7.9-9.3s-7.9,3.5-7.9,9.4v20.4h-7v-20.4c0-5.9-2.6-9.4-7.9-9.4s-7.9,3.5-7.9,9.3v20.5h-6.9v-21.1c0-8.9,5.7-15.3,14.6-15.3s11,4.8,11.5,6.5h.2c.5-1.7,4.3-6.5,11.5-6.5s14.6,6.4,14.6,15.3v21.1Z"/>
    <path class="st0" d="M84,34h-20.5c1.1-5.6,5.2-9.2,10.7-9.1,1.1,0,2.1.2,3.1.5,3.8,1.3,6.3,4.7,6.7,8.6Z"/>
    <path class="st0" d="M121.9,34h-20.5c1.1-5.6,5.2-9.2,10.7-9.1,5.4,0,9.3,4.2,9.8,9.1Z"/>
    <path class="st0" d="M160.7,37c0,7.6-5.2,12.2-10.7,12.2s-7.2-1.8-9.2-4.9c-1.2-1.9-1.9-4.4-1.9-7.2,0-7.3,4.9-12.2,11-12.2s5.3,1,7.3,3c2.1,2.1,3.4,5.2,3.4,9.2Z"/>
  </g>
</svg>