<?xml version="1.0" encoding="UTF-8"?>
<svg id="uuid-5b294036-0c90-41ea-944b-afaa22215f11" data-name="Capa 1" xmlns="http://www.w3.org/2000/svg" viewBox="0 0 246.86 74.08">
  <g id="uuid-782a046e-cb05-4ccc-9d3e-1d3af2c15811" data-name="Layer 1">
    <path d="M2.47,15.05c-1.54,1.54-2.47,3.7-2.47,5.86v53.17h226.1c2.24,0,4.32-.85,5.86-2.47l12.42-12.42c1.54-1.54,2.47-3.7,2.47-5.86V0H20.99c-2.24,0-4.32.85-5.86,2.47L2.47,15.05Z" style="fill: #00d15f;"/>
    <path d="M185.21,0l-58.42,58.34c-10.11,10.11-23.77,15.74-38.04,15.74H.08V27.09H.08l29.94,29.86c4.32,4.32,11.34,4.32,15.74,0L102.79,0h82.42Z" style="fill: #40dc87;"/>
    <g>
      <path d="M34.65,54.87L17.59,19.29h7.72s12.19,25.54,12.5,26.78h.15c.31-1.31,12.5-26.78,12.5-26.78h7.64l-17.05,35.65-6.41-.08h0Z" style="fill: #fff;"/>
      <path d="M91.14,39.82h-27.63c1,5.79,5.25,9.41,10.73,9.41,4.48,0,7.49-1.77,8.95-5.02h7.18c-2.16,6.79-8.26,11.42-16.13,11.42-10.34,0-17.98-7.56-17.98-18.6s7.49-18.6,17.98-18.6c9.34,0,17.05,8.03,17.05,18.6,0,1.08,0,1.7-.15,2.78ZM63.59,34.03h20.45c-.46-4.86-4.4-9.11-9.8-9.11-5.48-.08-9.57,3.55-10.65,9.11Z" style="fill: #fff;"/>
      <path d="M129.03,39.82h-27.63c1,5.79,5.25,9.41,10.73,9.41,4.48,0,7.49-1.77,8.95-5.02h7.18c-2.16,6.79-8.26,11.42-16.13,11.42-10.34,0-17.98-7.56-17.98-18.6s7.49-18.6,17.98-18.6c9.34,0,17.05,8.03,17.05,18.6,0,1.08,0,1.7-.15,2.78ZM101.48,34.03h20.45c-.46-4.86-4.4-9.11-9.8-9.11-5.48-.08-9.57,3.55-10.65,9.11Z" style="fill: #fff;"/>
      <path d="M167.77,37.04v17.83h-6.17l-.62-5.56c-2.7,4.09-7.56,6.33-11.88,6.33-9.72,0-17.13-7.79-17.13-18.6s7.95-18.6,18.06-18.6c9.34.08,17.75,6.71,17.75,18.6ZM160.74,37.04c0-7.87-5.17-12.19-10.73-12.19-6.1,0-11.04,4.86-11.04,12.19s4.55,12.19,11.04,12.19c5.48,0,10.73-4.55,10.73-12.19Z" style="fill: #fff;"/>
      <path d="M172.47,54.87v-21.07c0-8.87,5.71-15.28,14.58-15.28,7.18,0,10.96,4.78,11.5,6.48h.15c.54-1.7,4.32-6.48,11.5-6.48,8.87,0,14.58,6.41,14.58,15.28v21.07h-6.95v-20.53c0-5.79-2.62-9.26-7.87-9.26s-7.87,3.47-7.87,9.41v20.45h-7.02v-20.45c0-5.94-2.62-9.41-7.87-9.41s-7.87,3.47-7.87,9.26v20.53h-6.87Z" style="fill: #fff;"/>
    </g>
  </g>
</svg>