<?xml version="1.0" encoding="UTF-8"?>
<svg id="uuid-2ac0ac95-7a5d-420e-b26a-bc98246eb22e" data-name="Capa 1" xmlns="http://www.w3.org/2000/svg" viewBox="0 0 327.91 74.08">
  <polygon points="319.68 3.81 320.72 3.81 320.72 6.59 321.37 6.59 321.37 3.81 322.41 3.81 322.41 3.29 319.68 3.29 319.68 3.81" style="fill: #001423;"/>
  <path d="M325.27,3.29l-.52,1.82c-.04.09-.04.17-.04.26s-.04.17-.04.22c0,.09-.04.13-.04.17h-.04s-.04-.13-.04-.17c0-.09-.04-.13-.04-.22s-.04-.17-.04-.22l-.52-1.86h-1v3.29h.61v-2.69h.04c0,.09.04.17.09.26s.04.22.09.3.04.17.09.26l.56,1.91h.56l.56-1.91c.04-.09.04-.17.09-.3.04-.13.04-.22.09-.3s.04-.17.04-.17h.04v2.69h.61v-3.34h-1.13Z" style="fill: #001423;"/>
  <path d="M68.75,28.25c-.65,1.65-2.12,1.86-2.73,1.86h0c-.61,0-2.08-.22-2.73-1.91l-7.97-20.75C53.59,2.99,49.39.09,44.62.09s-8.97,2.9-10.7,7.36l-7.97,20.75c-.65,1.69-2.12,1.91-2.73,1.91h0c-.61,0-2.08-.17-2.73-1.86L9.18.04H0l12.56,31.37c1.78,4.38,5.94,7.19,10.66,7.19h.09c4.77-.04,8.92-2.9,10.61-7.36l7.97-20.75c.65-1.69,2.12-1.91,2.77-1.91.61,0,2.08.17,2.77,1.91l7.97,20.75c1.69,4.42,5.89,7.32,10.61,7.36h.09c4.72,0,8.88-2.82,10.66-7.19L89.33.04h-9.18l-11.39,28.2Z" style="fill: #001423;"/>
  <polygon points="116.5 38.34 125.68 38.34 141.02 0 131.83 0 116.5 38.34" style="fill: #001423;"/>
  <polygon points="171.86 8.53 171.86 8.53 193.18 8.53 193.18 38.34 201.71 38.34 201.71 8.53 222.98 8.53 222.98 0 175.28 0 171.86 8.53" style="fill: #001423;"/>
  <polygon points="265.61 23.18 265.61 23.18 299.66 23.18 299.66 23.18 299.66 38.34 308.2 38.34 308.2 23.18 308.2 14.64 308.2 0 299.66 0 299.66 14.64 265.61 14.64 265.61 0 257.08 0 257.08 14.64 257.08 23.18 257.08 38.34 265.61 38.34 265.61 23.18" style="fill: #001423;"/>
  <path d="M322.97,0c-2.73,0-4.94,2.21-4.94,4.94s2.21,4.94,4.94,4.94,4.94-2.21,4.94-4.94-2.21-4.94-4.94-4.94ZM322.97,9.18c-2.34,0-4.2-1.91-4.2-4.2s1.91-4.2,4.2-4.2,4.2,1.91,4.2,4.2-1.86,4.2-4.2,4.2Z" style="fill: #001423;"/>
  <path d="M193.31,65.24c-.3-.04-2.64-.39-3.03-.43-2.38-.39-2.99-.82-2.99-1.78s.87-1.65,3.6-1.65c2.51,0,3.55.56,3.86,1.17.13.26.13.87.13,1h2.73c0-.3-.04-1.17-.22-1.73-.65-1.95-2.73-2.86-6.41-2.86-4.42,0-6.41,1.73-6.41,4.07,0,2.47,1.3,3.64,4.46,4.12.43.09,2.56.43,2.9.48,2.43.39,3.47.78,3.47,1.99s-.95,1.86-3.77,1.86c-2.6,0-4.03-.3-4.29-1.3-.09-.39-.09-.69-.09-.95h-2.77c0,.48.04.87.13,1.47.52,2.21,2.64,3.03,7.02,3.03,4.68,0,6.54-1.56,6.54-4.38-.04-2.47-1.43-3.6-4.85-4.12Z" style="fill: #001423;"/>
  <path d="M214.06,59.01c-2.73,0-4.77,1.04-6.02,2.64-.95,1.21-1.47,2.73-1.47,4.72s.48,3.64,1.43,4.85c1.43,1.86,3.51,2.64,6.15,2.64,2.25,0,3.94-.52,5.07-1.34,1.34-1,2.12-2.38,2.12-3.34h-2.73c0,.35-.3,1.04-1.13,1.6-.69.43-1.82.74-3.29.74s-2.82-.48-3.64-1.26c-.74-.74-1.17-1.65-1.21-2.77l12.09.04c.22-2.17-.17-4.46-1.26-5.85-1.21-1.65-3.16-2.69-6.11-2.69ZM209.34,65.33c.09-1.13.43-2.04,1.17-2.64.78-.74,1.91-1.26,3.55-1.26,1.73,0,2.86.52,3.64,1.26.69.69.91,1.6.91,2.69l-9.27-.04Z" style="fill: #001423;"/>
  <path d="M237.11,61.56c1.78,0,2.99.52,3.68,1.26.48.52.69,1.43.69,1.91h2.73c0-.61-.09-1.82-.69-2.73-1.17-1.86-3.03-2.95-6.2-2.95-2.64,0-4.51.69-5.89,2.04-1.21,1.21-1.91,2.99-1.95,5.37,0,2.64.74,4.46,2.12,5.68,1.3,1.17,3.03,1.73,5.42,1.73,2.6,0,4.42-.69,5.5-1.73,1.08-1,1.6-2.38,1.65-3.64h-2.69c-.04.56-.3,1.26-.82,1.78-.69.65-1.78,1.17-3.51,1.17s-2.82-.39-3.6-1.17c-.87-.82-1.21-2.08-1.21-3.81,0-1.56.35-2.9,1.17-3.68.87-.78,1.95-1.21,3.6-1.21Z" style="fill: #001423;"/>
  <path d="M266.44,71.31l.04-11.87h-2.82v9.1c0,1.82-1.6,2.99-3.77,2.99-2.38,0-3.81-.91-3.81-3.21,0-8.79,0-8.88-.04-8.88h-2.82s.04.74.04,9.7c0,3.08,2.17,4.81,5.46,4.81,1.99,0,4.07-.48,5.03-2.04l.09,1.82h2.69c-.13-.04-.13-.3-.09-2.43Z" style="fill: #001423;"/>
  <path d="M279.09,61.95v-2.43h-2.77l-.04,14.25h2.82v-7.49c0-2.73,1.91-4.33,4.29-4.33,1.3,0,2.3.13,3.16.43v-2.86c-.61-.17-1.39-.3-2.69-.3-2.17-.04-4.33,1.13-4.77,2.73Z" style="fill: #001423;"/>
  <path d="M301.18,59.22c-2.73,0-4.77,1.04-6.02,2.64-.95,1.21-1.47,2.73-1.47,4.72s.48,3.64,1.43,4.85c1.43,1.86,3.51,2.64,6.15,2.64,2.25,0,3.94-.52,5.07-1.34,1.34-1,2.12-2.38,2.12-3.34h-2.73c0,.35-.3,1.04-1.13,1.6-.69.43-1.82.74-3.29.74s-2.82-.48-3.64-1.26c-.74-.74-1.17-1.65-1.21-2.77l12.09.04c.22-2.17-.17-4.46-1.26-5.85-1.21-1.65-3.16-2.69-6.11-2.69ZM296.46,65.5c.09-1.13.43-2.04,1.17-2.64.78-.74,1.91-1.26,3.55-1.21,1.73,0,2.86.52,3.64,1.26.69.69.91,1.56.91,2.69l-9.27-.09Z" style="fill: #001423;"/>
</svg>