<?xml version="1.0" encoding="UTF-8"?>
<svg id="uuid-cbf51f1e-fe30-459c-9887-cf57dc20c2c7" data-name="Capa 1" xmlns="http://www.w3.org/2000/svg" viewBox="0 0 320.5 74.08">
  <path d="M97.09,31.28c2.03-1.12,3.72-2.72,5.52-4.14,11.11-8.72,22.19-17.48,33.29-26.22.57-.45,1.07-.91,1.91-.9,7.69.06,15.37.06,23.06.08-2.05,1.56-4.1,3.13-6.15,4.69-3.84,2.93-7.86,5.6-11.56,8.71-6.78,4.99-13.54,10-20.36,14.93-1.04.75-.6,1.39-.27,2.15,6.04,14.04,12.07,28.07,18.11,42.11.15.36.3.72.47,1.12-.5.36-1.01.22-1.48.22-5.99,0-11.99-.02-17.98.03-1.17,0-1.76-.28-2.21-1.47-3.91-10.28-7.93-20.52-11.85-30.79-.47-1.24-.74-1.46-1.86-.55-4.31,3.48-8.69,6.86-13.07,10.25-.81.62-1.23,1.33-1.45,2.35-1.38,6.28-2.86,12.54-4.24,18.82-.22,1-.51,1.39-1.62,1.39-28.04-.03-56.09-.03-84.13,0-1.07,0-1.38-.27-1.18-1.33.72-3.94,1.39-7.89,2.04-11.85.14-.84.78-1.23,1.29-1.71,14.96-13.94,29.93-27.87,44.89-41.81,1.32-1.23,2.62-2.47,4-3.78-.6-.48-1.23-.26-1.8-.26-11.08-.02-22.16-.04-33.24.02-1.46,0-1.83-.31-1.52-1.77.73-3.42,1.35-6.86,1.94-10.31.17-.97.54-1.27,1.53-1.27,19.22.03,38.45.03,57.67,0,1.11,0,1.35.28,1.11,1.34-.74,3.25-1.42,6.51-2.08,9.77-.19.93-.62,1.6-1.33,2.25-16.84,15.41-33.65,30.84-50.46,46.27-.32.3-.62.63-.94.96.31.55.82.31,1.22.31,15.77-.02,31.54-.07,47.32-.07,1.14,0,1.48-.37,1.73-1.46,4.35-19.26,8.76-38.51,13.12-57.76.26-1.15.63-1.64,1.95-1.62,4.75.1,9.5.1,14.25,0,1.49-.03,1.6.37,1.26,1.71-2.3,9.25-4.51,18.52-6.75,27.79-.13.54-.19,1.11-.27,1.66-.06.08-.13.16-.18.25,0,.01.07.08.11.12.06-.08.12-.17.17-.25Z" style="fill: #4f4a4a; fill-rule: evenodd;"/>
  <path d="M143.17,13.5c3.7-3.11,7.72-5.79,11.56-8.71,2.05-1.56,4.1-3.13,6.15-4.69,21.53,0,43.05,0,64.83,0-1.38,4.37-2.73,8.59-4.06,12.82-.31.98-1.1.62-1.7.62-6.95.02-13.9.05-20.85-.02-1.24-.01-1.73.37-2.08,1.56-5.69,19.13-11.45,38.24-17.13,57.37-.38,1.26-.9,1.65-2.2,1.62-4.35-.09-8.7-.08-13.05,0-1.34.02-1.61-.27-1.22-1.6,5.32-18.36,10.59-36.73,15.88-55.1,1.12-3.91,1.14-3.91-2.89-3.9-11.07.01-22.15.02-33.22.04Z" style="fill: #7db628; fill-rule: evenodd;"/>
  <path d="M309.82,44.83h-24.66c1.03-6.25,3.28-8.73,9.32-9.21,6.86-.54,13.78-.54,20.65.04,4.35.37,6.02,2.49,5.14,6.74-1.65,8.01-3.48,15.98-5.47,23.92-1,3.99-4.05,6.12-8.85,6.25-6.49.18-13,.08-19.5.02-1.1-.01-2.24-.35-3.29-.71-1.93-.66-2.82-2.07-2.92-4.12-.09-1.96.51-3.79.92-5.66.84-3.8,1.72-7.59,2.53-11.4.22-1.04.61-1.5,1.77-1.44,2.31.11,4.64.11,6.95,0,1.43-.07,1.6.47,1.31,1.68-.85,3.56-1.6,7.16-2.48,10.71-.31,1.26-.1,1.69,1.29,1.67,3.95-.08,7.91-.04,11.87-.02.75,0,1.26-.07,1.46-.97,1.28-5.78,2.6-11.55,3.95-17.5Z" style="fill: #7db628; fill-rule: evenodd;"/>
  <path d="M219.77,72.69c-5.26,0-10.51-.03-15.77.02-1.24.01-1.49-.24-1.19-1.5,1.62-6.86,3.17-13.74,4.66-20.63.23-1.06.66-1.33,1.68-1.32,7.29.04,14.58.06,21.87-.01,1.44-.01,1.59.5,1.29,1.68-.55,2.19-1.11,4.38-1.51,6.6-.19,1.04-.65,1.23-1.58,1.22-4.01-.04-8.03.03-12.04-.05-1.2-.03-1.64.34-1.88,1.51-.64,3.08-.71,3.07,2.51,3.07,6.61,0,13.23.03,19.84-.03,1.38-.01,1.79.28,1.38,1.71-.6,2.11-1.08,4.27-1.45,6.43-.19,1.12-.71,1.32-1.7,1.31-5.37-.04-10.74-.02-16.11-.02Z" style="fill: #7db628; fill-rule: evenodd;"/>
  <path d="M278.56,58.9c-.62,2.48-1.16,5.01-1.88,7.5-1.25,4.35-4.67,6.02-8.75,6.16-6.54.21-13.09.08-19.64.03-.94,0-1.9-.27-2.81-.56-2.47-.79-3.73-2.45-3.38-4.97.81-5.75,2.48-11.33,3.63-17.02.1-.51.4-.76.95-.75,2.77.01,5.53.02,8.3,0,1.07,0,.82.58.67,1.22-.88,3.85-1.7,7.71-2.62,11.54-.25,1.03,0,1.27.99,1.26,4.12-.04,8.24-.04,12.36,0,.94,0,1.21-.38,1.41-1.24.79-3.39.83-3.39,4.39-3.38,1.98,0,3.95.02,5.93.04.1,0,.21.08.44.19Z" style="fill: #7db628; fill-rule: evenodd;"/>
  <path d="M259.27,44.82c-3.67,0-7.34-.03-11.01.02-1.05.01-1.35-.16-1.06-1.31,1.34-5.3,3.49-7.48,8.93-7.9,6.97-.53,13.99-.56,20.96.03,4.26.36,5.84,2.64,5.11,6.83-.35,2-.88,3.96-1.3,5.94-.13.63-.38,1-1.11.99-2.71-.02-5.42-.02-8.13,0-.77,0-.98-.27-.82-1.02.25-1.14,1.15-2.65.48-3.36-.73-.76-2.36-.22-3.59-.23-2.82-.03-5.65-.01-8.47-.01Z" style="fill: #7eb728; fill-rule: evenodd;"/>
  <path d="M226.28,44.82c-5.31,0-10.62-.03-15.93.02-1.21.01-1.59-.26-1.25-1.52.6-2.23,1.12-4.49,1.56-6.76.18-.89.51-1.22,1.43-1.22,10.79.03,21.58.03,32.38,0,1.01,0,1.24.22.97,1.25-.6,2.29-1.08,4.61-1.53,6.94-.2,1.02-.66,1.31-1.69,1.3-5.31-.06-10.62-.02-15.93-.02Z" style="fill: #7eb728; fill-rule: evenodd;"/>
  <path d="M97.09,31.28c-.06.08-.12.17-.17.25-.04-.04-.12-.1-.11-.12.05-.09.12-.16.18-.25,0,0,.11.11.11.11Z" style="fill: #fff; fill-rule: evenodd;"/>
</svg>