<svg width="545" height="126" viewBox="0 0 545 126" fill="none" xmlns="http://www.w3.org/2000/svg">
<path d="M-8 32C0 32 4 68 12 68C20 68 24 56 32 56C40 56 44 96 52 96C60 96 64 64 72 64C80 64 84 48 92 48C100 48 104 44 112 44C120 44 124 64 132 64C140 64 144 76 152 76C160 76 164 64 172 64C180 64 184 88 192 88C200 88 204 64 212 64C220 64 224 48 232 48C240 48 244 64 252 64C260 64 264 44 272 44C280 44 284 36 292 36C300 36 304 76 312 76C320 76 324 48 332 48C340 48 344 28 352 28C360 28 364 40 372 40C380 40 384 64 392 64C400 64 404 80 412 80C420 80 424 64 432 64C440 64 444 20 452 20C460 20 464 64 472 64C480 64 484 60 492 60C500 60 504 52 512 52C520 52 524 64 532 64C540 64 544 40 552 40C560 40 564 12 572 12" stroke="#F3E4EF" stroke-width="2" stroke-linecap="round" stroke-linejoin="round"/>
</svg>
