<svg width="545" height="126" viewBox="0 0 545 126" fill="none" xmlns="http://www.w3.org/2000/svg">
<rect width="545" height="126" fill="#232323"/>
<g id="Servicios">
<path d="M-2950 -1644C-2950 -1645.1 -2949.1 -1646 -2948 -1646H27177C27178.1 -1646 27179 -1645.1 27179 -1644V7964C27179 7965.1 27178.1 7966 27177 7966H-2948C-2949.1 7966 -2950 7965.1 -2950 7964V-1644Z" fill="#444444"/>
<path d="M-2948 -1646V-1645H27177V-1646V-1647H-2948V-1646ZM27179 -1644H27178V7964H27179H27180V-1644H27179ZM27177 7966V7965H-2948V7966V7967H27177V7966ZM-2950 7964H-2949V-1644H-2950H-2951V7964H-2950ZM-2948 7966V7965C-2948.55 7965 -2949 7964.55 -2949 7964H-2950H-2951C-2951 7965.66 -2949.66 7967 -2948 7967V7966ZM27179 7964H27178C27178 7964.55 27177.6 7965 27177 7965V7966V7967C27178.7 7967 27180 7965.66 27180 7964H27179ZM27177 -1646V-1645C27177.6 -1645 27178 -1644.55 27178 -1644H27179H27180C27180 -1645.66 27178.7 -1647 27177 -1647V-1646ZM-2948 -1646V-1647C-2949.66 -1647 -2951 -1645.66 -2951 -1644H-2950H-2949C-2949 -1644.55 -2948.55 -1645 -2948 -1645V-1646Z" fill="white" fill-opacity="0.1"/>
<g id="Conectividad empresarial">
<rect width="1440" height="7272" transform="translate(-173 -1491)" fill="#080618"/>
<g id="Frame 1707483931">
<rect width="1440" height="969" transform="translate(-173 -707)" fill="#0A0A0A"/>
<g id="Section">
<path d="M-173 -683C-173 -696.255 -162.255 -707 -149 -707H1243C1256.25 -707 1267 -696.255 1267 -683V299H-173V-683Z" fill="#0A0A0A"/>
<g id="Frame 1707483928">
<g id="Container">
<g id="Container_2" clip-path="url(#clip0_1_23)">
<g id="Vector 40" filter="url(#filter0_d_1_23)">
<path d="M-8 32C0 32 4 68 12 68C20 68 24 56 32 56C40 56 44 96 52 96C60 96 64 64 72 64C80 64 84 48 92 48C100 48 104 44 112 44C120 44 124 64 132 64C140 64 144 76 152 76C160 76 164 64 172 64C180 64 184 88 192 88C200 88 204 64 212 64C220 64 224 48 232 48C240 48 244 64 252 64C260 64 264 44 272 44C280 44 284 36 292 36C300 36 304 76 312 76C320 76 324 48 332 48C340 48 344 28 352 28C360 28 364 40 372 40C380 40 384 64 392 64C400 64 404 80 412 80C420 80 424 64 432 64C440 64 444 20 452 20C460 20 464 64 472 64C480 64 484 60 492 60C500 60 504 52 512 52C520 52 524 64 532 64C540 64 544 40 552 40C560 40 564 12 572 12" stroke="#F3E4EF" stroke-width="2"/>
</g>
</g>
</g>
</g>
</g>
</g>
</g>
</g>
<defs>
<filter id="filter0_d_1_23" x="-28" y="0" width="620" height="126" filterUnits="userSpaceOnUse" color-interpolation-filters="sRGB">
<feFlood flood-opacity="0" result="BackgroundImageFix"/>
<feColorMatrix in="SourceAlpha" type="matrix" values="0 0 0 0 0 0 0 0 0 0 0 0 0 0 0 0 0 0 127 0" result="hardAlpha"/>
<feOffset dy="9"/>
<feGaussianBlur stdDeviation="10"/>
<feColorMatrix type="matrix" values="0 0 0 0 0.184314 0 0 0 0 0.501961 0 0 0 0 0.929412 0 0 0 0.5 0"/>
<feBlend mode="normal" in2="BackgroundImageFix" result="effect1_dropShadow_1_23"/>
<feBlend mode="normal" in="SourceGraphic" in2="effect1_dropShadow_1_23" result="shape"/>
</filter>
<clipPath id="clip0_1_23">
<rect width="544.955" height="661" fill="white" transform="translate(0 -491)"/>
</clipPath>
</defs>
</svg>
