<svg width="351" height="346" viewBox="0 0 351 346" fill="none" xmlns="http://www.w3.org/2000/svg">
<path d="M10.0127 0.5H22.9316C26.1635 0.500097 29.1215 2.31357 30.5371 5.23535L30.54 5.24219L33.4854 11.0957C35.0704 14.3032 38.3768 16.3877 41.9873 16.3877H109.375C112.986 16.3877 116.292 14.3216 117.915 11.0957L117.916 11.0928L120.823 5.23926L120.825 5.23535C122.241 2.31353 125.199 0.500051 128.431 0.5H340.987C346.072 0.5 350.23 4.49443 350.487 9.57227H350.462V278.21C350.462 283.267 348.462 288.156 344.852 291.768L296.69 339.888L296.688 339.892C293.603 343.032 289.441 344.941 285.068 345.406C284.41 345.445 283.778 345.5 283.156 345.5H10.0127C4.72363 345.5 0.5 341.24 0.5 335.984V10.0723C0.500126 4.94187 4.46557 0.76867 9.51953 0.512695L10.0127 0.5Z" stroke="#96237A"/>
</svg>
