<svg width="1057" height="438" viewBox="0 0 1057 438" fill="none" xmlns="http://www.w3.org/2000/svg">
<path d="M1055.87 34.0559V214.024C1055.87 231.161 1049.65 247.596 1038.58 259.76L893.937 418.049C882.871 430.159 867.804 436.971 852.144 436.971H31.1053C14.4573 436.971 0.970703 422.212 0.970703 403.994V34.0559C0.970703 15.7293 14.309 0.970703 31.0558 0.970703H69.8847C80.16 0.970703 89.5956 7.29579 94.0911 17.4592L102.934 36.7049C107.429 46.7061 116.864 53.1393 127.14 53.1393H329.682C339.958 53.1393 349.394 46.7061 354.037 36.7049L362.781 17.4592C367.276 7.29579 376.712 0.970703 386.987 0.970703H1025.84C1042.44 0.970703 1055.97 15.7833 1055.97 34.0559H1055.87Z" stroke="#96237A" stroke-width="1.94146" stroke-miterlimit="10"/>
</svg>
