<svg width="644" height="483" viewBox="0 0 644 483" fill="none" xmlns="http://www.w3.org/2000/svg">
<rect width="644" height="483" fill="#96237A"/>
<g id="Home">
<path d="M-2406 -1752C-2406 -1753.1 -2405.1 -1754 -2404 -1754H1849C1850.1 -1754 1851 -1753.1 1851 -1752V7856C1851 7857.1 1850.1 7858 1849 7858H-2404C-2405.1 7858 -2406 7857.1 -2406 7856V-1752Z" fill="#444444"/>
<path d="M-2404 -1754V-1753H1849V-1754V-1755H-2404V-1754ZM1851 -1752H1850V7856H1851H1852V-1752H1851ZM1849 7858V7857H-2404V7858V7859H1849V7858ZM-2406 7856H-2405V-1752H-2406H-2407V7856H-2406ZM-2404 7858V7857C-2404.55 7857 -2405 7856.55 -2405 7856H-2406H-2407C-2407 7857.66 -2405.66 7859 -2404 7859V7858ZM1851 7856H1850C1850 7856.55 1849.55 7857 1849 7857V7858V7859C1850.66 7859 1852 7857.66 1852 7856H1851ZM1849 -1754V-1753C1849.55 -1753 1850 -1752.55 1850 -1752H1851H1852C1852 -1753.66 1850.66 -1755 1849 -1755V-1754ZM-2404 -1754V-1755C-2405.66 -1755 -2407 -1753.66 -2407 -1752H-2406H-2405C-2405 -1752.55 -2404.55 -1753 -2404 -1753V-1754Z" fill="white" fill-opacity="0.1"/>
<g id="Home_2">
<rect width="1440" height="6456" transform="translate(-557 -1505)" fill="#0A0A0A"/>
<g id="Frame 1707483930">
<rect width="1440" height="2469" transform="translate(-557 -738)" fill="#0A0A0A"/>
<g id="Frame 1707483889">
<path d="M-557 -719C-557 -727.837 -549.837 -735 -541 -735H867C875.837 -735 883 -727.837 883 -719V1647.31H-557V-719Z" fill="#0A0A0A"/>
<g id="Frame 1707483920">
<g id="Frame 1707483915">
<g id="seguridad-card">
<rect x="-324.5" y="-3.5" width="971.09" height="489.31" rx="15.5" stroke="#C4C4C4"/>
<g id="Frame 1707483914">
<path d="M0 0H627.09C635.927 0 643.09 7.16344 643.09 16V466.31C643.09 475.147 635.927 482.31 627.09 482.31H0V0Z" fill="#FFD4F4"/>
<g id="Background">
<g clip-path="url(#clip0_1_23)">
<rect width="643.09" height="482.31" rx="16" fill="#96237A"/>
<g id="Container">
<g clip-path="url(#clip1_1_23)">
<g id="67b36b18a21f4479bedea1fb_06_mvno.svg" clip-path="url(#clip2_1_23)">
<g id="67b36b18a21f4479bedea1fb_06_mvno.svg fill" clip-path="url(#clip3_1_23)">
<g id="67b36b18a21f4479bedea1fb_06_mvno.svg_2" clip-path="url(#clip4_1_23)">
<g id="Clip path group">
<mask id="mask0_1_23" style="mask-type:luminance" maskUnits="userSpaceOnUse" x="-38" y="1" width="718" height="479">
<g id="a">
<path id="Vector" d="M679.8 1.58057H-37.0935V479.509H679.8V1.58057Z" fill="white"/>
</g>
</mask>
<g mask="url(#mask0_1_23)">
<g id="Group">
<path id="Vector_2" d="M679.8 1.58057H-37.0933V479.509H679.8V1.58057Z" fill="#96237A"/>
<path id="Vector_3" opacity="0.1" d="M416.279 72.3213H226.429C133.647 72.3213 58.4319 147.536 58.4319 240.318C58.4319 333.1 133.647 408.315 226.429 408.315H416.279C509.061 408.315 584.275 333.1 584.275 240.318C584.275 147.536 509.061 72.3213 416.279 72.3213Z" stroke="#E0B1D4" stroke-width="2.38964"/>
<path id="Vector_4" opacity="0.1" d="M449.256 -13.4934H193.452C53.2758 -13.4934 -60.3591 100.141 -60.3591 240.317C-60.3591 380.492 53.2758 494.127 193.452 494.127H449.256C589.431 494.127 703.066 380.492 703.066 240.317C703.066 100.141 589.431 -13.4934 449.256 -13.4934Z" stroke="#E0B1D4" stroke-width="2.38964"/>
<path id="Vector_5" d="M401.02 159.071H225.074C180.202 159.071 143.826 195.446 143.826 240.318C143.826 285.19 180.202 321.566 225.074 321.566H401.02C445.892 321.566 482.267 285.19 482.267 240.318C482.267 195.446 445.892 159.071 401.02 159.071Z" fill="#E0B1D4"/>
<path id="Vector_6" opacity="0.1" d="M401.433 136.047H224.658C167.071 136.047 120.387 182.731 120.387 240.318C120.387 297.905 167.071 344.589 224.658 344.589H401.433C459.02 344.589 505.704 297.905 505.704 240.318C505.704 182.731 459.02 136.047 401.433 136.047Z" fill="#E0B1D4"/>
<path id="Vector_7" d="M474.618 240.318C474.618 199.669 441.666 166.717 401.017 166.717C360.369 166.717 327.416 199.669 327.416 240.318C327.416 280.967 360.369 313.919 401.017 313.919C441.666 313.919 474.618 280.967 474.618 240.318Z" fill="#96237A"/>
</g>
</g>
</g>
</g>
</g>
</g>
<g id="Frame" transform="translate(1.3 3)">
<path id="Vector_8" d="M399.331 210.037L374.664 220.828V240.87C374.664 251.662 385.456 265.537 399.331 271.703C413.206 268.62 423.997 251.662 423.997 240.87V220.828L399.331 210.037Z" fill="#D67EC0" stroke="#D67EC0" stroke-width="6.16667" stroke-linecap="round" stroke-linejoin="round"/>
</g>
</g>
</g>
</g>
</g>
</g>
</g>
</g>
</g>
</g>
</g>
</g>
</g>
<defs>
<clipPath id="clip0_1_23">
<rect width="643.09" height="482.31" rx="16" fill="white"/>
</clipPath>
<clipPath id="clip1_1_23">
<rect x="-26.6699" y="10.8701" width="696" height="459.372" rx="28.201" fill="white"/>
</clipPath>
<clipPath id="clip2_1_23">
<rect width="716.893" height="473.141" fill="white" transform="translate(-37.0938 3.97461)"/>
</clipPath>
<clipPath id="clip3_1_23">
<rect width="716.893" height="473.141" fill="white" transform="translate(-37.0938 3.97461)"/>
</clipPath>
<clipPath id="clip4_1_23">
<rect width="716.893" height="477.929" fill="white" transform="translate(-37.0935 1.58057)"/>
</clipPath>
</defs>
</svg>
