<svg width="644" height="483" viewBox="0 0 644 483" fill="none" xmlns="http://www.w3.org/2000/svg">
<rect width="644" height="483" fill="#96237A"/>
<g id="Home">
<path d="M-2406 -1220.34C-2406 -1221.45 -2405.1 -1222.34 -2404 -1222.34H1849C1850.1 -1222.34 1851 -1221.45 1851 -1220.34V8387.66C1851 8388.76 1850.1 8389.66 1849 8389.66H-2404C-2405.1 8389.66 -2406 8388.76 -2406 8387.66V-1220.34Z" fill="#444444"/>
<path d="M-2404 -1222.34V-1221.34H1849V-1222.34V-1223.34H-2404V-1222.34ZM1851 -1220.34H1850V8387.66H1851H1852V-1220.34H1851ZM1849 8389.66V8388.66H-2404V8389.66V8390.66H1849V8389.66ZM-2406 8387.66H-2405V-1220.34H-2406H-2407V8387.66H-2406ZM-2404 8389.66V8388.66C-2404.55 8388.66 -2405 8388.21 -2405 8387.66H-2406H-2407C-2407 8389.31 -2405.66 8390.66 -2404 8390.66V8389.66ZM1851 8387.66H1850C1850 8388.21 1849.55 8388.66 1849 8388.66V8389.66V8390.66C1850.66 8390.66 1852 8389.31 1852 8387.66H1851ZM1849 -1222.34V-1221.34C1849.55 -1221.34 1850 -1220.9 1850 -1220.34H1851H1852C1852 -1222 1850.66 -1223.34 1849 -1223.34V-1222.34ZM-2404 -1222.34V-1223.34C-2405.66 -1223.34 -2407 -1222 -2407 -1220.34H-2406H-2405C-2405 -1220.9 -2404.55 -1221.34 -2404 -1221.34V-1222.34Z" fill="white" fill-opacity="0.1"/>
<g id="Home_2">
<rect width="1440" height="6456" transform="translate(-557 -973.345)" fill="#0A0A0A"/>
<g id="Frame 1707483930">
<rect width="1440" height="2469" transform="translate(-557 -206.345)" fill="#0A0A0A"/>
<g id="Frame 1707483889">
<path d="M-557 -187.345C-557 -196.181 -549.837 -203.345 -541 -203.345H867C875.837 -203.345 883 -196.182 883 -187.345V2178.97H-557V-187.345Z" fill="#0A0A0A"/>
<g id="Frame 1707483920">
<g id="Frame 1707483915">
<g id="Frame 1707483920_2">
<rect x="-324.5" y="-4.84497" width="971.09" height="492" rx="15.5" stroke="#C4C4C4"/>
<g id="Frame 1707483914">
<path d="M0 0H627.09C635.927 0 643.09 7.16344 643.09 16V466.31C643.09 475.147 635.927 482.31 627.09 482.31H0V0Z" fill="#FFD4F4"/>
<g id="Background">
<g clip-path="url(#clip0_1_23)">
<rect width="643.09" height="482.31" rx="16" fill="#96237A"/>
<g id="Container">
<g clip-path="url(#clip1_1_23)">
<g id="67ae2fa51adde71f0953f713_5G.svg" clip-path="url(#clip2_1_23)">
<g id="67ae2fa51adde71f0953f713_5G.svg fill" clip-path="url(#clip3_1_23)">
<g id="67ae2fa51adde71f0953f713_5G.svg_2" clip-path="url(#clip4_1_23)">
<g id="Clip path group">
<mask id="mask0_1_23" style="mask-type:luminance" maskUnits="userSpaceOnUse" x="0" y="23" width="653" height="436">
<g id="a">
<path id="Vector" d="M652.723 23.1013H0.136719V458.159H652.723V23.1013Z" fill="white"/>
</g>
</mask>
<g mask="url(#mask0_1_23)">
<g id="Group">
<path id="Vector_2" d="M652.723 23.1013H0.136719V458.159H652.723V23.1013Z" fill="#FC9C9C"/>
<path id="Vector_3" d="M652.723 23.1013H0.136719V458.159H652.723V23.1013Z" fill="#D9D9D9"/>
<path id="Vector_4" d="M652.723 23.1013H0.136719V458.159H652.723V23.1013Z" fill="#96237A"/>
<path id="Vector_5" d="M373.352 159.448H279.509C260.587 159.448 245.248 174.788 245.248 193.709V287.553C245.248 306.474 260.587 321.814 279.509 321.814H373.352C392.274 321.814 407.613 306.474 407.613 287.553V193.709C407.613 174.788 392.274 159.448 373.352 159.448Z" fill="#E0B1D4"/>
<path id="Vector_6" d="M326.429 94.5007H326.429C245.723 94.5007 180.299 159.925 180.299 240.631V240.631C180.299 321.336 245.723 386.761 326.429 386.761H326.429C407.134 386.761 472.559 321.336 472.559 240.631V240.631C472.559 159.925 407.134 94.5007 326.429 94.5007Z" stroke="#E0B1D4" stroke-width="2.17529"/>
<path id="Vector_7" opacity="0.4" d="M565.794 240.631C565.794 108.129 458.381 0.716064 325.879 0.716064C193.378 0.716064 85.9648 108.129 85.9648 240.631C85.9648 373.132 193.378 480.545 325.879 480.545C458.381 480.545 565.794 373.132 565.794 240.631Z" stroke="#E0B1D4" stroke-width="2.17529"/>
<path id="Vector_8" opacity="0.1" d="M663.139 240.63C663.139 54.6704 512.389 -96.0798 326.429 -96.0798C140.469 -96.0798 -10.2812 54.6704 -10.2812 240.63C-10.2812 426.59 140.469 577.34 326.429 577.34C512.389 577.34 663.139 426.59 663.139 240.63Z" stroke="#E0B1D4" stroke-width="2.17529"/>
<path id="Vector_9" d="M302.472 264.219C299.271 264.219 296.443 263.575 293.99 262.286C291.578 260.955 289.686 259.126 288.314 256.797C286.983 254.427 286.318 251.704 286.318 248.627H295.237C295.237 250.955 295.903 252.805 297.233 254.178C298.564 255.55 300.393 256.236 302.722 256.236C304.385 256.236 305.799 255.904 306.963 255.238C308.169 254.531 309.104 253.554 309.77 252.307C310.435 251.018 310.768 249.521 310.768 247.816C310.768 246.112 310.455 244.656 309.832 243.45C309.208 242.203 308.314 241.247 307.15 240.581C305.986 239.916 304.551 239.583 302.846 239.583C301.225 239.583 299.707 239.958 298.293 240.706C296.921 241.454 295.882 242.411 295.175 243.575L287.067 241.954L292.743 217.629H317.192V225.987H297.295L299.915 223.429L296.485 236.652L293.429 238.211C294.385 236.257 295.861 234.739 297.857 233.658C299.852 232.577 302.181 232.036 304.842 232.036C307.878 232.036 310.518 232.681 312.763 233.97C315.05 235.217 316.838 236.985 318.127 239.271C319.416 241.558 320.06 244.22 320.06 247.255C320.06 250.623 319.312 253.575 317.815 256.111C316.318 258.648 314.26 260.644 311.64 262.099C309.021 263.512 305.965 264.219 302.472 264.219ZM344.662 225.363C341.751 225.363 339.298 226.008 337.302 227.296C335.306 228.585 333.789 230.394 332.749 232.723C331.71 235.051 331.19 237.795 331.19 240.956C331.19 244.157 331.751 246.881 332.874 249.126C334.038 251.33 335.619 252.993 337.614 254.116C339.652 255.197 341.98 255.737 344.6 255.737C346.637 255.737 348.404 255.467 349.901 254.926C351.439 254.386 352.708 253.638 353.705 252.681C354.703 251.683 355.452 250.519 355.951 249.188C356.45 247.858 356.699 246.423 356.699 244.885V241.08L361.003 245.321H343.664V237.4H365.182V263.471H357.448L356.699 256.61L357.697 257.608C357.032 258.897 355.992 260.04 354.579 261.038C353.207 261.995 351.564 262.764 349.651 263.346C347.739 263.887 345.702 264.157 343.539 264.157C339.257 264.157 335.473 263.18 332.188 261.225C328.903 259.272 326.325 256.548 324.454 253.055C322.583 249.521 321.648 245.383 321.648 240.643C321.648 236.028 322.604 231.933 324.516 228.357C326.471 224.781 329.174 221.974 332.625 219.937C336.117 217.899 340.192 216.881 344.849 216.881C348.425 216.881 351.668 217.525 354.579 218.814C357.489 220.103 359.859 221.953 361.689 224.365C363.56 226.735 364.683 229.521 365.057 232.723H355.514C354.89 230.186 353.56 228.336 351.523 227.172C349.527 225.966 347.24 225.363 344.662 225.363Z" fill="#96237A"/>
<path id="Vector_10" d="M104.661 195.537H65.0957C60.2902 195.537 56.3945 199.433 56.3945 204.239V243.804C56.3945 248.61 60.2902 252.505 65.0957 252.505H104.661C109.467 252.505 113.363 248.61 113.363 243.804V204.239C113.363 199.433 109.467 195.537 104.661 195.537Z" fill="white"/>
<g id="Clip path group_2">
<mask id="mask1_1_23" style="mask-type:luminance" maskUnits="userSpaceOnUse" x="70" y="209" width="30" height="30">
<g id="b">
<path id="Vector_11" d="M99.1631 209.736V238.305H70.5938V209.736H99.1631Z" fill="white" stroke="white" stroke-width="0.543822"/>
</g>
</mask>
<g mask="url(#mask1_1_23)">
<g id="Group_2">
<path id="Vector_12" d="M76.6895 235.848L84.8772 219.472L93.065 235.848" stroke="#96237A" stroke-width="1.79461" stroke-linecap="round" stroke-linejoin="round"/>
<path id="Vector_13" d="M80.4011 220.288C80.2825 219.633 80.3092 218.959 80.4794 218.315C80.6496 217.672 80.959 217.073 81.3859 216.562C81.8128 216.05 82.3469 215.639 82.95 215.357C83.5536 215.075 84.2116 214.928 84.8773 214.928C85.5435 214.928 86.2015 215.075 86.8046 215.357C87.4077 215.639 87.9417 216.05 88.3686 216.562C88.7955 217.073 89.1049 217.672 89.2752 218.315C89.4454 218.959 89.472 219.633 89.3535 220.288" stroke="#96237A" stroke-width="1.79461" stroke-linecap="round" stroke-linejoin="round"/>
<path id="Vector_14" d="M78.3416 224.405C77.4242 223.19 76.864 221.743 76.7243 220.226C76.584 218.71 76.8695 217.185 77.5482 215.822C78.2274 214.459 79.2726 213.313 80.5675 212.511C81.8623 211.71 83.3545 211.285 84.8772 211.285C86.3999 211.285 87.8927 211.71 89.187 212.511C90.4819 213.313 91.5276 214.459 92.2063 215.822C92.885 217.185 93.1705 218.71 93.0308 220.226C92.8905 221.743 92.3303 223.19 91.4129 224.405" stroke="#96237A" stroke-width="1.79461" stroke-linecap="round" stroke-linejoin="round"/>
<path id="Vector_15" d="M78.5098 232.21H91.2466" stroke="#96237A" stroke-width="1.79461" stroke-linecap="round" stroke-linejoin="round"/>
<path id="Vector_16" d="M80.3281 228.57H89.4257" stroke="#96237A" stroke-width="1.79461" stroke-linecap="round" stroke-linejoin="round"/>
</g>
</g>
</g>
<path id="Vector_17" d="M539.95 69.2087H500.801C495.995 69.2087 492.1 73.1044 492.1 77.9099V117.06C492.1 121.865 495.995 125.761 500.801 125.761H539.95C544.756 125.761 548.652 121.865 548.652 117.06V77.9099C548.652 73.1044 544.756 69.2087 539.95 69.2087Z" fill="white"/>
<g id="Group 6">
<g id="Group 5">
<path id="Vector_18" d="M524.953 88.4562L520.294 83.7961C519.831 83.3339 519.081 83.3339 518.619 83.7961L516.353 86.0623C515.89 86.5245 515.89 87.2744 516.353 87.7367L521.013 92.3967" stroke="#96237A" stroke-width="1.79461"/>
<path id="Vector_19" d="M522.583 100.978L531.196 92.3647C531.658 91.9019 531.658 91.1525 531.196 90.6897L527.802 87.2952C527.339 86.8329 526.59 86.8329 526.127 87.2952L517.514 95.9088" stroke="#96237A" stroke-width="1.79461"/>
<path id="Vector_20" d="M530.017 93.5217L534.722 98.2269C535.184 98.6891 535.184 99.4385 534.722 99.9013L532.455 102.167C531.993 102.63 531.244 102.63 530.781 102.167L526.076 97.4623" stroke="#96237A" stroke-width="1.79461"/>
<path id="Vector_21" d="M520.616 97.6154L520.876 97.8758C522.914 99.9141 522.914 103.219 520.876 105.257C520.582 105.551 520.104 105.551 519.81 105.257L513.234 98.6818C512.94 98.3876 512.94 97.9101 513.234 97.6154C515.273 95.5771 518.577 95.5771 520.616 97.6154Z" stroke="#96237A" stroke-width="1.79461"/>
</g>
<g id="Group 4">
<path id="Vector_22" opacity="0.2" d="M506.096 102.809C506.077 105.205 506.981 107.607 508.81 109.435C510.637 111.262 513.039 112.167 515.435 112.148" stroke="#96237A" stroke-width="1.79461"/>
<path id="Vector_23" opacity="0.56" d="M515.522 108.943C513.908 109.015 512.27 108.434 511.037 107.202C509.803 105.969 509.223 104.33 509.295 102.716" stroke="#96237A" stroke-width="1.79461"/>
<path id="Vector_24" d="M514.792 104.688C515.366 104.688 515.832 104.222 515.832 103.648C515.832 103.073 515.366 102.608 514.792 102.608C514.218 102.608 513.752 103.073 513.752 103.648C513.752 104.222 514.218 104.688 514.792 104.688Z" fill="#96237A"/>
</g>
</g>
<path id="Vector_25" d="M538.868 351.882H499.719C494.913 351.882 491.018 355.777 491.018 360.583V399.732C491.018 404.538 494.913 408.434 499.719 408.434H538.868C543.674 408.434 547.57 404.538 547.57 399.732V360.583C547.57 355.777 543.674 351.882 538.868 351.882Z" fill="white"/>
<g id="Clip path group_3">
<mask id="mask2_1_23" style="mask-type:luminance" maskUnits="userSpaceOnUse" x="505" y="365" width="29" height="30">
<g id="c">
<path id="Vector_26" d="M533.181 366.27V394.044H505.406V366.27H533.181Z" fill="white" stroke="white" stroke-width="0.543822"/>
</g>
</mask>
<g mask="url(#mask2_1_23)">
<g id="Group_3">
<path id="Vector_27" d="M518.408 383.697L529.028 373.078" stroke="#96237A" stroke-width="1.90338" stroke-linecap="round" stroke-linejoin="round"/>
<path id="Vector_28" d="M511.379 383.697C511.347 383.403 511.33 383.107 511.33 382.812C511.331 381.548 511.633 380.302 512.21 379.178C512.788 378.054 513.624 377.082 514.65 376.345C515.677 375.608 516.864 375.125 518.114 374.937C519.364 374.748 520.641 374.86 521.839 375.262" stroke="#96237A" stroke-width="1.90338" stroke-linecap="round" stroke-linejoin="round"/>
<path id="Vector_29" d="M529.539 377.573C530.248 378.966 530.668 380.487 530.773 382.046C530.877 383.606 530.663 385.17 530.145 386.644C530.085 386.817 529.972 386.968 529.822 387.075C529.671 387.181 529.492 387.238 529.308 387.238H509.279C509.094 387.237 508.915 387.179 508.765 387.072C508.615 386.965 508.502 386.814 508.441 386.639C507.999 385.381 507.778 384.056 507.79 382.722C507.839 376.396 513.07 371.252 519.405 371.308C521.19 371.322 522.948 371.753 524.537 372.567" stroke="#96237A" stroke-width="1.90338" stroke-linecap="round" stroke-linejoin="round"/>
</g>
</g>
</g>
</g>
</g>
</g>
</g>
</g>
</g>
</g>
</g>
</g>
</g>
</g>
</g>
</g>
</g>
</g>
</g>
</g>
</g>
<defs>
<clipPath id="clip0_1_23">
<rect width="643.09" height="482.31" rx="16" fill="white"/>
</clipPath>
<clipPath id="clip1_1_23">
<rect x="9.33008" y="38.8699" width="634.11" height="403.52" rx="12.31" fill="white"/>
</clipPath>
<clipPath id="clip2_1_23">
<rect width="653.13" height="415.62" fill="white" transform="translate(-0.189453 32.8201)"/>
</clipPath>
<clipPath id="clip3_1_23">
<rect width="653.13" height="415.62" fill="white" transform="translate(-0.189453 32.8201)"/>
</clipPath>
<clipPath id="clip4_1_23">
<rect width="653.13" height="435.057" fill="white" transform="translate(-0.189453 23.1013)"/>
</clipPath>
</defs>
</svg>
