<svg width="644" height="504" viewBox="0 0 644 504" fill="none" xmlns="http://www.w3.org/2000/svg">
<rect width="644" height="504" fill="#232323"/>
<g id="Home">
<path d="M-2406 -2282C-2406 -2283.1 -2405.1 -2284 -2404 -2284H1849C1850.1 -2284 1851 -2283.1 1851 -2282V7326C1851 7327.1 1850.1 7328 1849 7328H-2404C-2405.1 7328 -2406 7327.1 -2406 7326V-2282Z" fill="#444444"/>
<path d="M-2404 -2284V-2283H1849V-2284V-2285H-2404V-2284ZM1851 -2282H1850V7326H1851H1852V-2282H1851ZM1849 7328V7327H-2404V7328V7329H1849V7328ZM-2406 7326H-2405V-2282H-2406H-2407V7326H-2406ZM-2404 7328V7327C-2404.55 7327 -2405 7326.55 -2405 7326H-2406H-2407C-2407 7327.66 -2405.66 7329 -2404 7329V7328ZM1851 7326H1850C1850 7326.55 1849.55 7327 1849 7327V7328V7329C1850.66 7329 1852 7327.66 1852 7326H1851ZM1849 -2284V-2283C1849.55 -2283 1850 -2282.55 1850 -2282H1851H1852C1852 -2283.66 1850.66 -2285 1849 -2285V-2284ZM-2404 -2284V-2285C-2405.66 -2285 -2407 -2283.66 -2407 -2282H-2406H-2405C-2405 -2282.55 -2404.55 -2283 -2404 -2283V-2284Z" fill="white" fill-opacity="0.1"/>
<g id="Home_2">
<rect width="1440" height="6456" transform="translate(-557 -2035)" fill="#0A0A0A"/>
<g id="Frame 1707483930">
<rect width="1440" height="2469" transform="translate(-557 -1268)" fill="#0A0A0A"/>
<g id="Frame 1707483889">
<path d="M-557 -1249C-557 -1257.84 -549.837 -1265 -541 -1265H867C875.837 -1265 883 -1257.84 883 -1249V1117.31H-557V-1249Z" fill="#0A0A0A"/>
<g id="Frame 1707483920">
<g id="Frame 1707483915">
<g id="Frame 1707483919">
<rect x="-324.5" y="-3.18994" width="971.09" height="510" rx="15.5" stroke="#C4C4C4"/>
<g id="Frame 1707483914">
<path d="M0.0900879 0.310059H627.09C635.927 0.310059 643.09 7.4735 643.09 16.3101V487.31C643.09 496.147 635.927 503.31 627.09 503.31H0.0900879V0.310059Z" fill="#FFD4F4"/>
<g id="Background">
<rect width="643" height="503" rx="16" fill="#96237A"/>
<g id="Container">
<g clip-path="url(#clip0_1_23)">
<g id="68652aa4616108274170277f_LowCost.svg" clip-path="url(#clip1_1_23)">
<g id="68652aa4616108274170277f_LowCost.svg fill" clip-path="url(#clip2_1_23)">
<g id="68652aa4616108274170277f_LowCost.svg_2" clip-path="url(#clip3_1_23)">
<g id="Clip path group">
<mask id="mask0_1_23" style="mask-type:luminance" maskUnits="userSpaceOnUse" x="86" y="83" width="472" height="316">
<g id="a">
<path id="Vector" d="M557.889 83.9575H86.1406V398.457H557.889V83.9575Z" fill="white"/>
</g>
</mask>
<g mask="url(#mask0_1_23)">
<g id="Group">
<path id="Vector_2" d="M557.889 83.9575H86.1406V398.457H557.889V83.9575Z" fill="#96237A"/>
<g id="Group_2" opacity="0.1">
<path id="Vector_3" d="M23.0442 364.648H625.506" stroke="black" stroke-width="0.786248"/>
<path id="Vector_4" d="M23.0442 275.549H625.506" stroke="black" stroke-width="0.786248"/>
<path id="Vector_5" d="M23.0442 197.038H625.506" stroke="black" stroke-width="0.786248"/>
<path id="Vector_6" d="M23.0442 117.767H625.506" stroke="black" stroke-width="0.786248"/>
</g>
<path id="Vector_7" d="M441.123 162.779C441.123 142.262 424.49 125.629 403.972 125.629C383.455 125.629 366.822 142.262 366.822 162.779V320.029C366.822 340.546 383.455 357.179 403.972 357.179C424.49 357.179 441.123 340.546 441.123 320.029V162.779Z" fill="#B04596"/>
<path id="Vector_8" d="M195.822 288.578C195.822 268.061 179.189 251.428 158.672 251.428C138.154 251.428 121.522 268.061 121.522 288.578V320.028C121.522 340.546 138.154 357.179 158.672 357.179C179.189 357.179 195.822 340.546 195.822 320.028V288.578Z" fill="#841168"/>
<path id="Vector_9" d="M358.892 244.549C358.892 224.031 342.259 207.398 321.742 207.398C301.225 207.398 284.592 224.031 284.592 244.549V320.028C284.592 340.546 301.225 357.179 321.742 357.179C342.259 357.179 358.892 340.546 358.892 320.028V244.549Z" fill="#B04596"/>
<path id="Vector_10" d="M522.901 320.029C522.901 299.511 506.268 282.878 485.751 282.878C465.233 282.878 448.601 299.511 448.601 320.029C448.601 340.546 465.233 357.179 485.751 357.179C506.268 357.179 522.901 340.546 522.901 320.029Z" fill="#FFD4F4"/>
<path id="Vector_11" d="M277.592 214.671C277.592 194.154 260.959 177.521 240.442 177.521C219.924 177.521 203.292 194.154 203.292 214.671V320.028C203.292 340.546 219.924 357.179 240.442 357.179C260.959 357.179 277.592 340.546 277.592 320.028V214.671Z" fill="#841168"/>
<path id="Vector_12" d="M491.451 317.684V328.27H495.382V310.973H478.085V314.904H488.672L476.695 326.881L479.477 329.66L491.451 317.684Z" fill="#96237A"/>
</g>
</g>
</g>
</g>
</g>
</g>
</g>
</g>
</g>
</g>
</g>
</g>
</g>
</g>
</g>
</g>
</g>
<defs>
<clipPath id="clip0_1_23">
<rect x="93" y="90.0703" width="458" height="302.288" rx="18.5576" fill="white"/>
</clipPath>
<clipPath id="clip1_1_23">
<rect width="471.749" height="311.348" fill="white" transform="translate(86.1406 85.5327)"/>
</clipPath>
<clipPath id="clip2_1_23">
<rect width="471.749" height="311.348" fill="white" transform="translate(86.1406 85.5327)"/>
</clipPath>
<clipPath id="clip3_1_23">
<rect width="471.749" height="314.499" fill="white" transform="translate(86.1406 83.9575)"/>
</clipPath>
</defs>
</svg>
