<svg width="644" height="483" viewBox="0 0 644 483" fill="none" xmlns="http://www.w3.org/2000/svg">
<rect width="644" height="483" fill="#232323"/>
<g id="Home">
<path d="M-2406 -2833.31C-2406 -2834.41 -2405.1 -2835.31 -2404 -2835.31H1849C1850.1 -2835.31 1851 -2834.41 1851 -2833.31V6774.69C1851 6775.79 1850.1 6776.69 1849 6776.69H-2404C-2405.1 6776.69 -2406 6775.79 -2406 6774.69V-2833.31Z" fill="#444444"/>
<path d="M-2404 -2835.31V-2834.31H1849V-2835.31V-2836.31H-2404V-2835.31ZM1851 -2833.31H1850V6774.69H1851H1852V-2833.31H1851ZM1849 6776.69V6775.69H-2404V6776.69V6777.69H1849V6776.69ZM-2406 6774.69H-2405V-2833.31H-2406H-2407V6774.69H-2406ZM-2404 6776.69V6775.69C-2404.55 6775.69 -2405 6775.24 -2405 6774.69H-2406H-2407C-2407 6776.35 -2405.66 6777.69 -2404 6777.69V6776.69ZM1851 6774.69H1850C1850 6775.24 1849.55 6775.69 1849 6775.69V6776.69V6777.69C1850.66 6777.69 1852 6776.35 1852 6774.69H1851ZM1849 -2835.31V-2834.31C1849.55 -2834.31 1850 -2833.86 1850 -2833.31H1851H1852C1852 -2834.97 1850.66 -2836.31 1849 -2836.31V-2835.31ZM-2404 -2835.31V-2836.31C-2405.66 -2836.31 -2407 -2834.97 -2407 -2833.31H-2406H-2405C-2405 -2833.86 -2404.55 -2834.31 -2404 -2834.31V-2835.31Z" fill="white" fill-opacity="0.1"/>
<g id="Home_2">
<rect width="1440" height="6456" transform="translate(-557 -2586.31)" fill="#0A0A0A"/>
<g id="Frame 1707483930">
<rect width="1440" height="2469" transform="translate(-557 -1819.31)" fill="#0A0A0A"/>
<g id="Frame 1707483889">
<path d="M-557 -1800.31C-557 -1809.15 -549.837 -1816.31 -541 -1816.31H867C875.837 -1816.31 883 -1809.15 883 -1800.31V566H-557V-1800.31Z" fill="#0A0A0A"/>
<g id="Frame 1707483920">
<g id="Frame 1707483915">
<g id="Frame 1707483915_2">
<rect x="-324.5" y="-3.5" width="971.09" height="489" rx="15.5" stroke="#C4C4C4"/>
<g id="Frame 1707483932">
<path d="M0 0H627.09C635.927 0 643.09 7.16344 643.09 16V466C643.09 474.837 635.927 482 627.09 482H0V0Z" fill="#FFD4F4"/>
<g id="Background">
<rect width="643.09" height="482.31" rx="16" fill="#96237A"/>
<g id="Container">
<g clip-path="url(#clip0_1_23)">
<g id="67ae2f9942f04b253206682f_Cloud.svg" clip-path="url(#clip1_1_23)">
<g id="67ae2f9942f04b253206682f_Cloud.svg fill" clip-path="url(#clip2_1_23)">
<g id="67ae2f9942f04b253206682f_Cloud.svg_2" clip-path="url(#clip3_1_23)">
<g id="Clip path group">
<mask id="mask0_1_23" style="mask-type:luminance" maskUnits="userSpaceOnUse" x="-5" y="23" width="653" height="436">
<g id="a">
<path id="Vector" d="M647.723 23.0054H-4.86328V458.063H647.723V23.0054Z" fill="white"/>
</g>
</mask>
<g mask="url(#mask0_1_23)">
<g id="Group">
<path id="Vector_2" d="M647.723 23.0059H-4.86328V458.063H647.723V23.0059Z" fill="#96237A"/>
<g id="Group_2" opacity="0.4">
<path id="Vector_3" fill-rule="evenodd" clip-rule="evenodd" d="M209.471 222.116C218.177 172.94 261.129 135.59 312.804 135.59C349.827 135.59 382.371 154.76 401.053 183.716C406.243 182.682 411.611 182.139 417.106 182.139C462.211 182.139 498.776 218.704 498.776 263.809C498.776 308.915 462.211 345.48 417.106 345.48L205.817 345.48C171.722 345.48 144.082 317.84 144.082 283.745C144.082 249.649 171.722 222.01 205.817 222.01C207.044 222.01 208.262 222.046 209.471 222.116Z" fill="#D9D9D9"/>
<g id="Mask group">
<mask id="mask1_1_23" style="mask-type:luminance" maskUnits="userSpaceOnUse" x="-17" y="-25" width="677" height="531">
<g id="Group_3" opacity="0.4">
<path id="Vector_4" d="M659.625 -24.8379H-16.3457V505.932H659.625V-24.8379Z" fill="white"/>
<path id="Vector_5" fill-rule="evenodd" clip-rule="evenodd" d="M209.471 222.116C218.177 172.94 261.129 135.59 312.804 135.59C349.827 135.59 382.371 154.76 401.053 183.716C406.243 182.682 411.611 182.139 417.106 182.139C462.211 182.139 498.776 218.704 498.776 263.809C498.776 308.915 462.211 345.48 417.106 345.48L205.817 345.48C171.722 345.48 144.082 317.84 144.082 283.745C144.082 249.649 171.722 222.01 205.817 222.01C207.044 222.01 208.262 222.046 209.471 222.116Z" fill="black"/>
</g>
</mask>
<g mask="url(#mask1_1_23)">
<path id="Vector_6" d="M209.47 222.116L200.123 382.271L342.567 390.584L367.441 250.083L209.47 222.116ZM401.053 183.716L266.247 270.689L325.402 362.378L432.412 341.049L401.053 183.716ZM417.106 345.479V185.052H417.105L417.106 345.479ZM205.817 345.48V505.907H205.817L205.817 345.48ZM367.441 250.083C362.819 276.19 340.291 296.017 312.804 296.017V-24.8379C181.966 -24.8379 73.5337 69.6881 51.4992 194.149L367.441 250.083ZM312.804 296.017C293.064 296.017 275.857 285.586 266.247 270.689L535.858 96.7429C488.884 23.9344 406.588 -24.8379 312.804 -24.8379V296.017ZM417.106 21.7115C401.024 21.7115 385.153 23.302 369.693 26.3836L432.412 341.049C427.333 342.061 422.197 342.567 417.106 342.567V21.7115ZM659.203 263.809C659.203 130.103 550.814 21.7115 417.106 21.7115V342.567C373.609 342.567 338.348 307.306 338.348 263.809H659.203ZM417.106 505.907C550.814 505.907 659.203 397.516 659.203 263.809H338.348C338.348 220.313 373.609 185.052 417.106 185.052V505.907ZM205.817 505.907L417.106 505.907L417.105 185.052L205.817 185.052L205.817 505.907ZM-16.3457 283.745C-16.3457 406.442 83.1197 505.907 205.817 505.907V185.052C260.323 185.052 304.509 229.238 304.509 283.745H-16.3457ZM205.817 61.5821C83.1197 61.5821 -16.3457 161.048 -16.3457 283.745H304.509C304.509 338.251 260.323 382.437 205.817 382.437V61.5821ZM218.817 61.9609C214.498 61.7088 210.162 61.5821 205.817 61.5821V382.437C203.924 382.437 202.025 382.382 200.123 382.271L218.817 61.9609Z" fill="white"/>
</g>
</g>
</g>
<path id="Vector_7" fill-rule="evenodd" clip-rule="evenodd" d="M209.471 222.116C218.177 172.94 261.129 135.59 312.804 135.59C349.827 135.59 382.371 154.76 401.053 183.716C406.243 182.682 411.611 182.139 417.106 182.139C462.211 182.139 498.776 218.704 498.776 263.809C498.776 308.915 462.211 345.48 417.106 345.48L205.817 345.48C171.722 345.48 144.082 317.84 144.082 283.745C144.082 249.649 171.722 222.01 205.817 222.01C207.044 222.01 208.262 222.046 209.471 222.116Z" fill="#D9D9D9"/>
<g id="Mask group_2">
<mask id="mask2_1_23" style="mask-type:luminance" maskUnits="userSpaceOnUse" x="-16" y="-24" width="675" height="529">
<g id="Group_4">
<path id="Vector_8" d="M658.537 -23.75H-15.2578V504.845H658.537V-23.75Z" fill="white"/>
<path id="Vector_9" fill-rule="evenodd" clip-rule="evenodd" d="M209.47 222.116C218.176 172.94 261.129 135.59 312.804 135.59C349.826 135.59 382.371 154.76 401.053 183.716C406.243 182.682 411.611 182.139 417.106 182.139C462.211 182.139 498.776 218.704 498.776 263.809C498.776 308.915 462.211 345.48 417.106 345.48L205.817 345.48C171.722 345.48 144.082 317.84 144.082 283.745C144.082 249.649 171.722 222.01 205.817 222.01C207.043 222.01 208.261 222.046 209.47 222.116Z" fill="black"/>
</g>
</mask>
<g mask="url(#mask2_1_23)">
<path id="Vector_10" d="M209.47 222.116L200.187 381.185L341.665 389.442L366.371 249.893L209.47 222.116ZM401.053 183.717L267.161 270.1L325.915 361.167L432.2 339.982L401.053 183.717ZM417.106 345.48V186.14H417.105L417.106 345.48ZM205.817 345.48V504.82H205.818L205.817 345.48ZM366.371 249.893C361.839 275.49 339.755 294.93 312.804 294.93V-23.75C182.503 -23.75 74.5145 70.3884 52.5707 194.339L366.371 249.893ZM312.804 294.93C293.449 294.93 276.58 284.699 267.161 270.1L534.944 97.3326C488.162 24.8216 406.204 -23.75 312.804 -23.75V294.93ZM417.106 22.7994C401.096 22.7994 385.297 24.3828 369.906 27.4505L432.2 339.982C427.19 340.981 422.126 341.479 417.106 341.479V22.7994ZM658.115 263.81C658.115 130.703 550.21 22.7994 417.106 22.7994V341.479C374.21 341.479 339.436 306.705 339.436 263.81H658.115ZM417.106 504.819C550.21 504.819 658.115 396.915 658.115 263.81H339.436C339.436 220.913 374.21 186.14 417.106 186.14V504.819ZM205.818 504.82L417.106 504.819L417.105 186.14L205.817 186.14L205.818 504.82ZM-15.2578 283.745C-15.2578 405.841 83.7209 504.82 205.817 504.82V186.14C259.723 186.14 303.422 229.839 303.422 283.745H-15.2578ZM205.817 62.67C83.7209 62.67 -15.2578 161.649 -15.2578 283.745H303.422C303.422 337.65 259.723 381.35 205.817 381.35V62.67ZM218.754 63.047C214.456 62.7961 210.142 62.67 205.817 62.67V381.35C203.945 381.35 202.068 381.295 200.187 381.185L218.754 63.047Z" fill="#96237A"/>
</g>
</g>
<g id="Group_5" opacity="0.56">
<path id="Vector_11" fill-rule="evenodd" clip-rule="evenodd" d="M209.469 222.116C218.175 172.94 261.127 135.59 312.802 135.59C349.825 135.59 382.369 154.76 401.051 183.716C406.241 182.682 411.609 182.139 417.104 182.139C462.209 182.139 498.774 218.704 498.774 263.809C498.774 308.915 462.209 345.48 417.104 345.48L205.815 345.48C171.72 345.48 144.08 317.84 144.08 283.745C144.08 249.649 171.72 222.01 205.815 222.01C207.042 222.01 208.26 222.046 209.469 222.116Z" fill="#D9D9D9"/>
<g id="Mask group_3">
<mask id="mask3_1_23" style="mask-type:luminance" maskUnits="userSpaceOnUse" x="48" y="40" width="547" height="401">
<g id="Group_6" opacity="0.56">
<path id="Vector_12" d="M594.365 40.4209H48.9121V440.674H594.365V40.4209Z" fill="white"/>
<path id="Vector_13" fill-rule="evenodd" clip-rule="evenodd" d="M209.469 222.116C218.175 172.94 261.127 135.59 312.802 135.59C349.825 135.59 382.369 154.76 401.051 183.716C406.241 182.682 411.609 182.139 417.104 182.139C462.209 182.139 498.774 218.704 498.774 263.809C498.774 308.915 462.209 345.48 417.104 345.48L205.815 345.48C171.72 345.48 144.08 317.84 144.08 283.745C144.08 249.649 171.72 222.01 205.815 222.01C207.042 222.01 208.26 222.046 209.469 222.116Z" fill="black"/>
</g>
</mask>
<g mask="url(#mask3_1_23)">
<path id="Vector_14" d="M209.469 222.116L203.925 317.123L288.425 322.055L303.181 238.706L209.469 222.116ZM401.052 183.716L321.082 235.31L356.174 289.702L419.655 277.049L401.052 183.716ZM417.105 345.48V250.311H417.104L417.105 345.48ZM303.181 238.706C303.981 234.19 308.089 230.759 312.803 230.759V40.4209C214.167 40.4209 132.371 111.689 115.758 205.526L303.181 238.706ZM312.803 230.759C316.153 230.759 319.184 232.369 321.082 235.31L481.021 132.122C445.556 77.1519 383.498 40.4209 312.803 40.4209V230.759ZM417.105 86.9706C405.33 86.9706 393.731 88.1344 382.449 90.3836L419.655 277.049C418.753 277.229 417.89 277.308 417.105 277.308V86.9706ZM593.943 263.809C593.943 166.144 514.77 86.9706 417.105 86.9706V277.308C409.65 277.308 403.606 271.264 403.606 263.809H593.943ZM417.105 440.648C514.77 440.648 593.943 361.475 593.943 263.809H403.606C403.606 256.354 409.65 250.311 417.105 250.311V440.648ZM205.816 440.649L417.105 440.648L417.104 250.311L205.816 250.311V440.649ZM48.9121 283.745C48.9121 370.4 119.161 440.649 205.816 440.649V250.311C224.281 250.311 239.25 265.28 239.25 283.745H48.9121ZM205.816 126.841C119.16 126.841 48.9121 197.089 48.9121 283.745H239.25C239.25 302.21 224.281 317.178 205.816 317.178V126.841ZM215.014 127.109C211.96 126.931 208.893 126.841 205.816 126.841V317.178C205.192 317.178 204.561 317.161 203.925 317.123L215.014 127.109Z" fill="white"/>
</g>
</g>
</g>
<path id="Vector_15" fill-rule="evenodd" clip-rule="evenodd" d="M209.471 222.116C218.177 172.94 261.129 135.59 312.804 135.59C349.827 135.59 382.371 154.76 401.053 183.716C406.243 182.682 411.611 182.139 417.106 182.139C462.211 182.139 498.776 218.704 498.776 263.809C498.776 308.915 462.211 345.48 417.106 345.48L205.817 345.48C171.722 345.48 144.082 317.84 144.082 283.745C144.082 249.649 171.722 222.01 205.817 222.01C207.044 222.01 208.262 222.046 209.471 222.116Z" fill="#D9D9D9"/>
<g id="Mask group_4">
<mask id="mask4_1_23" style="mask-type:luminance" maskUnits="userSpaceOnUse" x="50" y="42" width="543" height="398">
<g id="Group_7">
<path id="Vector_16" d="M592.735 42.0522H50.5449V439.042H592.735V42.0522Z" fill="white"/>
<path id="Vector_17" fill-rule="evenodd" clip-rule="evenodd" d="M209.471 222.116C218.177 172.94 261.129 135.59 312.805 135.59C349.827 135.59 382.371 154.76 401.053 183.716C406.244 182.682 411.612 182.139 417.106 182.139C462.212 182.139 498.776 218.704 498.776 263.809C498.776 308.915 462.212 345.48 417.106 345.48L205.817 345.48C171.722 345.48 144.082 317.84 144.082 283.745C144.082 249.649 171.722 222.01 205.817 222.01C207.044 222.01 208.262 222.046 209.471 222.116Z" fill="black"/>
</g>
</mask>
<g mask="url(#mask4_1_23)">
<path id="Vector_18" d="M209.471 222.116L204.021 315.494L287.073 320.341L301.576 238.422L209.471 222.116ZM401.053 183.716L322.455 234.426L356.945 287.885L419.337 275.449L401.053 183.716ZM417.106 345.479V251.942H417.106L417.106 345.479ZM301.576 238.422C302.511 233.14 307.285 229.127 312.805 229.127V42.0522C214.973 42.0522 133.843 112.738 117.366 205.81L301.576 238.422ZM312.805 229.127C316.732 229.127 320.269 231.038 322.455 234.426L479.652 133.007C444.474 78.4819 382.922 42.0522 312.805 42.0522V229.127ZM417.106 88.6019C405.439 88.6019 393.947 89.7554 382.769 91.9834L419.337 275.449C418.54 275.608 417.785 275.677 417.106 275.677V88.6019ZM592.313 263.809C592.313 167.045 513.871 88.6019 417.106 88.6019V275.677C410.552 275.677 405.239 270.363 405.239 263.809H592.313ZM417.106 439.017C513.871 439.017 592.313 360.574 592.313 263.809H405.239C405.239 257.255 410.552 251.942 417.106 251.942V439.017ZM205.817 439.017L417.106 439.017L417.106 251.942L205.817 251.943V439.017ZM50.5449 283.745C50.5449 369.499 120.063 439.017 205.817 439.017V251.943C223.381 251.943 237.62 266.181 237.62 283.745H50.5449ZM205.817 128.472C120.063 128.472 50.5449 197.99 50.5449 283.745H237.62C237.62 301.309 223.381 315.547 205.817 315.547V128.472ZM214.921 128.738C211.898 128.561 208.863 128.472 205.817 128.472V315.547C205.225 315.547 204.626 315.53 204.021 315.494L214.921 128.738Z" fill="#96237A"/>
</g>
</g>
<path id="Vector_19" fill-rule="evenodd" clip-rule="evenodd" d="M209.471 222.116C218.177 172.94 261.129 135.59 312.804 135.59C349.827 135.59 382.371 154.76 401.053 183.716C406.243 182.682 411.611 182.139 417.106 182.139C462.211 182.139 498.776 218.704 498.776 263.809C498.776 308.915 462.211 345.48 417.106 345.48L205.817 345.48C171.722 345.48 144.082 317.84 144.082 283.745C144.082 249.649 171.722 222.01 205.817 222.01C207.044 222.01 208.262 222.046 209.471 222.116Z" fill="#D9D9D9"/>
<g id="Mask group_5">
<mask id="mask5_1_23" style="mask-type:luminance" maskUnits="userSpaceOnUse" x="109" y="101" width="425" height="279">
<g id="Group_8">
<path id="Vector_20" d="M533.457 101.329H109.82V379.766H533.457V101.329Z" fill="white"/>
<path id="Vector_21" fill-rule="evenodd" clip-rule="evenodd" d="M209.471 222.116C218.177 172.94 261.129 135.59 312.804 135.59C349.827 135.59 382.371 154.76 401.053 183.716C406.243 182.682 411.611 182.139 417.106 182.139C462.211 182.139 498.776 218.704 498.776 263.809C498.776 308.915 462.211 345.48 417.106 345.48L205.817 345.48C171.722 345.48 144.082 317.84 144.082 283.745C144.082 249.649 171.722 222.01 205.817 222.01C207.044 222.01 208.262 222.046 209.471 222.116Z" fill="black"/>
</g>
</mask>
<g mask="url(#mask5_1_23)">
<path id="Vector_22" d="M209.47 222.116L207.474 256.318L237.894 258.094L243.206 228.089L209.47 222.116ZM401.052 183.716L372.263 202.29L384.896 221.871L407.749 217.316L401.052 183.716ZM243.206 228.089C249.066 194.989 278.034 169.851 312.803 169.851V101.329C244.222 101.329 187.286 150.889 175.734 216.143L243.206 228.089ZM312.803 169.851C337.704 169.851 359.623 182.7 372.263 202.29L429.841 165.142C405.117 126.821 361.948 101.329 312.803 101.329V169.851ZM417.105 147.879C409.35 147.879 401.738 148.645 394.355 150.116L407.749 217.316C410.746 216.719 413.871 216.4 417.105 216.4V147.879ZM533.036 263.809C533.036 199.783 481.132 147.879 417.105 147.879V216.4C443.289 216.4 464.514 237.626 464.514 263.809H533.036ZM417.105 379.74C481.132 379.74 533.036 327.836 533.036 263.809H464.514C464.514 289.993 443.289 311.219 417.105 311.219V379.74ZM205.816 379.741L417.105 379.74V311.219L205.816 311.219V379.741ZM109.82 283.745C109.82 336.762 152.799 379.741 205.816 379.741V311.219C190.643 311.219 178.342 298.919 178.342 283.745H109.82ZM205.816 187.749C152.799 187.749 109.82 230.728 109.82 283.745H178.342C178.342 268.571 190.643 256.27 205.816 256.27V187.749ZM211.466 187.914C209.593 187.804 207.709 187.749 205.816 187.749V256.27C206.377 256.27 206.929 256.287 207.474 256.318L211.466 187.914Z" fill="white"/>
</g>
</g>
<path id="Vector_23" fill-rule="evenodd" clip-rule="evenodd" d="M209.471 222.116C218.177 172.94 261.129 135.59 312.804 135.59C349.827 135.59 382.371 154.76 401.053 183.716C406.243 182.682 411.611 182.139 417.106 182.139C462.211 182.139 498.776 218.704 498.776 263.809C498.776 308.915 462.211 345.48 417.106 345.48L205.817 345.48C171.722 345.48 144.082 317.84 144.082 283.745C144.082 249.649 171.722 222.01 205.817 222.01C207.044 222.01 208.262 222.046 209.471 222.116Z" fill="#FFD4F4"/>
<g id="Mask group_6">
<mask id="mask6_1_23" style="mask-type:luminance" maskUnits="userSpaceOnUse" x="111" y="102" width="421" height="277">
<g id="Group_9">
<path id="Vector_24" d="M531.827 102.96H111.453V378.134H531.827V102.96Z" fill="white"/>
<path id="Vector_25" fill-rule="evenodd" clip-rule="evenodd" d="M209.471 222.116C218.177 172.94 261.129 135.59 312.804 135.59C349.827 135.59 382.371 154.76 401.053 183.716C406.243 182.682 411.611 182.139 417.106 182.139C462.211 182.139 498.776 218.704 498.776 263.809C498.776 308.915 462.211 345.48 417.106 345.48L205.817 345.48C171.722 345.48 144.082 317.84 144.082 283.745C144.082 249.649 171.722 222.01 205.817 222.01C207.044 222.01 208.262 222.046 209.471 222.116Z" fill="black"/>
</g>
</mask>
<g mask="url(#mask6_1_23)">
<path id="Vector_26" d="M209.471 222.116L207.57 254.69L236.542 256.381L241.601 227.804L209.471 222.116ZM401.053 183.716L373.635 201.406L385.667 220.054L407.431 215.716L401.053 183.716ZM241.601 227.804C247.596 193.94 277.23 168.219 312.805 168.219V102.96C245.028 102.96 188.758 151.939 177.341 216.428L241.601 227.804ZM312.805 168.219C338.282 168.219 360.708 181.369 373.635 201.406L428.471 166.027C404.035 128.151 361.372 102.96 312.805 102.96V168.219ZM417.107 149.51C409.459 149.51 401.955 150.265 394.675 151.716L407.431 215.716C410.533 215.098 413.765 214.769 417.107 214.769V149.51ZM531.406 263.809C531.406 200.683 480.232 149.51 417.107 149.51V214.769C444.191 214.769 466.147 236.725 466.147 263.809H531.406ZM417.107 378.109C480.232 378.109 531.406 326.935 531.406 263.809H466.147C466.147 290.894 444.191 312.85 417.107 312.85V378.109ZM205.818 378.109L417.107 378.109V312.85L205.818 312.851V378.109ZM111.453 283.745C111.453 335.861 153.702 378.109 205.818 378.109V312.851C189.743 312.851 176.712 299.819 176.712 283.745H111.453ZM205.818 189.38C153.702 189.38 111.453 231.629 111.453 283.745H176.712C176.712 267.67 189.743 254.639 205.818 254.639V189.38ZM211.372 189.542C209.531 189.435 207.679 189.38 205.818 189.38V254.639C206.41 254.639 206.994 254.656 207.57 254.69L211.372 189.542Z" fill="#96237A"/>
</g>
</g>
<path id="Vector_27" d="M205.503 345.479C239.511 345.479 267.08 317.91 267.08 283.902C267.08 249.894 239.511 222.325 205.503 222.325C171.495 222.325 143.926 249.894 143.926 283.902C143.926 317.91 171.495 345.479 205.503 345.479Z" fill="#FFD4F4"/>
<path id="Vector_28" opacity="0.34" d="M262.057 341.971C295.862 341.971 323.266 314.567 323.266 280.762C323.266 246.957 295.862 219.553 262.057 219.553C228.252 219.553 200.848 246.957 200.848 280.762C200.848 314.567 228.252 341.971 262.057 341.971Z" fill="#FFD4F4"/>
<path id="Vector_29" d="M312.804 345.479C370.763 345.479 417.748 298.494 417.748 240.534C417.748 182.575 370.763 135.59 312.804 135.59C254.845 135.59 207.859 182.575 207.859 240.534C207.859 298.494 254.845 345.479 312.804 345.479Z" fill="#FFD4F4" fill-opacity="0.831373"/>
<g id="Clip path group_2">
<mask id="mask7_1_23" style="mask-type:luminance" maskUnits="userSpaceOnUse" x="263" y="194" width="95" height="95">
<g id="h">
<path id="Vector_30" d="M357.931 194.244H263.176V289H357.931V194.244Z" fill="white"/>
</g>
</mask>
<g mask="url(#mask7_1_23)">
<g id="Group_10">
<path id="Vector_31" d="M310.553 241.621C328.542 241.621 343.125 233.667 343.125 223.855C343.125 214.042 328.542 206.088 310.553 206.088C292.564 206.088 277.98 214.042 277.98 223.855C277.98 233.667 292.564 241.621 310.553 241.621Z" stroke="#96237A" stroke-width="5.92222" stroke-linecap="round" stroke-linejoin="round"/>
<path id="Vector_32" d="M277.98 223.855V241.622C277.98 251.434 292.564 259.388 310.553 259.388C328.541 259.388 343.125 251.434 343.125 241.622V223.855" stroke="#96237A" stroke-width="5.92222" stroke-linecap="round" stroke-linejoin="round"/>
<path id="Vector_33" d="M277.98 241.622V259.388C277.98 269.201 292.564 277.155 310.553 277.155C328.541 277.155 343.125 269.201 343.125 259.388V241.622" stroke="#96237A" stroke-width="5.92222" stroke-linecap="round" stroke-linejoin="round"/>
</g>
</g>
</g>
<g id="Group_11" filter="url(#filter0_d_1_23)">
<path id="Vector_34" d="M417.052 345.48C462.213 345.48 498.824 308.87 498.824 263.709C498.824 218.548 462.213 181.938 417.052 181.938C371.891 181.938 335.281 218.548 335.281 263.709C335.281 308.87 371.891 345.48 417.052 345.48Z" fill="#FFD4F4"/>
</g>
</g>
</g>
</g>
</g>
</g>
</g>
</g>
</g>
</g>
</g>
</g>
</g>
</g>
</g>
</g>
</g>
</g>
<defs>
<filter id="filter0_d_1_23" x="308.634" y="181.938" width="190.19" height="163.542" filterUnits="userSpaceOnUse" color-interpolation-filters="sRGB">
<feFlood flood-opacity="0" result="BackgroundImageFix"/>
<feColorMatrix in="SourceAlpha" type="matrix" values="0 0 0 0 0 0 0 0 0 0 0 0 0 0 0 0 0 0 127 0" result="hardAlpha"/>
<feOffset dx="-26.6473"/>
<feComposite in2="hardAlpha" operator="out"/>
<feColorMatrix type="matrix" values="0 0 0 0 0 0 0 0 0 0 0 0 0 0 0 0 0 0 0.15 0"/>
<feBlend mode="normal" in2="BackgroundImageFix" result="effect1_dropShadow_1_23"/>
<feBlend mode="normal" in="SourceGraphic" in2="effect1_dropShadow_1_23" result="shape"/>
</filter>
<clipPath id="clip0_1_23">
<rect x="4.33008" y="38.8701" width="634.11" height="403.52" rx="12.31" fill="white"/>
</clipPath>
<clipPath id="clip1_1_23">
<rect width="653.13" height="415.62" fill="white" transform="translate(-5.18945 32.8203)"/>
</clipPath>
<clipPath id="clip2_1_23">
<rect width="653.13" height="415.62" fill="white" transform="translate(-5.18945 32.8203)"/>
</clipPath>
<clipPath id="clip3_1_23">
<rect width="653.13" height="435.601" fill="white" transform="translate(-5.18945 22.8296)"/>
</clipPath>
</defs>
</svg>
